<svg width="280" height="168" viewBox="0 0 280 168" fill="none" xmlns="http://www.w3.org/2000/svg">
<path d="M56.0896 66.9805C41.0938 64.0192 26.0871 65.4975 12.967 71.2284C-0.153007 76.9593 -10.797 86.6854 -17.619 99.1768C-24.441 111.668 -27.1346 126.364 -25.3592 141.405C-23.5837 156.447 -17.419 171.159 -7.64453 183.681C2.12994 196.202 15.0751 205.972 29.554 211.753C44.0329 217.535 59.3952 219.068 73.6983 216.161C88.0014 213.253 100.603 206.035 109.909 195.418C119.215 184.801 124.808 171.263 125.981 156.516L50.1608 141.544L56.0896 66.9805Z" fill="#2DD4BF" fill-opacity="0.8"/>
<ellipse cx="252.908" cy="64.9102" rx="69.876" ry="47.5437" transform="rotate(42.1447 252.908 64.9102)" fill="#2DD4BF"/>
<ellipse opacity="0.5" cx="132.595" cy="-17.2283" rx="87.0594" ry="135.753" transform="rotate(-75 132.595 -17.2283)" fill="#A855F7"/>
</svg>