<svg width="280" height="168" viewBox="0 0 280 168" fill="none" xmlns="http://www.w3.org/2000/svg">
<ellipse cx="214.501" cy="70.5011" rx="67.0078" ry="104.486" transform="rotate(-45 214.501 70.5011)" fill="#A855F7"/>
<path opacity="0.5" d="M47.3136 19.5681C24.462 8.67083 1.70196 4.2368 -17.8756 6.86813C-37.4532 9.49946 -52.8996 19.0686 -62.1173 34.2762C-71.3349 49.4837 -73.877 69.5926 -69.3985 91.8721C-64.9199 114.152 -53.6377 137.522 -37.0839 158.81C-20.5302 180.097 0.492952 198.27 23.1305 210.861C45.7679 223.452 68.9228 229.85 89.4506 229.187C109.978 228.524 126.884 220.832 137.873 207.155C148.861 193.478 153.399 174.479 150.87 152.739L40 117.682L47.3136 19.5681Z" fill="#A855F7"/>
<ellipse cx="168.96" cy="11.9602" rx="38.7249" ry="60.3263" transform="rotate(-45 168.96 11.9602)" fill="#2DD4BF" fill-opacity="0.8"/>
<ellipse cx="2.28553e-05" cy="144" rx="38.7249" ry="60.3263" transform="rotate(-45 2.28553e-05 144)" fill="#2DD4BF" fill-opacity="0.64"/>
<ellipse cx="244.36" cy="116.723" rx="64.7259" ry="62.4069" transform="rotate(-45 244.36 116.723)" fill="#2DD4BF"/>
</svg>
