<?xml version="1.0" encoding="UTF-8" standalone="no"?>
<!-- Created with Inkscape (http://www.inkscape.org/) -->

<svg
   xmlns:dc="http://purl.org/dc/elements/1.1/"
   xmlns:cc="http://creativecommons.org/ns#"
   xmlns:rdf="http://www.w3.org/1999/02/22-rdf-syntax-ns#"
   xmlns:svg="http://www.w3.org/2000/svg"
   xmlns="http://www.w3.org/2000/svg"
   xmlns:sodipodi="http://sodipodi.sourceforge.net/DTD/sodipodi-0.dtd"
   xmlns:inkscape="http://www.inkscape.org/namespaces/inkscape"
   width="420"
   height="420"
   id="svg2"
   version="1.1"
   inkscape:version="0.48.4 r9939"
   sodipodi:docname="Novo documento 1">
  <defs
     id="defs4" />
  <sodipodi:namedview
     id="base"
     pagecolor="#ffffff"
     bordercolor="#666666"
     borderopacity="1.0"
     inkscape:pageopacity="0.0"
     inkscape:pageshadow="2"
     inkscape:zoom="1.1217"
     inkscape:cx="187.14287"
     inkscape:cy="272.85713"
     inkscape:document-units="px"
     inkscape:current-layer="layer1"
     showgrid="false"
     fit-margin-top="10"
     fit-margin-left="10"
     fit-margin-bottom="10"
     fit-margin-right="10"
     inkscape:window-width="1600"
     inkscape:window-height="875"
     inkscape:window-x="0"
     inkscape:window-y="0"
     inkscape:window-maximized="1" />
  <metadata
     id="metadata7">
    <rdf:RDF>
      <cc:Work
         rdf:about="">
        <dc:format>image/svg+xml</dc:format>
        <dc:type
           rdf:resource="http://purl.org/dc/dcmitype/StillImage" />
        <dc:title></dc:title>
      </cc:Work>
    </rdf:RDF>
  </metadata>
  <g
     inkscape:label="Camada 1"
     inkscape:groupmode="layer"
     id="layer1"
     transform="translate(-172.85713,-385.21931)">
    <path
       style="fill:#2e3436"
       d="m 188.93668,734.84204 0,-54.29773 54.29772,0 54.29773,0 0,54.29773 0,54.29772 -54.29773,0 -54.29772,0 0,-54.29772 z m 93.08182,0 0,-38.7841 -38.7841,0 -38.78408,0 0,38.7841 0,38.78408 38.78408,0 38.7841,0 0,-38.78408 z m -62.05455,0 0,-23.27046 23.27045,0 23.27046,0 0,23.27046 0,23.27045 -23.27046,0 -23.27045,0 0,-23.27045 z m 93.08182,46.5409 0,-7.75682 7.75681,0 7.75682,0 0,-7.75681 0,-7.75682 -7.75682,0 -7.75681,0 0,-7.75682 0,-7.75681 7.75681,0 7.75682,0 0,-7.75682 0,-7.75682 7.75682,0 7.75682,0 0,-7.75682 0,-7.75682 7.75682,0 7.75682,0 0,-7.75682 0,-7.75682 7.75682,0 7.75681,0 0,-15.51363 0,-15.51364 -7.75681,0 -7.75682,0 0,7.75682 0,7.75682 -7.75682,0 -7.75682,0 0,7.75682 0,7.75681 -15.51364,0 -15.51363,0 0,-15.51363 0,-15.51364 -15.51364,0 -15.51363,0 0,-7.75681 0,-7.75682 -7.75682,0 -7.75682,0 0,7.75682 0,7.75681 -7.75682,0 -7.75682,0 0,-7.75681 0,-7.75682 7.75682,0 7.75682,0 0,-7.75682 0,-7.75682 7.75682,0 7.75682,0 0,-7.75682 0,-7.75682 7.75681,0 7.75682,0 0,-7.75682 0,-7.75681 -7.75682,0 -7.75681,0 0,-7.75682 0,-7.75682 -7.75682,0 -7.75682,0 0,15.51364 0,15.51363 -23.27046,0 -23.27045,0 0,7.75682 0,7.75682 -15.51363,0 -15.51364,0 0,-7.75682 0,-7.75682 7.75682,0 7.75682,0 0,-7.75682 0,-7.75681 -7.75682,0 -7.75682,0 0,-7.75682 0,-7.75682 15.51364,0 15.51363,0 0,-7.75681 0,-7.75682 7.75682,0 7.75681,0 0,-15.51364 0,-15.51364 -7.75681,0 -7.75682,0 0,7.75682 0,7.75682 -7.75682,0 -7.75681,0 0,7.75682 0,7.75682 -7.75682,0 -7.75682,0 0,-7.75682 0,-7.75682 7.75682,0 7.75682,0 0,-7.75682 0,-7.75682 -7.75682,0 -7.75682,0 0,-7.75682 0,-7.75681 7.75682,0 7.75682,0 0,7.75681 0,7.75682 7.75681,0 7.75682,0 0,-7.75682 0,-7.75681 7.75682,0 7.75681,0 0,7.75681 0,7.75682 15.51364,0 15.51364,0 0,7.75682 0,7.75682 31.02727,0 31.02727,0 0,-7.75682 0,-7.75682 7.75682,0 7.75682,0 0,-7.75682 0,-7.75681 -7.75682,0 -7.75682,0 0,-7.75682 0,-7.75682 -7.75682,0 -7.75681,0 0,-15.51363 0,-15.51364 7.75681,0 7.75682,0 0,15.51364 0,15.51363 7.75682,0 7.75682,0 0,-15.51363 0,-15.51364 7.75682,0 7.75682,0 0,-7.75682 0,-7.75682 -15.51364,0 -15.51364,0 0,-7.75682 0,-7.75682 -7.75682,0 -7.75681,0 0,-7.75681 0,-7.75682 7.75681,0 7.75682,0 0,-7.75682 0,-7.75681 -7.75682,0 -7.75681,0 0,-7.75682 0,-7.75682 7.75681,0 7.75682,0 0,7.75682 0,7.75682 7.75682,0 7.75682,0 0,-7.75682 0,-7.75682 7.75682,0 7.75682,0 0,7.75682 0,7.75682 7.75682,0 7.75681,0 0,7.75681 0,7.75682 15.51364,0 15.51363,0 0,-7.75682 0,-7.75681 -7.75682,0 -7.75681,0 0,-7.75682 0,-7.75682 15.51363,0 15.51364,0 0,15.51364 0,15.51363 7.75682,0 7.75682,0 0,-7.75682 0,-7.75681 7.75682,0 7.75681,0 0,7.75681 0,7.75682 -7.75681,0 -7.75682,0 0,7.75682 0,7.75681 -7.75682,0 -7.75682,0 0,15.51364 0,15.51364 -7.75682,0 -7.75682,0 0,-7.75682 0,-7.75682 -7.75682,0 -7.75681,0 0,7.75682 0,7.75682 -7.75682,0 -7.75682,0 0,7.75682 0,7.75682 7.75682,0 7.75682,0 0,31.02727 0,31.02727 15.51363,0 15.51364,0 0,-15.51364 0,-15.51363 -7.75682,0 -7.75682,0 0,-15.51364 0,-15.51363 7.75682,0 7.75682,0 0,15.51363 0,15.51364 7.75682,0 7.75682,0 0,7.75681 0,7.75682 23.27045,0 23.27045,0 0,-7.75682 0,-7.75681 7.75682,0 7.75682,0 0,15.51363 0,15.51364 7.75682,0 7.75682,0 0,-7.75682 0,-7.75682 7.75682,0 7.75682,0 0,-7.75682 0,-7.75681 7.75681,0 7.75682,0 0,7.75681 0,7.75682 7.75682,0 7.75681,0 0,-7.75682 0,-7.75681 7.75682,0 7.75682,0 0,23.27045 0,23.27046 -7.75682,0 -7.75682,0 0,-7.75682 0,-7.75682 -7.75681,0 -7.75682,0 0,7.75682 0,7.75682 -7.75682,0 -7.75681,0 0,7.75682 0,7.75681 -7.75682,0 -7.75682,0 0,-7.75681 0,-7.75682 -23.27046,0 -23.27045,0 0,-7.75682 0,-7.75682 -15.51364,0 -15.51363,0 0,7.75682 0,7.75682 -7.75682,0 -7.75682,0 0,15.51363 0,15.51364 7.75682,0 7.75682,0 0,-7.75682 0,-7.75682 23.27045,0 23.27045,0 0,7.75682 0,7.75682 7.75682,0 7.75682,0 0,7.75681 0,7.75682 -15.51364,0 -15.51363,0 0,-7.75682 0,-7.75681 -7.75682,0 -7.75682,0 0,7.75681 0,7.75682 -7.75681,0 -7.75682,0 0,15.51364 0,15.51364 15.51363,0 15.51364,0 0,-7.75682 0,-7.75682 23.27045,0 23.27046,0 0,-7.75682 0,-7.75682 15.51364,0 15.51363,0 0,-7.75682 0,-7.75681 7.75682,0 7.75681,0 0,-7.75682 0,-7.75682 7.75682,0 7.75682,0 0,23.27045 0,23.27046 -7.75682,0 -7.75682,0 0,-7.75682 0,-7.75682 -7.75681,0 -7.75682,0 0,7.75682 0,7.75682 -7.75682,0 -7.75681,0 0,7.75682 0,7.75682 -7.75682,0 -7.75682,0 0,46.5409 0,46.54092 7.75682,0 7.75682,0 0,-7.75682 0,-7.75682 7.75681,0 7.75682,0 0,-7.75682 0,-7.75682 7.75682,0 7.75681,0 0,15.51364 0,15.51364 7.75682,0 7.75682,0 0,7.75681 0,7.75682 -15.51364,0 -15.51363,0 0,-7.75682 0,-7.75681 -7.75682,0 -7.75681,0 0,7.75681 0,7.75682 -7.75682,0 -7.75682,0 0,7.75682 0,7.75681 7.75682,0 7.75682,0 0,7.75682 0,7.75682 -7.75682,0 -7.75682,0 0,-7.75682 0,-7.75682 -15.51364,0 -15.51364,0 0,-15.51363 0,-15.51363 7.75682,0 7.75682,0 0,-7.75682 0,-7.75682 -15.51364,0 -15.51363,0 0,7.75682 0,7.75682 -7.75682,0 -7.75682,0 0,-7.75682 0,-7.75682 -7.75681,0 -7.75682,0 0,15.51364 0,15.51363 15.51363,0 15.51364,0 0,7.75682 0,7.75681 -7.75682,0 -7.75682,0 0,7.75682 0,7.75682 -7.75681,0 -7.75682,0 0,-15.51364 0,-15.51363 -15.51364,0 -15.51364,0 0,-15.51363 0,-15.51364 7.75682,0 7.75682,0 0,-7.75682 0,-7.75682 -7.75682,0 -7.75682,0 0,-7.75682 0,-7.75682 15.51364,0 15.51364,0 0,-23.27045 0,-23.27045 -7.75682,0 -7.75682,0 0,-23.27046 0,-23.27045 -7.75682,0 -7.75682,0 0,7.75681 0,7.75682 -7.75682,0 -7.75681,0 0,-7.75682 0,-7.75681 7.75681,0 7.75682,0 0,-15.51364 0,-15.51363 -15.51363,0 -15.51364,0 0,7.75682 0,7.75681 -15.51363,0 -15.51364,0 0,7.75682 0,7.75682 7.75682,0 7.75682,0 0,7.75681 0,7.75682 7.75682,0 7.75681,0 0,7.75682 0,7.75682 -15.51363,0 -15.51364,0 0,-7.75682 0,-7.75682 -7.75682,0 -7.75682,0 0,-15.51363 0,-15.51364 -15.51363,0 -15.51364,0 0,7.75682 0,7.75682 7.75682,0 7.75682,0 0,31.02727 0,31.02727 7.75681,0 7.75682,0 0,-7.75681 0,-7.75682 31.02728,0 31.02727,0 0,7.75682 0,7.75681 7.75681,0 7.75682,0 0,7.75682 0,7.75682 -7.75682,0 -7.75681,0 0,23.27045 0,23.27046 -7.75682,0 -7.75682,0 0,-7.75682 0,-7.75682 -7.75681,0 -7.75682,0 0,15.51364 0,15.51364 7.75682,0 7.75681,0 0,7.75681 0,7.75682 7.75682,0 7.75682,0 0,15.51363 0,15.51364 -38.78409,0 -38.78409,0 0,-7.75682 z m 46.54091,-31.02727 0,-7.75681 -15.51364,0 -15.51364,0 0,7.75681 0,7.75682 15.51364,0 15.51364,0 0,-7.75682 z m 139.62272,-62.05454 0,-23.27046 -23.27045,0 -23.27046,0 0,23.27046 0,23.27045 23.27046,0 23.27045,0 0,-23.27045 z m -31.02727,0 0,-7.75682 7.75682,0 7.75681,0 0,7.75682 0,7.75681 -7.75681,0 -7.75682,0 0,-7.75681 z m -170.65,-46.54091 0,-7.75682 -7.75682,0 -7.75681,0 0,7.75682 0,7.75682 7.75681,0 7.75682,0 0,-7.75682 z m 0,-62.05454 0,-7.75682 -7.75682,0 -7.75681,0 0,7.75682 0,7.75681 7.75681,0 7.75682,0 0,-7.75681 z m 46.54091,-7.75682 0,-15.51364 -7.75682,0 -7.75682,0 0,15.51364 0,15.51363 7.75682,0 7.75682,0 0,-15.51363 z m 31.02727,-46.54091 0,-31.02727 -7.75681,0 -7.75682,0 0,31.02727 0,31.02727 7.75682,0 7.75681,0 0,-31.02727 z m 170.65,23.27045 0,-7.75682 -7.75682,0 -7.75681,0 0,7.75682 0,7.75682 7.75681,0 7.75682,0 0,-7.75682 z m -155.13636,-93.08182 0,-7.75682 -7.75682,0 -7.75682,0 0,-7.75681 0,-7.75682 -7.75681,0 -7.75682,0 0,-7.75682 0,-7.75681 -7.75682,0 -7.75682,0 0,7.75681 0,7.75682 7.75682,0 7.75682,0 0,7.75682 0,7.75681 7.75682,0 7.75681,0 0,7.75682 0,7.75682 7.75682,0 7.75682,0 0,-7.75682 z m 170.64999,325.78636 0,-7.75682 7.75682,0 7.75682,0 0,7.75682 0,7.75682 -7.75682,0 -7.75682,0 0,-7.75682 z m 0,-100.83863 0,-15.51364 -7.75681,0 -7.75682,0 0,-7.75681 0,-7.75682 7.75682,0 7.75681,0 0,7.75682 0,7.75681 7.75682,0 7.75682,0 0,15.51364 0,15.51363 -7.75682,0 -7.75682,0 0,-15.51363 z m -372.32726,-23.27045 0,-7.75682 15.51364,0 15.51363,0 0,7.75682 0,7.75681 -15.51363,0 -15.51364,0 0,-7.75681 z m 93.08182,-124.1091 0,-7.75681 15.51363,0 15.51364,0 0,7.75681 0,7.75682 -15.51364,0 -15.51363,0 0,-7.75682 z m -93.08182,-77.56818 0,-54.29772 54.29772,0 54.29773,0 0,54.29772 0,54.29773 -54.29773,0 -54.29772,0 0,-54.29773 z m 93.08182,0 0,-38.78408 -38.7841,0 -38.78408,0 0,38.78408 0,38.7841 38.78408,0 38.7841,0 0,-38.7841 z m -62.05455,0 0,-23.27045 23.27045,0 23.27046,0 0,23.27045 0,23.27046 -23.27046,0 -23.27045,0 0,-23.27046 z m 217.19091,46.54091 0,-7.75681 7.75682,0 7.75681,0 0,7.75681 0,7.75682 -7.75681,0 -7.75682,0 0,-7.75682 z m 31.02727,-46.54091 0,-54.29772 54.29773,0 54.29772,0 0,54.29772 0,54.29773 -54.29772,0 -54.29773,0 0,-54.29773 z m 93.08181,0 0,-38.78408 -38.78408,0 -38.7841,0 0,38.78408 0,38.7841 38.7841,0 38.78408,0 0,-38.7841 z m -62.05454,0 0,-23.27045 23.27046,0 23.27045,0 0,23.27045 0,23.27046 -23.27045,0 -23.27046,0 0,-23.27046 z"
       id="path2996"
       inkscape:connector-curvature="0" />
  </g>
</svg>
