<svg width="15" height="16" viewBox="0 0 15 16" fill="none" xmlns="http://www.w3.org/2000/svg">
<path d="M13.75 0.125H1.25C0.918479 0.125 0.600537 0.256696 0.366116 0.491116C0.131696 0.725537 0 1.04348 0 1.375V5.96641C0 12.9672 5.92344 15.2898 7.10938 15.6844C7.36267 15.7705 7.63733 15.7705 7.89062 15.6844C9.07812 15.2898 15 12.9672 15 5.96641V1.375C15 1.04348 14.8683 0.725537 14.6339 0.491116C14.3995 0.256696 14.0815 0.125 13.75 0.125ZM11.0672 5.56719L6.69219 9.94219C6.63414 10.0003 6.56521 10.0464 6.48934 10.0778C6.41346 10.1093 6.33213 10.1255 6.25 10.1255C6.16787 10.1255 6.08654 10.1093 6.01066 10.0778C5.93479 10.0464 5.86586 10.0003 5.80781 9.94219L3.93281 8.06719C3.81554 7.94991 3.74965 7.79085 3.74965 7.625C3.74965 7.45915 3.81554 7.30009 3.93281 7.18281C4.05009 7.06554 4.20915 6.99965 4.375 6.99965C4.54085 6.99965 4.69991 7.06554 4.81719 7.18281L6.25 8.61562L10.1828 4.68281C10.2409 4.62474 10.3098 4.57868 10.3857 4.54725C10.4616 4.51583 10.5429 4.49965 10.625 4.49965C10.7071 4.49965 10.7884 4.51583 10.8643 4.54725C10.9402 4.57868 11.0091 4.62474 11.0672 4.68281C11.1253 4.74088 11.1713 4.80982 11.2027 4.88569C11.2342 4.96156 11.2503 5.04288 11.2503 5.125C11.2503 5.20712 11.2342 5.28844 11.2027 5.36431C11.1713 5.44018 11.1253 5.50912 11.0672 5.56719Z" fill="#476B43"/>
</svg>
