<svg width="34" height="33" viewBox="0 0 34 33" fill="none" xmlns="http://www.w3.org/2000/svg">
<g clip-path="url(#clip0_26_2346)">
<path d="M20.8506 24.5615L19.3506 21.9635C19.2511 21.7912 19.2242 21.5865 19.2757 21.3944C19.3271 21.2022 19.4528 21.0384 19.6251 20.9389C19.7974 20.8395 20.0021 20.8125 20.1942 20.864C20.3863 20.9155 20.5502 21.0412 20.6496 21.2135L22.1496 23.8115C22.2491 23.9838 22.276 24.1885 22.2245 24.3807C22.1731 24.5728 22.0474 24.7366 21.8751 24.8361C21.7028 24.9355 21.4981 24.9625 21.306 24.911C21.1139 24.8595 20.95 24.7338 20.8506 24.5615ZM9.58087 21.5418L12.1789 20.0418C12.3512 19.9424 12.4769 19.7786 12.5284 19.5864C12.5799 19.3943 12.5529 19.1896 12.4535 19.0173C12.354 18.845 12.1902 18.7194 11.9981 18.6679C11.8059 18.6164 11.6012 18.6433 11.4289 18.7428L8.83087 20.2428C8.65861 20.3422 8.53291 20.5061 8.48143 20.6982C8.42994 20.8903 8.4569 21.095 8.55635 21.2673C8.65581 21.4396 8.81962 21.5653 9.01176 21.6168C9.20389 21.6682 9.40861 21.6413 9.58087 21.5418ZM11.0105 15.5636C11.2006 15.6094 11.4011 15.579 11.5693 15.4791C11.7374 15.3791 11.8598 15.2175 11.9104 15.0285C11.961 14.8396 11.9359 14.6384 11.8402 14.4678C11.7446 14.2971 11.5861 14.1706 11.3986 14.1152L8.50128 13.3382C8.30904 13.2867 8.10421 13.3136 7.93185 13.4131C7.75949 13.5127 7.63372 13.6766 7.58221 13.8688C7.5307 14.061 7.55766 14.2659 7.65718 14.4382C7.75669 14.6106 7.92059 14.7364 8.11283 14.7879L11.0105 15.5636ZM14.3751 11.8457C14.5474 11.7462 14.6731 11.5824 14.7245 11.3903C14.776 11.1981 14.7491 10.9934 14.6496 10.8212L13.1496 8.22308C13.0502 8.05082 12.8863 7.92512 12.6942 7.87364C12.5021 7.82216 12.2974 7.84911 12.1251 7.94857C11.9528 8.04802 11.8271 8.21184 11.7757 8.40397C11.7242 8.5961 11.7511 8.80082 11.8506 8.97308L13.3506 11.5712C13.45 11.7434 13.6138 11.8691 13.806 11.9206C13.9981 11.9721 14.2028 11.9451 14.3751 11.8457ZM19.2772 10.7908L20.0542 7.89349C20.1058 7.70125 20.0788 7.49642 19.9793 7.32406C19.8798 7.1517 19.7159 7.02593 19.5236 6.97442C19.3314 6.92291 19.1265 6.94988 18.9542 7.04939C18.7818 7.1489 18.6561 7.31281 18.6045 7.50505L17.8288 10.4027C17.783 10.5928 17.8134 10.7934 17.9133 10.9615C18.0133 11.1296 18.175 11.252 18.3639 11.3026C18.5528 11.3533 18.754 11.3281 18.9246 11.2325C19.0953 11.1368 19.2218 10.9784 19.2772 10.7908ZM21.5467 13.7673C21.6462 13.9396 21.81 14.0653 22.0021 14.1168C22.1943 14.1682 22.399 14.1413 22.5713 14.0418L25.1693 12.5418C25.3416 12.4424 25.4673 12.2786 25.5188 12.0864C25.5703 11.8943 25.5433 11.6896 25.4438 11.5173C25.3444 11.345 25.1806 11.2193 24.9884 11.1679C24.7963 11.1164 24.5916 11.1433 24.4193 11.2428L21.8213 12.7428C21.649 12.8422 21.5233 13.0061 21.4718 13.1982C21.4203 13.3903 21.4473 13.595 21.5467 13.7673ZM25.4989 19.4465C25.6912 19.498 25.896 19.471 26.0684 19.3715C26.2407 19.272 26.3665 19.1081 26.418 18.9158C26.4695 18.7236 26.4425 18.5188 26.343 18.3464C26.2435 18.174 26.0796 18.0483 25.8874 17.9968L22.9897 17.221C22.7996 17.1753 22.5991 17.2056 22.4309 17.3055C22.2628 17.4055 22.1404 17.5672 22.0898 17.7561C22.0392 17.945 22.0643 18.1462 22.16 18.3169C22.2556 18.4875 22.4141 18.614 22.6016 18.6694L25.4989 19.4465Z" fill="#F9FAFB"/>
</g>
<defs>
<clipPath id="clip0_26_2346">
<rect width="24" height="24" fill="white" transform="translate(33.3923 20.7847) rotate(150)"/>
</clipPath>
</defs>
</svg>
