<svg width="32" height="12" viewBox="0 0 32 12" fill="none" xmlns="http://www.w3.org/2000/svg">
<path d="M29.6293 11.024L29.3293 9.52399H25.9773L25.444 11.0133L22.7573 11.0187C24.0364 7.94285 25.3181 4.86818 26.6027 1.79466C26.8213 1.27333 27.2093 1.00799 27.7813 1.01066C28.2187 1.01466 28.932 1.01466 29.9227 1.01199L32 11.02L29.6293 11.024ZM26.732 7.46933H28.892L28.0853 3.70933L26.732 7.46933ZM9.41333 1.00933L12.1147 1.01199L7.93867 11.0253L5.204 11.0227C4.51633 8.37775 3.83722 5.73063 3.16667 3.08133C3.03333 2.55333 2.76933 2.18399 2.26133 2.00933C1.51097 1.75789 0.757115 1.51698 0 1.28666L0 1.01333H4.316C5.06267 1.01333 5.49867 1.37466 5.63867 2.11599C5.78 2.85866 6.13467 4.74933 6.70533 7.78799L9.41333 1.00933ZM15.8267 1.01199L13.6907 11.0227L11.12 11.02L13.2533 1.00933L15.8267 1.01199ZM21.04 0.82666C21.8093 0.82666 22.7787 1.06666 23.336 1.28666L22.8853 3.36266C22.3813 3.15999 21.552 2.88666 20.8547 2.89599C19.8413 2.91333 19.2147 3.33866 19.2147 3.74666C19.2147 4.41066 20.3027 4.74533 21.4227 5.47066C22.7013 6.29733 22.8693 7.03999 22.8533 7.84666C22.836 9.52133 21.4227 11.1733 18.4413 11.1733C17.0813 11.1533 16.5907 11.0387 15.4813 10.6453L15.9507 8.47866C17.08 8.95199 17.5587 9.10266 18.524 9.10266C19.408 9.10266 20.1667 8.74533 20.1733 8.12266C20.1787 7.67999 19.9067 7.45999 18.9147 6.91333C17.9227 6.36533 16.5307 5.60666 16.5493 4.08399C16.572 2.13466 18.4187 0.82666 21.0413 0.82666H21.04Z" fill="#F9FAFB"/>
</svg>
