<svg width="14" height="13" viewBox="0 0 14 13" fill="none" xmlns="http://www.w3.org/2000/svg">
<path d="M13.7999 10.7557L8.33431 1.26379C8.19773 1.03124 8.00275 0.838428 7.76869 0.704454C7.53463 0.57048 7.26963 0.5 6.99994 0.5C6.73025 0.5 6.46524 0.57048 6.23118 0.704454C5.99713 0.838428 5.80214 1.03124 5.66556 1.26379L0.199938 10.7557C0.068523 10.9806 -0.000732422 11.2364 -0.000732422 11.4969C-0.000732422 11.7574 0.068523 12.0132 0.199938 12.2382C0.33477 12.4721 0.529419 12.666 0.763914 12.7999C0.998408 12.9338 1.2643 13.0028 1.53431 13H12.4656C12.7354 13.0026 13.001 12.9334 13.2353 12.7996C13.4695 12.6657 13.664 12.4719 13.7987 12.2382C13.9303 12.0134 13.9998 11.7576 14 11.4971C14.0002 11.2366 13.9312 10.9807 13.7999 10.7557ZM6.49994 5.50004C6.49994 5.36743 6.55262 5.24026 6.64638 5.14649C6.74015 5.05272 6.86733 5.00004 6.99994 5.00004C7.13255 5.00004 7.25972 5.05272 7.35349 5.14649C7.44726 5.24026 7.49994 5.36743 7.49994 5.50004V8.00004C7.49994 8.13265 7.44726 8.25983 7.35349 8.35359C7.25972 8.44736 7.13255 8.50004 6.99994 8.50004C6.86733 8.50004 6.74015 8.44736 6.64638 8.35359C6.55262 8.25983 6.49994 8.13265 6.49994 8.00004V5.50004ZM6.99994 11C6.8516 11 6.7066 10.9561 6.58326 10.8736C6.45992 10.7912 6.36379 10.6741 6.30703 10.5371C6.25026 10.4 6.23541 10.2492 6.26435 10.1037C6.29329 9.95824 6.36472 9.8246 6.46961 9.71971C6.5745 9.61482 6.70813 9.54339 6.85362 9.51445C6.99911 9.48551 7.14991 9.50037 7.28695 9.55713C7.42399 9.6139 7.54113 9.71003 7.62354 9.83336C7.70595 9.9567 7.74994 10.1017 7.74994 10.25C7.74994 10.449 7.67092 10.6397 7.53027 10.7804C7.38962 10.921 7.19885 11 6.99994 11Z" fill="#FB7185"/>
</svg>
