<svg class="animated" id="freepik_stories-happy-earth" xmlns="http://www.w3.org/2000/svg" viewBox="0 0 500 500" version="1.1" xmlns:xlink="http://www.w3.org/1999/xlink" xmlns:svgjs="http://svgjs.com/svgjs"><style>svg#freepik_stories-happy-earth:not(.animated) .animable {opacity: 0;}svg#freepik_stories-happy-earth.animated #freepik--Leaves--inject-153 {animation: 1.5s Infinite  linear floating;animation-delay: 0s;}svg#freepik_stories-happy-earth.animated #freepik--Heart--inject-153 {animation: 1.5s Infinite  linear floating;animation-delay: 0s;}svg#freepik_stories-happy-earth.animated #freepik--earth-and-moon--inject-153 {animation: 1.5s Infinite  linear floating;animation-delay: 0s;}svg#freepik_stories-happy-earth.animated #freepik--Flowers--inject-153 {animation: 1.5s Infinite  linear floating;animation-delay: 0s;}            @keyframes floating {                0% {                    opacity: 1;                    transform: translateY(0px);                }                50% {                    transform: translateY(-10px);                }                100% {                    opacity: 1;                    transform: translateY(0px);                }            }        .animator-hidden { display: none; }</style><g id="freepik--background-simple--inject-153" class="animable animator-active animator-hidden" style="transform-origin: 248.651px 254.042px;"><path d="M477.45,347.94l-1.15-1.66c-9.72-14-26.21-21.78-43-19.68a45,45,0,0,0-6.38,1.28,47.94,47.94,0,0,0-32.28,31.74c-2.71,8.91-3,19-8.73,26.28-7.45,9.49-21,10.61-33,11s-25.56,1.52-33,11c-4.64,6-5.73,14.1-4.86,21.65,2.3,20,17.37,37.06,35.7,44.88s39.29,7.33,58.5,2.21c26.91-7.17,51.89-23.85,66-48.1S491.46,372.31,477.45,347.94Z" style="fill: rgb(245, 245, 245); transform-origin: 400.866px 403.335px;" id="elpl20ppc0kpk" class="animable"></path><path d="M373.73,27.36l-1.51.79a38.65,38.65,0,0,0-21.1,34,36.11,36.11,0,0,0,.39,5.49,40.56,40.56,0,0,0,23.18,30.48c7.19,3.22,15.62,4.54,21.13,10.12,7.16,7.27,6.65,18.79,5.68,28.88s-1.46,21.61,5.74,28.85c4.51,4.53,11.22,6.32,17.65,6.39,17,.21,32.95-10.62,41.47-25.16s10.35-32.19,8.1-48.85C471.32,75,460,52.21,441.15,37.75S395.68,18.21,373.73,27.36Z" style="fill: rgb(245, 245, 245); transform-origin: 413.231px 97.5671px;" id="el2d9evb4c379" class="animable"></path><path d="M104.72,475.29l1.29-.78a34.09,34.09,0,0,0,16.62-31.08,32.67,32.67,0,0,0-.66-4.82,35.78,35.78,0,0,0-22.16-25.49c-6.51-2.42-14-3.1-19.17-7.7-6.72-6-6.93-16.15-6.65-25.08s0-19.11-6.71-25.07c-4.23-3.73-10.24-4.91-15.91-4.61-15,.79-28.39,11.24-35,24.52S9.06,404.1,12,418.64C16.1,439,27.37,458.38,44.79,470S85.92,484.61,104.72,475.29Z" style="fill: rgb(245, 245, 245); transform-origin: 66.5111px 415.708px;" id="elbse24x1lqgr" class="animable"></path><g id="elda3ph9qaju7"><circle cx="277.1" cy="451.74" r="23.74" style="fill: rgb(245, 245, 245); transform-origin: 277.1px 451.74px; transform: rotate(-45deg);" class="animable"></circle></g><g id="el1p0xek41o8d"><circle cx="175.11" cy="60.45" r="23.74" style="fill: rgb(245, 245, 245); transform-origin: 175.11px 60.45px; transform: rotate(-76.85deg);" class="animable"></circle></g></g><g id="freepik--Leaves--inject-153" class="animable" style="transform-origin: 275.705px 258.95px;"><path d="M449.1,339c-25.63,21-55.75,17.76-55.75,17.76C410.12,334.27,449.1,339,449.1,339Z" style="fill: rgb(69, 90, 100); transform-origin: 421.225px 347.763px;" id="elx4m7tskdlj" class="animable"></path><path d="M364,384.4c-9.32-18-3.65-36.81-3.65-36.81C371.68,360.18,364,384.4,364,384.4Z" style="fill: rgb(69, 90, 100); transform-origin: 362.593px 365.995px;" id="ell471vztpymt" class="animable"></path><path d="M358.43,338.61c19.13-15.15,42.48-12.89,42.48-12.89C388.67,341.94,358.43,338.61,358.43,338.61Z" style="fill: rgb(69, 90, 100); transform-origin: 379.67px 332.246px;" id="elkiuw706t9hb" class="animable"></path><path d="M411,371.16c-.21.4-16-7.47-35.3-17.58S341,335,341.17,334.55s16,7.47,35.31,17.58S411.23,370.76,411,371.16Z" style="fill: rgb(69, 90, 100); transform-origin: 376.086px 352.853px;" id="ela69eu4l7w86" class="animable"></path><path d="M460.41,389.15s-37.42,5.17-56.79-22.47C403.62,366.68,435.49,361.83,460.41,389.15Z" style="fill: rgb(69, 90, 100); transform-origin: 432.015px 377.94px;" id="elbetget3dzmq" class="animable"></path><path d="M411,410.28s-33.12-18.15-32.2-51.89C378.77,358.39,407.25,373.49,411,410.28Z" style="fill: rgb(69, 90, 100); transform-origin: 394.891px 384.335px;" id="el8kgfb3z4oy4" class="animable"></path><g id="elkhjvaq0cret"><g style="opacity: 0.3; transform-origin: 400.789px 367.94px;" class="animable"><path d="M449.1,339c-25.63,21-55.75,17.76-55.75,17.76C410.12,334.27,449.1,339,449.1,339Z" id="elprvdbdyobha" class="animable" style="transform-origin: 421.225px 347.763px;"></path><path d="M364,384.4c-9.32-18-3.65-36.81-3.65-36.81C371.68,360.18,364,384.4,364,384.4Z" id="el9wf6o0wqtxd" class="animable" style="transform-origin: 362.593px 365.995px;"></path><path d="M358.43,338.61c19.13-15.15,42.48-12.89,42.48-12.89C388.67,341.94,358.43,338.61,358.43,338.61Z" id="el1fj7bnvisel" class="animable" style="transform-origin: 379.67px 332.246px;"></path><path d="M411,371.16c-.21.4-16-7.47-35.3-17.58S341,335,341.17,334.55s16,7.47,35.31,17.58S411.23,370.76,411,371.16Z" id="elrr2t35r0xy" class="animable" style="transform-origin: 376.086px 352.853px;"></path><path d="M460.41,389.15s-37.42,5.17-56.79-22.47C403.62,366.68,435.49,361.83,460.41,389.15Z" id="el5nvy0b37ctb" class="animable" style="transform-origin: 432.015px 377.94px;"></path><path d="M411,410.28s-33.12-18.15-32.2-51.89C378.77,358.39,407.25,373.49,411,410.28Z" id="elucr7yic7o0m" class="animable" style="transform-origin: 394.891px 384.335px;"></path></g></g><path d="M145.6,472.2c-13.45-25.87-5.26-51.26-5.26-51.26C156.66,439.45,145.6,472.2,145.6,472.2Z" style="fill: rgb(69, 90, 100); transform-origin: 143.566px 446.57px;" id="elqtrjxrb0ozj" class="animable"></path><path d="M121.77,390.66c17.24-4.79,32.38,3.49,32.38,3.49C141.26,401.64,121.77,390.66,121.77,390.66Z" style="fill: rgb(69, 90, 100); transform-origin: 137.96px 392.967px;" id="eldsuwvq3rsr" class="animable"></path><path d="M162.24,394.11c9.61,19.22,3.46,38.94,3.46,38.94C153.92,419.57,162.24,394.11,162.24,394.11Z" style="fill: rgb(69, 90, 100); transform-origin: 163.513px 413.58px;" id="elua5sbt6hak" class="animable"></path><path d="M124.7,433.57c-.31-.25,9.33-12.46,21.52-27.26s22.33-26.6,22.64-26.35-9.33,12.46-21.52,27.27S125,433.83,124.7,433.57Z" style="fill: rgb(69, 90, 100); transform-origin: 146.78px 406.765px;" id="elcfmphztshes" class="animable"></path><path d="M100.29,472.9s2.29-33.19,29.61-44.9C129.9,428,128.33,456.34,100.29,472.9Z" style="fill: rgb(69, 90, 100); transform-origin: 115.095px 450.45px;" id="el63hdyb0yyqf" class="animable"></path><path d="M91,426.48s21.62-25.28,50.53-18.4C141.52,408.08,123.37,429.9,91,426.48Z" style="fill: rgb(69, 90, 100); transform-origin: 116.265px 416.869px;" id="elhb87son2qtm" class="animable"></path><g id="elqkneqx51d9n"><g style="opacity: 0.3; transform-origin: 129.934px 426.428px;" class="animable"><path d="M145.6,472.2c-13.45-25.87-5.26-51.26-5.26-51.26C156.66,439.45,145.6,472.2,145.6,472.2Z" id="elnz0edfyj7kf" class="animable" style="transform-origin: 143.566px 446.57px;"></path><path d="M121.77,390.66c17.24-4.79,32.38,3.49,32.38,3.49C141.26,401.64,121.77,390.66,121.77,390.66Z" id="elhbabrf5fyk5" class="animable" style="transform-origin: 137.96px 392.967px;"></path><path d="M162.24,394.11c9.61,19.22,3.46,38.94,3.46,38.94C153.92,419.57,162.24,394.11,162.24,394.11Z" id="elw6kfcpan3x" class="animable" style="transform-origin: 163.513px 413.58px;"></path><path d="M124.7,433.57c-.31-.25,9.33-12.46,21.52-27.26s22.33-26.6,22.64-26.35-9.33,12.46-21.52,27.27S125,433.83,124.7,433.57Z" id="eld386k3tc06l" class="animable" style="transform-origin: 146.78px 406.765px;"></path><path d="M100.29,472.9s2.29-33.19,29.61-44.9C129.9,428,128.33,456.34,100.29,472.9Z" id="eled5iig2zig" class="animable" style="transform-origin: 115.095px 450.45px;"></path><path d="M91,426.48s21.62-25.28,50.53-18.4C141.52,408.08,123.37,429.9,91,426.48Z" id="el4at1447516l" class="animable" style="transform-origin: 116.265px 416.869px;"></path></g></g><path d="M347.39,45c10.22,31.5-3.7,58.39-3.7,58.39C328.87,79.58,347.39,45,347.39,45Z" style="fill: rgb(69, 90, 100); transform-origin: 344.54px 74.195px;" id="elksci9ivvutf" class="animable"></path><path d="M358.82,140.75c-20.21,2.14-35.62-10-35.62-10C339.05,124.81,358.82,140.75,358.82,140.75Z" style="fill: rgb(69, 90, 100); transform-origin: 341.01px 135.213px;" id="el7om7hh9z63" class="animable"></path><path d="M314.14,129.32C307,106,317.55,85.05,317.55,85.05,328.22,102.35,314.14,129.32,314.14,129.32Z" style="fill: rgb(69, 90, 100); transform-origin: 316.603px 107.185px;" id="eluqjqkmjoor" class="animable"></path><path d="M363.56,92.14c.3.34-12.77,12.21-29.2,26.51s-30,25.62-30.28,25.27,12.78-12.21,29.2-26.51S363.27,91.8,363.56,92.14Z" style="fill: rgb(69, 90, 100); transform-origin: 333.82px 118.03px;" id="elibm62ctevpp" class="animable"></path><path d="M398.26,52.66S389.49,89.4,356.7,97.41C356.7,97.41,363.76,66,398.26,52.66Z" style="fill: rgb(69, 90, 100); transform-origin: 377.48px 75.035px;" id="elgui0rxlwgg5" class="animable"></path><path d="M400,106.39s-28.95,24.27-60,11.16C340,117.55,364.37,96.5,400,106.39Z" style="fill: rgb(69, 90, 100); transform-origin: 370px 112.591px;" id="ellg720xqhn7s" class="animable"></path><g id="elfkmml6avyff"><g style="opacity: 0.3; transform-origin: 352.038px 94.464px;" class="animable"><path d="M347.39,45c10.22,31.5-3.7,58.39-3.7,58.39C328.87,79.58,347.39,45,347.39,45Z" id="el8tmmn5tqha3" class="animable" style="transform-origin: 344.54px 74.195px;"></path><path d="M358.82,140.75c-20.21,2.14-35.62-10-35.62-10C339.05,124.81,358.82,140.75,358.82,140.75Z" id="elwu3x2etnxq" class="animable" style="transform-origin: 341.01px 135.213px;"></path><path d="M314.14,129.32C307,106,317.55,85.05,317.55,85.05,328.22,102.35,314.14,129.32,314.14,129.32Z" id="els8ov5f74p1" class="animable" style="transform-origin: 316.603px 107.185px;"></path><path d="M363.56,92.14c.3.34-12.77,12.21-29.2,26.51s-30,25.62-30.28,25.27,12.78-12.21,29.2-26.51S363.27,91.8,363.56,92.14Z" id="elspna3gqc6b" class="animable" style="transform-origin: 333.82px 118.03px;"></path><path d="M398.26,52.66S389.49,89.4,356.7,97.41C356.7,97.41,363.76,66,398.26,52.66Z" id="el80qdp3qh9wm" class="animable" style="transform-origin: 377.48px 75.035px;"></path><path d="M400,106.39s-28.95,24.27-60,11.16C340,117.55,364.37,96.5,400,106.39Z" id="elgvbxjfh3tad" class="animable" style="transform-origin: 370px 112.591px;"></path></g></g></g><g id="freepik--Heart--inject-153" class="animable" style="transform-origin: 149.752px 83.1407px;"><path d="M158.21,77.65a3.59,3.59,0,0,0-4-.85,5.73,5.73,0,0,0-2.95,3.13c-.59,1.34-1.15,1.75-1.34,3.21-.64-2.09-1-3.21-2.62-4.68s-4.44-1.86-5.88-.22-.81,4.13.33,5.92a12.52,12.52,0,0,0,8.86,5.6c3.11-1.41,6.6-4.08,7.87-7.58C159,80.69,159.22,78.88,158.21,77.65Z" style="fill: rgb(133, 221, 116); transform-origin: 149.752px 83.1407px;" id="elh3xb1zn0gy9" class="animable"></path></g><g id="freepik--bee-2--inject-153" class="animable animator-hidden" style="transform-origin: 299.563px 447.1px;"><path d="M259.63,428.85c0-2.21-1.14-4.53-3.08-5.41a5.32,5.32,0,0,0-4.41.2,12.24,12.24,0,0,0-3.6,2.87c-4.6,5-6.58,14.19-7.33,21.11h0c6.45-1,13.41-6.52,16.6-12.5A13.14,13.14,0,0,0,259.63,428.85Z" style="fill: rgb(250, 250, 250); transform-origin: 250.42px 435.338px;" id="el6n3pxhlalne" class="animable"></path><path d="M259.63,428.85a1.74,1.74,0,0,1,0,.56,8.63,8.63,0,0,1-.16,1.59,17.07,17.07,0,0,1-2.29,5.46,26.11,26.11,0,0,1-6,6.63,22.7,22.7,0,0,1-10,4.78l-.33.06,0-.34c.18-1.67.42-3.4.74-5.16a41.43,41.43,0,0,1,4-12.31,18.39,18.39,0,0,1,3.42-4.55A9.06,9.06,0,0,1,253.4,423a4.82,4.82,0,0,1,4,.76,5.62,5.62,0,0,1,1.82,2.5,7.12,7.12,0,0,1,.43,1.9,4.77,4.77,0,0,1,0,.51c0,.11,0,.17,0,.17a10.27,10.27,0,0,0-.61-2.5,5.53,5.53,0,0,0-1.8-2.35,4.56,4.56,0,0,0-3.74-.63,8.78,8.78,0,0,0-4,2.51,18.45,18.45,0,0,0-3.3,4.47,41.82,41.82,0,0,0-3.93,12.17c-.32,1.75-.57,3.47-.75,5.12l-.3-.28a22.43,22.43,0,0,0,9.81-4.63,26.37,26.37,0,0,0,6-6.45,17.88,17.88,0,0,0,2.4-5.32A17,17,0,0,0,259.63,428.85Z" style="fill: rgb(38, 50, 56); transform-origin: 250.253px 435.391px;" id="elsr6oa430f6f" class="animable"></path><path d="M242,447.63a29,29,0,0,0-8.58-18,11.42,11.42,0,0,0-4.84-3,5.18,5.18,0,0,0-5.24,1.39,5.79,5.79,0,0,0-1.14,4.53,12,12,0,0,0,1.75,4.47,23.75,23.75,0,0,0,16.8,11.28" style="fill: rgb(250, 250, 250); transform-origin: 232.059px 437.356px;" id="el7l74pj1bdt6" class="animable"></path><path d="M240.73,448.27a2.56,2.56,0,0,1-.64-.06,14.45,14.45,0,0,1-1.79-.32,22.11,22.11,0,0,1-6.21-2.52,24.22,24.22,0,0,1-7.33-6.7,15.83,15.83,0,0,1-2.67-5.28,7.24,7.24,0,0,1-.09-3.18,5,5,0,0,1,1.61-2.87,5.88,5.88,0,0,1,6.21-.57,15.49,15.49,0,0,1,4.67,3.63,28.62,28.62,0,0,1,5.39,8.35,28.2,28.2,0,0,1,1.86,6.44c.12.78.2,1.39.22,1.81a2.74,2.74,0,0,1,0,.63s-.13-.86-.44-2.4a30.46,30.46,0,0,0-2-6.33,29,29,0,0,0-5.4-8.17,15.12,15.12,0,0,0-4.53-3.49,6.1,6.1,0,0,0-2.89-.56,4.7,4.7,0,0,0-2.78,1.05,4.57,4.57,0,0,0-1.44,2.59,6.82,6.82,0,0,0,.09,2.95,15.59,15.59,0,0,0,2.56,5.12,24.52,24.52,0,0,0,7.13,6.67,23.88,23.88,0,0,0,6.07,2.64C239.86,448.11,240.73,448.21,240.73,448.27Z" style="fill: rgb(38, 50, 56); transform-origin: 231.922px 437.205px;" id="elh9eam6o1snw" class="animable"></path><path d="M269.78,456.28l-5.07-1.65a.53.53,0,0,1-.3-.23c-.93-1.55-8.47-13.3-21.53-12.17-14.47,1.25-22.43,11.94-19.65,22.94s18.3,13.27,24.88,11.76a23.67,23.67,0,0,0,17.68-16.58.5.5,0,0,1,.21-.28l3.93-2.79A.57.57,0,0,0,269.78,456.28Z" style="fill: rgb(133, 221, 116); transform-origin: 246.423px 459.751px;" id="el2ub37ukra3" class="animable"></path><g id="eleeugthxkqxh"><g style="opacity: 0.3; transform-origin: 241.44px 459.88px;" class="animable"><path d="M236,443.67a35,35,0,0,1,2.42,33.17,30.05,30.05,0,0,0,5.41.51,40.11,40.11,0,0,0,2.93-18.44,35.39,35.39,0,0,0-5.44-16.5A27.78,27.78,0,0,0,236,443.67Z" style="fill: rgb(255, 255, 255); transform-origin: 241.44px 459.88px;" id="elufshhcxlim" class="animable"></path></g></g><g id="elr9kpanql67f"><g style="opacity: 0.3; transform-origin: 251.555px 459.505px;" class="animable"><path d="M254.47,474.53a49.86,49.86,0,0,0,1.37-21.29,23.76,23.76,0,0,0-3.24-9.4,19.93,19.93,0,0,0-5.9-1.57c2.49,2.91,3.67,6.88,4.27,10.77a49.6,49.6,0,0,1-2.14,23.7A24.71,24.71,0,0,0,254.47,474.53Z" style="fill: rgb(255, 255, 255); transform-origin: 251.555px 459.505px;" id="elln4mkoqf3j" class="animable"></path></g></g><g id="elk7qcbbtb0kf"><g style="opacity: 0.3; transform-origin: 261.518px 459.535px;" class="animable"><path d="M264.28,464.15a40.17,40.17,0,0,0-.12-10.16,30.25,30.25,0,0,0-5.67-6.42,39.42,39.42,0,0,1,.26,23.93A24,24,0,0,0,264.28,464.15Z" style="fill: rgb(255, 255, 255); transform-origin: 261.518px 459.535px;" id="el2nbs59eadne" class="animable"></path></g></g><path d="M229.83,462.38a2.44,2.44,0,0,0,4.61,1.28,3.11,3.11,0,0,0,.32-1.92.63.63,0,0,0-.77-.44.65.65,0,0,0-.44.77c0-.14,0,.07,0,.09v.2s0,.2,0,.07l0,.16-.06.22s-.07.18,0,.07a2.69,2.69,0,0,1-.16.29l-.06.1c0-.06,0,0,0,0l-.11.12-.13.12c.1-.08,0,0-.05,0l-.2.11c.09,0,0,0-.06,0l-.16.05-.11,0h-.33c.13,0,0,0-.06,0l-.19-.06h0l-.1,0-.13-.09c-.14-.08.08.08,0,0l-.14-.12,0-.06a1.13,1.13,0,0,1-.1-.13l-.07-.15a.41.41,0,0,1,0-.09v0a3.37,3.37,0,0,1-.09-.34c0,.14,0,0,0,0a1.7,1.7,0,0,1,0-.22.64.64,0,0,0-.63-.62.63.63,0,0,0-.62.62Z" style="fill: rgb(38, 50, 56); transform-origin: 232.31px 463.138px;" id="el2mu14txq0il" class="animable"></path><path d="M239.31,460.75a2.14,2.14,0,0,1-2.73,1.48,2.33,2.33,0,0,1-1.42-2.89,2.14,2.14,0,0,1,2.73-1.48A2.35,2.35,0,0,1,239.31,460.75Z" style="fill: rgb(38, 50, 56); transform-origin: 237.233px 460.045px;" id="elvjugo98kmib" class="animable"></path><path d="M228.87,460.92a2.15,2.15,0,0,1-2.74,1.47,2.34,2.34,0,0,1-1.42-2.89,2.15,2.15,0,0,1,2.74-1.47A2.35,2.35,0,0,1,228.87,460.92Z" style="fill: rgb(38, 50, 56); transform-origin: 226.789px 460.21px;" id="eldyl9kc3e9hf" class="animable"></path><path d="M377.26,416.85a17.49,17.49,0,0,1-.47,2,26.77,26.77,0,0,1-2.22,5.53,27.43,27.43,0,0,1-5.81,7.44,24.66,24.66,0,0,1-11,5.76,25.09,25.09,0,0,1-15-1.11,14.06,14.06,0,0,1-3.63-2.13,8.2,8.2,0,0,1-2.55-3.53,6,6,0,0,1,1.62-6.35,3.49,3.49,0,0,1,4.51-.23,4.64,4.64,0,0,1,1.47,1.95,10.29,10.29,0,0,1,.57,4.8,18.79,18.79,0,0,1-1.27,4.74,30.51,30.51,0,0,1-17.7,17.67,28.48,28.48,0,0,1-20.35-.71,26.91,26.91,0,0,1-4.41-2.34,22.71,22.71,0,0,1-3.83-3.05,16.64,16.64,0,0,1-4.74-8.14,10.46,10.46,0,0,1-.05-4.59,11.09,11.09,0,0,1,1.87-4.08,8.83,8.83,0,0,1,3.33-2.8,6.34,6.34,0,0,1,4.19-.48,7.17,7.17,0,0,1,3.5,2.09,9.77,9.77,0,0,1,2.05,3.34,11.9,11.9,0,0,1,.14,7.27,18.61,18.61,0,0,1-2.91,6,23.05,23.05,0,0,1-4,4.33,22.71,22.71,0,0,1-8.34,4.38,20.13,20.13,0,0,1-5.91.81,15.26,15.26,0,0,1-2.08-.14h.53a13.86,13.86,0,0,0,1.55,0,20.3,20.3,0,0,0,5.85-.89,22.89,22.89,0,0,0,12.16-8.71,18.17,18.17,0,0,0,2.82-5.87,11.44,11.44,0,0,0-.16-7,9.18,9.18,0,0,0-2-3.19,6.65,6.65,0,0,0-3.29-2,5.88,5.88,0,0,0-3.9.47,8.35,8.35,0,0,0-3.16,2.67,10,10,0,0,0-1.71,8.29,16.15,16.15,0,0,0,4.62,7.88,22,22,0,0,0,3.76,3,25.91,25.91,0,0,0,4.33,2.29,28,28,0,0,0,20,.69A30.07,30.07,0,0,0,343,435.57a18.34,18.34,0,0,0,1.24-4.61,9.84,9.84,0,0,0-.52-4.56,4.26,4.26,0,0,0-1.31-1.75,3.15,3.15,0,0,0-2-.62,4,4,0,0,0-3.17,2.54,5.33,5.33,0,0,0-.24,4.12,7.82,7.82,0,0,0,2.41,3.34,13.8,13.8,0,0,0,3.5,2.07,24.79,24.79,0,0,0,14.75,1.15,24.46,24.46,0,0,0,10.92-5.62,27.48,27.48,0,0,0,5.83-7.31,28.19,28.19,0,0,0,2.3-5.47c.21-.65.33-1.16.42-1.49S377.26,416.85,377.26,416.85Z" style="fill: rgb(38, 50, 56); transform-origin: 330.75px 436.136px;" id="elihhryz3rtl" class="animable"></path></g><g id="freepik--bee-1--inject-153" class="animable animator-hidden" style="transform-origin: 214.565px 60.7368px;"><path d="M216.72,44.32a5.63,5.63,0,0,1,.62-5.93,5.55,5.55,0,0,1,4.08-1.67,12,12,0,0,1,4.41,1C232,40,237.51,47.1,241,52.72h0c-6.26,1.8-14.79,0-20.08-3.79A12,12,0,0,1,216.72,44.32Z" style="fill: rgb(250, 250, 250); transform-origin: 228.575px 45.0707px;" id="els2t4k4sremb" class="animable"></path><path d="M216.72,44.32A18.6,18.6,0,0,0,217.89,46a16.6,16.6,0,0,0,4.41,3.6,26.16,26.16,0,0,0,8,3,23.15,23.15,0,0,0,10.58-.17l-.14.38c-.82-1.32-1.72-2.67-2.7-4a38.37,38.37,0,0,0-8.59-8.92,17.57,17.57,0,0,0-4.81-2.43,8.88,8.88,0,0,0-4.58-.43,4.78,4.78,0,0,0-3.09,2,5.2,5.2,0,0,0-.72,2.76,9,9,0,0,0,.45,2.46l-.08-.15a4.55,4.55,0,0,1-.2-.45,6.37,6.37,0,0,1-.37-1.85,5.21,5.21,0,0,1,.68-2.92A5,5,0,0,1,220,36.7a9.1,9.1,0,0,1,4.8.38,18,18,0,0,1,4.94,2.44,38.58,38.58,0,0,1,8.75,9c1,1.36,1.88,2.72,2.7,4l.19.3-.33.09a23.36,23.36,0,0,1-10.83.11,25.94,25.94,0,0,1-8.1-3.15,16.09,16.09,0,0,1-4.38-3.78,7.52,7.52,0,0,1-.82-1.33A2.46,2.46,0,0,1,216.72,44.32Z" style="fill: rgb(38, 50, 56); transform-origin: 228.71px 45.0705px;" id="ell3vr3t4gdu" class="animable"></path><path d="M240.29,53.06a26.68,26.68,0,0,1,.53-19A11.47,11.47,0,0,1,244,29.42a5.39,5.39,0,0,1,5.31-1,5.31,5.31,0,0,1,2.86,3.41,10.78,10.78,0,0,1,.21,4.56,23.51,23.51,0,0,1-10.68,16.68" style="fill: rgb(250, 250, 250); transform-origin: 245.663px 40.5917px;" id="ela5302mdis68" class="animable"></path><path d="M241.68,53.07s.7-.48,1.87-1.44a24.42,24.42,0,0,0,4.39-4.69,24,24,0,0,0,3.83-8.63,14.79,14.79,0,0,0,.34-5.53A6.19,6.19,0,0,0,251,30.14a4.34,4.34,0,0,0-2.33-1.65,5.56,5.56,0,0,0-5.25,1.77,13.71,13.71,0,0,0-2.75,4.8A26.49,26.49,0,0,0,239,44.38a27.84,27.84,0,0,0,.72,6.38c.35,1.48.64,2.28.59,2.3a2.67,2.67,0,0,1-.24-.57c-.15-.38-.33-.94-.55-1.68a25.66,25.66,0,0,1-.88-6.43,25.92,25.92,0,0,1,1.62-9.49,14,14,0,0,1,2.83-5A6,6,0,0,1,248.83,28a4.75,4.75,0,0,1,2.61,1.85,6.57,6.57,0,0,1,1.17,2.85,15.24,15.24,0,0,1-.37,5.72,23.51,23.51,0,0,1-4,8.75,22.28,22.28,0,0,1-4.55,4.62,16.45,16.45,0,0,1-1.46,1A2.26,2.26,0,0,1,241.68,53.07Z" style="fill: rgb(38, 50, 56); transform-origin: 245.682px 40.4693px;" id="el17fc8tb1ygd" class="animable"></path><path d="M222.5,68.54a.48.48,0,0,0,.17-.32C222.9,66.5,225,53.28,237.3,48.8c13.62-5,25.13.87,27,11.47s-11.25,19-17.81,20.47a23.44,23.44,0,0,1-22.71-6.84.49.49,0,0,0-.3-.16L218.84,73a.53.53,0,0,1-.27-.92Z" style="fill: rgb(133, 221, 116); transform-origin: 241.436px 64.1961px;" id="elqwkcs26k7fr" class="animable"></path><path d="M164.65,91a19.61,19.61,0,0,0,4.1,1.73,16.61,16.61,0,0,0,5.17.6,16.87,16.87,0,0,0,6.65-1.62,16.2,16.2,0,0,0,3.34-2.18,18,18,0,0,0,2.87-3.23,24.43,24.43,0,0,0,3.61-8.83,42,42,0,0,0,.74-5.15,32.53,32.53,0,0,0,.05-5.41,11.26,11.26,0,0,0-1.66-5.23,6.64,6.64,0,0,0-4.46-3.12,7.45,7.45,0,0,0-5.35,1.26,7.68,7.68,0,0,0-3.13,4.36,11,11,0,0,0,2.32,9.8,17.6,17.6,0,0,0,7.88,5.2A26.87,26.87,0,0,0,195,80.51a38.3,38.3,0,0,0,12-1.88c1.37-.44,2.42-.82,3.13-1.09l.81-.31a1.37,1.37,0,0,1,.28-.08s-.08,0-.26.13l-.79.36c-.7.3-1.74.72-3.11,1.18a37.05,37.05,0,0,1-12,2.06,26.78,26.78,0,0,1-8.36-1.35,17.94,17.94,0,0,1-8.11-5.29A11.47,11.47,0,0,1,176.09,64a8.26,8.26,0,0,1,9.06-6A7.19,7.19,0,0,1,190,61.35a11.8,11.8,0,0,1,1.73,5.46,32.47,32.47,0,0,1-.07,5.5,41.08,41.08,0,0,1-.76,5.21,24.5,24.5,0,0,1-3.73,9,17.8,17.8,0,0,1-3,3.3,16.93,16.93,0,0,1-15.47,3.09,18.93,18.93,0,0,1-1.81-.66c-.5-.25-.93-.45-1.26-.64l-.74-.46Z" style="fill: rgb(38, 50, 56); transform-origin: 187.935px 75.766px;" id="elc7f7ox8qda" class="animable"></path><g id="elkelfo8ef258"><g style="opacity: 0.3; transform-origin: 246.813px 63.245px;" class="animable"><path d="M245.69,63.23a32.05,32.05,0,0,1-1.6-16.06,28.45,28.45,0,0,0-5.33,1.14,32.38,32.38,0,0,0,1.71,16.42,36.47,36.47,0,0,0,10.08,14.59,31.29,31.29,0,0,0,4.7-2.7A32,32,0,0,1,245.69,63.23Z" style="fill: rgb(255, 255, 255); transform-origin: 246.813px 63.245px;" id="el8c76t2v7i97" class="animable"></path></g></g><g id="elz81t7haiarq"><g style="opacity: 0.3; transform-origin: 237.373px 65.912px;" class="animable"><path d="M234.31,61.45c-1-3.59-1.54-7.49-.46-11a20.48,20.48,0,0,0-4.72,3.8,21.59,21.59,0,0,0,.85,9.42,45,45,0,0,0,9.82,17.68,25.1,25.1,0,0,0,6-.46A44.88,44.88,0,0,1,234.31,61.45Z" style="fill: rgb(255, 255, 255); transform-origin: 237.373px 65.912px;" id="el53wdl8uajjn" class="animable"></path></g></g><g id="el6ksmpvdm75"><g style="opacity: 0.3; transform-origin: 228.74px 70.215px;" class="animable"><path d="M222.74,67.76a36,36,0,0,0,4,8.77,22.77,22.77,0,0,0,8,4,35.63,35.63,0,0,1-9.4-20.63A28.51,28.51,0,0,0,222.74,67.76Z" style="fill: rgb(255, 255, 255); transform-origin: 228.74px 70.215px;" id="elxuf06u5w8z" class="animable"></path></g></g><path d="M256.14,61.21s.09.22,0,.08a.88.88,0,0,1,.05.15s0,.25,0,.08c0,0,0,.11,0,.16v.15s0,.07,0,.1,0-.08,0,0a.83.83,0,0,1,0,.15s-.09.23,0,.09a1.35,1.35,0,0,1-.16.29s0,0,0,0l-.07.08-.11.1h0l-.08.06-.14.08-.09,0h0l-.17.06-.15,0h-.42s0,0,0,0l-.1,0-.15,0-.09,0h0l-.13-.07-.17-.11c.08.06,0,0,0,0a2.06,2.06,0,0,1-.25-.26c.09.11,0,0,0,0l-.11-.18s-.08-.17,0,0a1.59,1.59,0,0,1-.07-.2.62.62,0,1,0-1.2.33,2.69,2.69,0,0,0,2.39,2,2.48,2.48,0,0,0,2.51-1.74,2.41,2.41,0,0,0-.21-1.82.63.63,0,1,0-1.08.63Z" style="fill: rgb(38, 50, 56); transform-origin: 255.014px 62.3809px;" id="el73rdfqqndqy" class="animable"></path><path d="M248,63.19a2.18,2.18,0,1,0,.13-3.07A2.17,2.17,0,0,0,248,63.19Z" style="fill: rgb(38, 50, 56); transform-origin: 249.608px 61.7204px;" id="elyqudu372cz" class="animable"></path><path d="M257.52,59a2.18,2.18,0,1,0,.13-3.07A2.18,2.18,0,0,0,257.52,59Z" style="fill: rgb(38, 50, 56); transform-origin: 259.13px 57.5304px;" id="ellwzgr7c0gm" class="animable"></path></g><g id="freepik--Sun--inject-153" class="animable animator-hidden" style="transform-origin: 425.1px 222.29px;"><path d="M466,199c2.3,4-3.6,11.1-2.71,15.41.93,4.47,9.09,8.64,8.59,13.08s-9.4,6.76-11.26,10.87,2.35,12.27-.72,15.64-11.48-.13-15.51,2.17-5.47,11.33-9.78,12.23c-4.47.92-9.37-6.86-13.82-7.36s-11,6-15.09,4.13-3.5-11-6.87-14.06-12.34-1.5-14.63-5.53,3.6-11.1,2.71-15.42-9.09-8.64-8.59-13.08,9.4-6.76,11.26-10.87-2.35-12.26.73-15.63,11.47.12,15.5-2.17,5.47-11.34,9.78-12.23c4.47-.92,9.37,6.86,13.82,7.36s11-6,15.09-4.14,3.5,11,6.87,14.06S463.75,195,466,199Z" style="fill: rgb(133, 221, 116); transform-origin: 425.1px 222.29px;" id="eliihyml7avt" class="animable"></path><g id="elghe125piykh"><g style="opacity: 0.2; transform-origin: 425.1px 222.29px;" class="animable"><path d="M466,199c2.3,4-3.6,11.1-2.71,15.41.93,4.47,9.09,8.64,8.59,13.08s-9.4,6.76-11.26,10.87,2.35,12.27-.72,15.64-11.48-.13-15.51,2.17-5.47,11.33-9.78,12.23c-4.47.92-9.37-6.86-13.82-7.36s-11,6-15.09,4.13-3.5-11-6.87-14.06-12.34-1.5-14.63-5.53,3.6-11.1,2.71-15.42-9.09-8.64-8.59-13.08,9.4-6.76,11.26-10.87-2.35-12.26.73-15.63,11.47.12,15.5-2.17,5.47-11.34,9.78-12.23c4.47-.92,9.37,6.86,13.82,7.36s11-6,15.09-4.14,3.5,11,6.87,14.06S463.75,195,466,199Z" style="fill: rgb(255, 255, 255); transform-origin: 425.1px 222.29px;" id="el2lb9z6w2fvs" class="animable"></path></g></g><path d="M455.94,204.84c9.09,16,5.78,37.25-13.45,48.19a35.29,35.29,0,1,1,13.45-48.19Z" style="fill: rgb(133, 221, 116); transform-origin: 425.363px 222.243px;" id="el5w6w87bon3d" class="animable"></path><path d="M455.94,204.84l-.32-.47c-.22-.33-.52-.8-.93-1.41l-.67-1c-.27-.37-.59-.75-.93-1.18L452,199.38a7.07,7.07,0,0,0-.64-.71l-.72-.73a33.54,33.54,0,0,0-8.08-6.2,35.51,35.51,0,0,0-12.76-4.21l-1.89-.23c-.64,0-1.29,0-1.94-.06s-1.32-.07-2,0l-2,.14-1,.08-1,.17-2.08.35c-.7.14-1.38.37-2.08.54l-1.05.29-.53.15-.52.19a34.35,34.35,0,0,0-4.13,1.76c-.67.35-1.37.67-2,1l-2,1.26c-.32.22-.66.41-1,.65l-.93.73c-.62.5-1.27,1-1.87,1.51a36.53,36.53,0,0,0-3.4,3.52l-.81.95-.4.48-.35.52-1.44,2.08c-.44.72-.83,1.48-1.25,2.22-.2.38-.44.74-.61,1.14l-.52,1.19a40.05,40.05,0,0,0-1.78,4.93c-.19.86-.39,1.73-.58,2.6l-.14.65-.09.67-.16,1.34-.17,1.34,0,1.36,0,1.36v.68l0,.69c.07.91.14,1.83.2,2.75s.31,1.82.46,2.74a37.57,37.57,0,0,0,4,10.53,36.84,36.84,0,0,0,7.11,8.73,33.67,33.67,0,0,0,9.21,5.9,37.27,37.27,0,0,0,5,1.8l2.58.58a9.13,9.13,0,0,0,1.29.21l1.29.17a33.85,33.85,0,0,0,10.12-.32l1.22-.2c.4-.09.79-.21,1.18-.31l2.35-.65,2.25-.86c.37-.14.74-.27,1.1-.43l1.06-.53,2.08-1.06,1.94-1.23,1-.61.47-.3.45-.35L448,249l.86-.68.79-.76,1.55-1.48a6.59,6.59,0,0,0,.72-.78l.68-.81c.44-.53.91-1,1.33-1.59l1.14-1.67a15.74,15.74,0,0,0,1.06-1.68l.92-1.71c.15-.29.32-.56.44-.85l.36-.87A33.7,33.7,0,0,0,460.64,223a39.45,39.45,0,0,0-.37-5.53,37.71,37.71,0,0,0-1-4.55c-.2-.67-.38-1.31-.57-1.91s-.44-1.12-.64-1.62-.38-1-.54-1.39l-.55-1.11-.75-1.51c-.17-.34-.25-.52-.25-.52l.28.5.78,1.5c.17.33.37.69.57,1.1l.56,1.39q.31.75.66,1.62c.19.6.38,1.24.58,1.91a39,39,0,0,1,1.07,4.56,39.69,39.69,0,0,1,.4,5.56,33.92,33.92,0,0,1-2.71,13.25l-.36.88c-.13.29-.3.57-.45.85l-.92,1.73a16,16,0,0,1-1.06,1.7c-.38.56-.77,1.12-1.15,1.69s-.89,1.06-1.33,1.61l-.69.81a5.89,5.89,0,0,1-.72.78l-1.56,1.51-.79.76c-.28.24-.58.46-.87.69l-1.77,1.39L446,251l-.48.3-1,.62-2,1.24-2.1,1.07-1.06.54c-.36.16-.74.29-1.11.44l-2.27.87-2.36.65c-.4.11-.8.23-1.2.32l-1.24.21a33.77,33.77,0,0,1-10.21.33l-1.31-.17a9.77,9.77,0,0,1-1.3-.21l-2.6-.58a36.68,36.68,0,0,1-5.08-1.82,33.76,33.76,0,0,1-9.3-5.95,36.94,36.94,0,0,1-7.19-8.82,37.84,37.84,0,0,1-4-10.64c-.15-.93-.31-1.85-.46-2.77s-.13-1.86-.2-2.78l-.05-.69,0-.69,0-1.38,0-1.37.17-1.35L390,217l.08-.68.15-.66c.19-.88.39-1.75.58-2.62a40.92,40.92,0,0,1,1.81-5l.52-1.2c.17-.4.41-.76.61-1.15.43-.75.83-1.51,1.28-2.24l1.45-2.1.36-.52c.12-.17.27-.32.4-.48l.81-1a37.33,37.33,0,0,1,3.44-3.55c.61-.54,1.27-1,1.89-1.52l.94-.74c.32-.24.67-.44,1-.65l2-1.27c.67-.39,1.38-.71,2.06-1.06a34.21,34.21,0,0,1,4.17-1.76l.52-.19.53-.15,1.06-.29c.71-.18,1.4-.41,2.1-.54l2.1-.35,1-.17,1-.07,2-.14c.67-.06,1.34,0,2,0s1.32,0,2,.07l1.9.24a35.52,35.52,0,0,1,12.83,4.29,33.23,33.23,0,0,1,8.08,6.27l.71.74a5.33,5.33,0,0,1,.64.72l1.09,1.38c.33.43.65.81.91,1.19s.47.73.66,1l.9,1.43C455.85,204.67,455.94,204.84,455.94,204.84Z" style="fill: rgb(38, 50, 56); transform-origin: 425.175px 222.352px;" id="elgjsgy1c679j" class="animable"></path><path d="M431.92,217.79a6.46,6.46,0,0,0,12.36-.66,1.25,1.25,0,0,0-2.41-.67,4,4,0,0,1-1.35,2.16,4.78,4.78,0,0,1-1,.65,9.27,9.27,0,0,1-1.06.28A3.94,3.94,0,0,1,436,219a4.16,4.16,0,0,1-1.63-1.83,1.27,1.27,0,0,0-1.53-.87,1.25,1.25,0,0,0-.88,1.53Z" style="fill: rgb(38, 50, 56); transform-origin: 438.121px 218.809px;" id="elt4qb9wbw18s" class="animable"></path><path d="M407.05,217.79a6.46,6.46,0,0,0,12.36-.66c.39-1.56-2-2.23-2.41-.67a4,4,0,0,1-1.35,2.16,4.86,4.86,0,0,1-1,.65,9.12,9.12,0,0,1-1.05.28,3.93,3.93,0,0,1-2.46-.59,4.16,4.16,0,0,1-1.63-1.83,1.28,1.28,0,0,0-1.54-.87,1.25,1.25,0,0,0-.87,1.53Z" style="fill: rgb(38, 50, 56); transform-origin: 413.251px 218.822px;" id="ely88v9mcc1up" class="animable"></path><g id="elqaqqziz68hp"><circle cx="405.37" cy="225.92" r="2.88" style="fill: rgb(255, 255, 255); opacity: 0.3; transform-origin: 405.37px 225.92px;" class="animable"></circle></g><g id="eluhh7bsjbfq"><path d="M448,225.33a2.88,2.88,0,1,1-2.88-2.88A2.87,2.87,0,0,1,448,225.33Z" style="fill: rgb(255, 255, 255); opacity: 0.3; transform-origin: 445.12px 225.33px;" class="animable"></path></g><path d="M420.82,225.34a6.07,6.07,0,0,0,5.51,2,6,6,0,0,0,4.44-3.34,1.29,1.29,0,0,0-.45-1.71,1.27,1.27,0,0,0-1.71.45c-.08.16-.15.32-.24.47l-.16.25c0,.07-.1.13,0,0a4,4,0,0,1-.39.43l-.17.16s-.26.21-.15.13-.16.11-.16.1a1.37,1.37,0,0,1-.2.13,4.16,4.16,0,0,1-.47.24c-.12.06.14,0-.08,0l-.22.07a3.9,3.9,0,0,1-.57.13c.13,0,.08,0,0,0l-.31,0a4.89,4.89,0,0,1-.54,0h0l-.29-.07a4.48,4.48,0,0,1-.52-.16c-.36-.12.1.06-.09,0l-.27-.14a4.34,4.34,0,0,1-.46-.28c-.17-.11.12.1,0,0L423,224a5.62,5.62,0,0,1-.41-.44,1.26,1.26,0,0,0-1.77,0,1.29,1.29,0,0,0,0,1.77Z" style="fill: rgb(38, 50, 56); transform-origin: 425.698px 224.77px;" id="elf7zbettfsl" class="animable"></path></g><g id="freepik--earth-and-moon--inject-153" class="animable" style="transform-origin: 242.56px 254.72px;"><path d="M32.24,134.46A61.2,61.2,0,1,0,100.39,81.1,61.2,61.2,0,0,0,32.24,134.46Z" style="fill: rgb(245, 245, 245); transform-origin: 92.992px 141.851px;" id="elhxo45i8hy2" class="animable"></path><path d="M79.16,161.06A13.32,13.32,0,1,0,94,149.45,13.32,13.32,0,0,0,79.16,161.06Z" style="fill: rgb(224, 224, 224); transform-origin: 92.3822px 162.671px;" id="eli7dj3gl7c4h" class="animable"></path><path d="M77.71,161c-.89,7.28,3.84,13.85,11.13,14.73s13.52-4.85,14.4-12.13A12.43,12.43,0,0,0,92,149.44C84.76,148.55,78.59,153.73,77.71,161Z" style="fill: rgb(235, 235, 235); transform-origin: 90.4851px 162.58px;" id="elw49zdtuk46m" class="animable"></path><path d="M80.68,81.91a61.24,61.24,0,0,0-32.22,36.24s2.46,2.54,2,5.65c-.37,2.56-3.23,3.3-4.24,3.49-.15.89-.31,1.77-.41,2.67a61.21,61.21,0,0,0-.13,13.52c.18.13,5.22,3.91,5.5,7.42A11.56,11.56,0,0,1,49,158c.37,1,.76,2.07,1.18,3.08a61.62,61.62,0,0,0,15.24,21.54c.61-.26,4.23-1.71,7.47-.06,3.55,1.8,2.38,7,2.38,7l-.44.13a61.11,61.11,0,0,0,44.11,7.68A61.2,61.2,0,1,1,80.68,81.91Z" style="fill: rgb(224, 224, 224); transform-origin: 75.5305px 142.45px;" id="elqyujvywxxkg" class="animable"></path><path d="M48,130.42a1.48,1.48,0,1,0,1.64-1.29A1.48,1.48,0,0,0,48,130.42Z" style="fill: rgb(224, 224, 224); transform-origin: 49.469px 130.6px;" id="el4ur4c47h7se" class="animable"></path><path d="M115.39,169.13a20.54,20.54,0,0,1,3.73-7.62c1.07-1.5,2.58-3.09,4.4-2.85l1.56.26a5.89,5.89,0,0,1,6.44,1.55,7.28,7.28,0,0,1,1.42,6.17,14,14,0,0,1-2.91,5.8,26.63,26.63,0,0,1-5.27,5.12,6.9,6.9,0,0,1-3.72,1.6,5.17,5.17,0,0,1-3.93-2A9.49,9.49,0,0,1,115.39,169.13Z" style="fill: rgb(224, 224, 224); transform-origin: 124.124px 168.85px;" id="elcaw8jtz6d3d" class="animable"></path><path d="M113.94,169a20.61,20.61,0,0,1,3.73-7.62,6.84,6.84,0,0,1,4.4-2.85l2.41-.39c2.38.09,4,.44,5.6,2.21a7.28,7.28,0,0,1,1.42,6.16,14.05,14.05,0,0,1-2.91,5.81,26.37,26.37,0,0,1-5.28,5.11,5.92,5.92,0,0,1-3.5,1.36c-1.51,0-2.52-1-3.5-2.12A9,9,0,0,1,113.94,169Z" style="fill: rgb(235, 235, 235); transform-origin: 122.75px 168.465px;" id="elil9e9lo6aw" class="animable"></path><path d="M96.84,190.76a18.5,18.5,0,0,1-6.55-.81c-1.35-.38-2.86-1-3-2.22l-.11-1a3.41,3.41,0,0,1-.1-4.4,6.44,6.44,0,0,1,4.42-2.15,12.55,12.55,0,0,1,5,.66,20.74,20.74,0,0,1,5,2.3,4.5,4.5,0,0,1,2,2,3.13,3.13,0,0,1-.71,2.89A8.46,8.46,0,0,1,96.84,190.76Z" style="fill: rgb(224, 224, 224); transform-origin: 94.9625px 185.469px;" id="ely0yueb4yuf" class="animable"></path><path d="M95.55,191.07a18.41,18.41,0,0,1-6.54-.81A4.88,4.88,0,0,1,86,188l-.77-1.44a4,4,0,0,1,.57-4,6.41,6.41,0,0,1,4.41-2.15,12.55,12.55,0,0,1,5,.66,20.74,20.74,0,0,1,5,2.3,3.75,3.75,0,0,1,1.73,2c.33.95-.25,1.79-.93,2.65A7.73,7.73,0,0,1,95.55,191.07Z" style="fill: rgb(235, 235, 235); transform-origin: 93.4841px 185.739px;" id="el4jux6mmif9l" class="animable"></path><path d="M64.58,103.75a20.64,20.64,0,0,1,7-4.85c1.66-.78,3.75-1.44,5.23-.34l1.24,1A5.9,5.9,0,0,1,82.88,104a7.26,7.26,0,0,1-1.75,6.08,14.13,14.13,0,0,1-5.36,3.66,27,27,0,0,1-7.1,1.91,6.9,6.9,0,0,1-4-.41,5.18,5.18,0,0,1-2.48-3.63A9.49,9.49,0,0,1,64.58,103.75Z" style="fill: rgb(224, 224, 224); transform-origin: 72.5327px 106.879px;" id="eld62uvujw8b8" class="animable"></path><path d="M62.29,104.4a20.74,20.74,0,0,1,7-4.85,6.91,6.91,0,0,1,5.23-.35l2.29.83c2,1.23,3.33,2.35,3.83,4.65a7.3,7.3,0,0,1-1.76,6.08,14.05,14.05,0,0,1-5.36,3.66,26.88,26.88,0,0,1-7.09,1.91,5.87,5.87,0,0,1-3.72-.52c-1.35-.69-1.73-2.08-2-3.56A9,9,0,0,1,62.29,104.4Z" style="fill: rgb(235, 235, 235); transform-origin: 70.5715px 107.638px;" id="eln3y8gfihho" class="animable"></path><path d="M122.59,148.16a3,3,0,0,1,1.15-1.65,4,4,0,0,1,2.77-.33,2.93,2.93,0,0,1,1.94,1.54,4.23,4.23,0,0,1,.69,3.18,3.43,3.43,0,0,1-2,2.48,3.5,3.5,0,0,1-3.87-1.14A4.46,4.46,0,0,1,122.59,148.16Z" style="fill: rgb(224, 224, 224); transform-origin: 125.788px 149.817px;" id="eldo03akdy1m8" class="animable"></path><path d="M122,148.19a2.76,2.76,0,0,1,1.06-1.52,3.74,3.74,0,0,1,2.54-.31,2.71,2.71,0,0,1,1.78,1.42,3.87,3.87,0,0,1,.63,2.93,3.14,3.14,0,0,1-1.87,2.28,3.21,3.21,0,0,1-3.55-1.05A4.05,4.05,0,0,1,122,148.19Z" style="fill: rgb(235, 235, 235); transform-origin: 124.928px 149.712px;" id="eldb6n5qlrb3i" class="animable"></path><path d="M128.22,111.43a2.43,2.43,0,0,1,.92-1.33,3.27,3.27,0,0,1,2.23-.27,2.44,2.44,0,0,1,1.56,1.24,3.43,3.43,0,0,1,.55,2.56,2.64,2.64,0,0,1-4.75,1.08A3.55,3.55,0,0,1,128.22,111.43Z" style="fill: rgb(224, 224, 224); transform-origin: 130.781px 112.78px;" id="ely4qvurcstt8" class="animable"></path><path d="M127.71,111.45a2.24,2.24,0,0,1,.86-1.22,3,3,0,0,1,2-.25,2.2,2.2,0,0,1,1.44,1.14,3.14,3.14,0,0,1,.5,2.36,2.54,2.54,0,0,1-1.5,1.83,2.58,2.58,0,0,1-2.86-.84A3.32,3.32,0,0,1,127.71,111.45Z" style="fill: rgb(235, 235, 235); transform-origin: 130.046px 112.679px;" id="el81ykrd3tnh6" class="animable"></path><path d="M95.66,93a3.22,3.22,0,0,1,1.21-1.74,4.35,4.35,0,0,1,2.92-.35,3.12,3.12,0,0,1,2,1.63,4.44,4.44,0,0,1,.72,3.35,3.63,3.63,0,0,1-2.14,2.62,3.7,3.7,0,0,1-4.07-1.2A4.67,4.67,0,0,1,95.66,93Z" style="fill: rgb(224, 224, 224); transform-origin: 98.9906px 94.7511px;" id="elakiuithghsh" class="animable"></path><path d="M95,93a3,3,0,0,1,1.12-1.6,4,4,0,0,1,2.68-.32,2.88,2.88,0,0,1,1.88,1.49,4.1,4.1,0,0,1,.66,3.09,3.32,3.32,0,0,1-2,2.4A3.4,3.4,0,0,1,95.63,97,4.31,4.31,0,0,1,95,93Z" style="fill: rgb(235, 235, 235); transform-origin: 98.0868px 94.6085px;" id="eljazt386j21r" class="animable"></path><path d="M107.64,95.12a1.59,1.59,0,0,1,.6-.87,2.21,2.21,0,0,1,1.46-.18,1.57,1.57,0,0,1,1,.82,2.21,2.21,0,0,1,.37,1.67A1.82,1.82,0,0,1,110,97.87a1.85,1.85,0,0,1-2-.6A2.3,2.3,0,0,1,107.64,95.12Z" style="fill: rgb(224, 224, 224); transform-origin: 109.311px 95.9878px;" id="el954olngyr5r" class="animable"></path><path d="M107.31,95.13a1.47,1.47,0,0,1,.56-.8,2,2,0,0,1,1.34-.16,1.46,1.46,0,0,1,.94.75,2.06,2.06,0,0,1,.33,1.54,1.64,1.64,0,0,1-1,1.2,1.7,1.7,0,0,1-1.87-.55A2.15,2.15,0,0,1,107.31,95.13Z" style="fill: rgb(235, 235, 235); transform-origin: 108.852px 95.9341px;" id="elpxv25398tl" class="animable"></path><path d="M32.24,134.46s.12-1.34.55-3.87a60.69,60.69,0,0,1,3-10.8,61.33,61.33,0,0,1,8.65-15.44A62.1,62.1,0,0,1,62,88.88a61.17,61.17,0,0,1,27-8.31,62.45,62.45,0,0,1,23.87,3.16A66.19,66.19,0,0,1,120.78,87a61.46,61.46,0,0,1-14,114.7,63.2,63.2,0,0,1-8.44,1.32,59.3,59.3,0,0,1-8.31.14,61.06,61.06,0,0,1-15.62-2.8A59.59,59.59,0,0,1,61,194.24a60.4,60.4,0,0,1-10.78-8.4,61.26,61.26,0,0,1-18-36.3,59.63,59.63,0,0,1-.31-11.2c.18-2.55.39-3.88.39-3.88s0,.33-.07,1-.18,1.62-.22,2.9a61.17,61.17,0,0,0,18.49,47.23A60.92,60.92,0,0,0,74.56,200a61.06,61.06,0,0,0,15.51,2.76,63.34,63.34,0,0,0,8.25-.15,64.55,64.55,0,0,0,8.38-1.33,61,61,0,0,0,13.86-113.8,64.42,64.42,0,0,0-7.81-3.29A61.85,61.85,0,0,0,89.06,81a61,61,0,0,0-26.88,8.2,61.83,61.83,0,0,0-17.51,15.33A61.15,61.15,0,0,0,36,119.87a60.45,60.45,0,0,0-3.08,10.74c-.27,1.25-.37,2.22-.49,2.87S32.24,134.46,32.24,134.46Z" style="fill: rgb(38, 50, 56); transform-origin: 93.1066px 141.846px;" id="elvgoep4hli6p" class="animable"></path><path d="M95.42,97.35a2.41,2.41,0,0,1-.56-.84,5.48,5.48,0,0,1-.43-1.11,4,4,0,0,1-.16-1.59A3.23,3.23,0,0,1,95.05,92a4.7,4.7,0,0,1,1.87-1.23,4.14,4.14,0,0,1,4.72,1.34,4.87,4.87,0,0,1,1,2.46,4.4,4.4,0,0,1-.33,2.47,3.42,3.42,0,0,1-1.66,1.54,4.22,4.22,0,0,1-1.91.39,4.89,4.89,0,0,1-2.61-.92c-.52-.39-.75-.69-.72-.7a8.66,8.66,0,0,1,.83.53,5,5,0,0,0,2.5.72,3.8,3.8,0,0,0,1.72-.41,3,3,0,0,0,1.42-1.36,4,4,0,0,0,.25-2.19,4.38,4.38,0,0,0-.9-2.21,3.72,3.72,0,0,0-4.16-1.21,4.42,4.42,0,0,0-1.71,1.07,2.9,2.9,0,0,0-.74,1.56A5.29,5.29,0,0,0,95,96.42C95.27,97,95.45,97.33,95.42,97.35Z" style="fill: rgb(38, 50, 56); transform-origin: 98.471px 94.7401px;" id="eluc8z3xqnj2e" class="animable"></path><path d="M127,146.48a2,2,0,0,1,.84.49,4.38,4.38,0,0,1,1.45,2.23,4.08,4.08,0,0,1-1,3.81,3.68,3.68,0,0,1-4.67.53,5.84,5.84,0,0,1-1.65-1.95,6.75,6.75,0,0,1-.89-2.2,2.83,2.83,0,0,1,.5-2.13,3.37,3.37,0,0,1,1.48-1.18,4.19,4.19,0,0,1,2.67-.1,2.39,2.39,0,0,1,.89.38,7.47,7.47,0,0,1-.94-.19,4.3,4.3,0,0,0-2.47.25,2.7,2.7,0,0,0-1.65,2.89,6.24,6.24,0,0,0,.85,2,5.4,5.4,0,0,0,1.51,1.78,3.2,3.2,0,0,0,4-.43,3.74,3.74,0,0,0,.95-3.39,4.41,4.41,0,0,0-1.22-2.17C127.27,146.69,127,146.52,127,146.48Z" style="fill: rgb(38, 50, 56); transform-origin: 125.227px 149.975px;" id="elsy9bgc0yc4o" class="animable"></path><path d="M104.73,130.31a8.65,8.65,0,0,0,16.52-.95,1.25,1.25,0,0,0-2.41-.66,6.15,6.15,0,0,1-11.7.94,1.29,1.29,0,0,0-1.53-.87,1.26,1.26,0,0,0-.88,1.54Z" style="fill: rgb(38, 50, 56); transform-origin: 112.986px 131.892px;" id="eljt2vdb2ilvp" class="animable"></path><path d="M69.46,130.31A8.65,8.65,0,0,0,86,129.36a1.25,1.25,0,0,0-2.41-.66,6.15,6.15,0,0,1-11.7.94,1.3,1.3,0,0,0-1.54-.87,1.26,1.26,0,0,0-.87,1.54Z" style="fill: rgb(38, 50, 56); transform-origin: 77.7355px 131.908px;" id="ele2a33zomhmp" class="animable"></path><path d="M88.85,140.77A8,8,0,0,0,102.14,139a1.29,1.29,0,0,0-.45-1.71,1.26,1.26,0,0,0-1.71.45A5.47,5.47,0,0,1,90.62,139a1.26,1.26,0,0,0-1.77,0,1.27,1.27,0,0,0,0,1.76Z" style="fill: rgb(38, 50, 56); transform-origin: 95.3961px 140.34px;" id="el43plazqgzlw" class="animable"></path><g id="elx65rup9nap"><circle cx="242.56" cy="254.72" r="161.21" style="fill: rgb(69, 90, 100); transform-origin: 242.56px 254.72px; transform: rotate(-45deg);" class="animable"></circle></g><g id="elhe6z1a7ibqj"><g style="opacity: 0.2; transform-origin: 247.862px 254.071px;" class="animable"><path d="M224.23,96.26a.56.56,0,0,0-.23,0,9.6,9.6,0,0,0-1.08.11l-1.24.46c-.07,0-.14.06-.12.09s.36.33,1.94-.11C224.38,96.54,224.36,96.34,224.23,96.26Z" id="elgzra06ujw5r" class="animable" style="transform-origin: 222.926px 96.6479px;"></path><path d="M221.73,94.94a3.35,3.35,0,0,0,.73-.2s-.07,0-.11,0c-.24,0-.8.07-.9.09s-.24.09-.21.12S221.5,95,221.73,94.94Z" id="el444icbti26t" class="animable" style="transform-origin: 221.848px 94.8594px;"></path><path d="M226.78,94.38a3.72,3.72,0,0,0,.82,0s.42,0,1.05-.12c0,0,.73-.11.85-.15,0,0,0,0-.14,0a38.36,38.36,0,0,0-5,.39l1.31,0A7,7,0,0,1,226.78,94.38Z" id="eliklwasmk9j" class="animable" style="transform-origin: 226.93px 94.305px;"></path><path d="M223.9,94.9l0,0a4.3,4.3,0,0,1,1.06-.1c.33,0,.79,0,1-.09l.15,0a.69.69,0,0,0-.2,0,18,18,0,0,0-5.54.7,23.91,23.91,0,0,0,3.46-.31S223.87,94.94,223.9,94.9Z" id="elwvbwsobtije" class="animable" style="transform-origin: 223.24px 95.0559px;"></path><path d="M226.48,95.54l.19-.05.31-.16.59-.23c.12,0,.12-.07.13-.08s0,0-.08,0a6.26,6.26,0,0,0-1.73.38v0c.07.07.07.07-.26.3C225.7,95.7,226.48,95.54,226.48,95.54Z" id="el0fekejda7fhh" class="animable" style="transform-origin: 226.667px 95.3578px;"></path><path d="M218.72,97.91a.47.47,0,0,0-.17,0,2.51,2.51,0,0,0-.47,0,8.59,8.59,0,0,0-1.62.4v0a8.08,8.08,0,0,0,1.95-.19C218.62,98.07,218.83,98,218.72,97.91Z" id="elhgfb3rmtuql" class="animable" style="transform-origin: 217.605px 98.1057px;"></path><path d="M218.94,100.84c-.05-.06-.09-.12-.43-.19l-.2,0-1.72-.25a10.64,10.64,0,0,0-3.63.49v0c.15.12.37.09.5.26s.08.37,0,.43a15.06,15.06,0,0,1-2.38.74c-.19,0-.21,0-.3,0,0-.44.59-.41.73-.76a4.69,4.69,0,0,0-2.12.49.27.27,0,0,0-.07.14c0,.33,0,.66,0,1a1.08,1.08,0,0,1,0,.4c-.08.23-.3.39-.34.64a.28.28,0,0,0,0,.13c.26.57,4.58-.28,5.9-.92.29-.14,1.35-1.16.93-1.29a6.38,6.38,0,0,0-1.38-.12c1-.26,2.11-.32,3.15-.59A13.84,13.84,0,0,0,218.94,100.84Z" id="elvd9oeqp9un" class="animable" style="transform-origin: 213.956px 102.47px;"></path><path d="M208.72,97.08c1.8-.15,3.5-.79,5.29-1a15.32,15.32,0,0,0-2,.48l6.27-1.14a1.39,1.39,0,0,0,.54-.2.37.37,0,0,0-.21,0c-1.29.1-10.09,1.48-12.12,2.22.83.18,1.54-.29,2.32-.38Z" id="ell5zpv8di6jg" class="animable" style="transform-origin: 212.655px 96.3428px;"></path><path d="M204.86,108.1h-.08a1.14,1.14,0,0,0-.42.09,22.83,22.83,0,0,1-2.52,1c-1.49.32-1.94.42-2.06.58s0,0,0,0a1.69,1.69,0,0,0,.51.11c.5.06.56.08.62.18s0,.42.19.57a3,3,0,0,0,.76.18,6.29,6.29,0,0,0,3.46-.22c.33-.2.13-1.49.13-1.5A1.88,1.88,0,0,0,204.86,108.1Z" id="elz0ibnrvj7b" class="animable" style="transform-origin: 202.618px 109.528px;"></path><path d="M211,100.21a.91.91,0,0,0-.38-.08,4.8,4.8,0,0,0-2.39.41l0,0c.11,0,.24,0,.34.11s0,.1-.19.29-.42.42-.17.43a9.41,9.41,0,0,0,2.07-.64C211,100.47,211.19,100.3,211,100.21Z" id="el80jf17t61c" class="animable" style="transform-origin: 209.585px 100.741px;"></path><path d="M322.2,133.23c-.55-1.67-1.83-3-2.34-4.66-.32-1.08.08-2.17,0-3.25-.12-1.26.2-1.48,1-1.88,1.15-.56.69-1.11-.69-2.75-4.5-5.34-4.52-5.44-4.74-6.37l.18-.2H316c-1.09-2.21-4.91-2.11-4.63-5.47l-.47-.48a4,4,0,0,1,.28-.43l.25,0c-.7-.36-2.81-1.25-2.83-1.27a19.42,19.42,0,0,0-3.7-1c-1.32-.21-2.09-1.4-3.27-1.86-1.66-.65-5.36-2-6.85-2.4-2.77-.8-2.77-.8-3.16-.7h0a25.41,25.41,0,0,0-4.51-1.1h0s-.05,0-.08,0,0,0,0,0l.09.05a11.12,11.12,0,0,1,2.15,1c-.15,0-.15,0-2.07-.75a16.26,16.26,0,0,0-2-.63,46.53,46.53,0,0,0-13-1.17c.2.22.2.22,1.19.56-1.08.67-3.25.51-4.42.42-.05,0-6-.33-6.33-.1-2.19,1.48,1.32,3.43,1.37,3.44,9.51,2.58,9.59,2.72,10,3.52,0,.06,2.66,6.36.34,8.48-.93.86-.95.9-1,1-.09.6.56.88.59,1.42,0,.82-.55,1.55-.39,2.4,1.32.14,2.75-.79,4,.37,2.1,2,.25,3.58.22,3.59-1.44.85-3.28.14-4.68,1.18a6.31,6.31,0,0,0-2,3.8c0,.63,2.91,15.44,6,17.83,8.1,4.72,8.36,4.58,9.13,4.15,1.28-.71,5.63-8.09,5.67-8.16.64-1.09.46-2.54,1.52-3.44.56-.46.6-.46,3-.36,7.56.33,7.56.33,8.2-.9s1-2,2.46-2.17c3.52-.46,7,.53,10.54,0a31.09,31.09,0,0,0,4.32-.53S322.58,134.38,322.2,133.23Z" id="elesu7zyjd9i6" class="animable" style="transform-origin: 292.12px 124.008px;"></path><path d="M232.25,117.47c.69-.82.68-1.3,0-1.43,0,0-2.18-.17-2.86.58-.38.44,0,2,.24,2.36C230.24,119.78,232.23,117.49,232.25,117.47Z" id="elqs4yw8agpg" class="animable" style="transform-origin: 230.996px 117.586px;"></path><path d="M256.13,94.44c-.5,0-1,0-1.51,0,1.54.16,6.57.52,7.38.57a79.52,79.52,0,0,1-8.92-.47,2.11,2.11,0,0,0-1.18.09,3,3,0,0,1-1.2,1.22c-1.22-.9-5.5-.08-5.68,0,.26.25.65.33.89.62a1.13,1.13,0,0,0-.1.13,7.87,7.87,0,0,0,2.37.12c-3.12.5-3.3.06-3.42-.24-2-.64-2.38.07-2.56.41-1.39.35-2.88-.09-4.23.55a1.09,1.09,0,0,1,.05.17,10.68,10.68,0,0,0,2.74.54c1.63.23,3.36-.37,4.91.58-.23.25-.23.25-.67.4,1,.61,5.21.13,5.2-.86l-.37-.24a14.13,14.13,0,0,1,3.86-.89c3.46.35,5-.45,5.12-.71l-.14-.11c3.22.26,4.69.38,5.82.1a2.32,2.32,0,0,0-.77-.19l7.79.29c-1.81-.36-1.92-.39-2.58-.57,1.8.14,3.58.49,5.39.65-1.6-.56-4.39-1.17-4.41-1.17s-6.87-1.18-8.43-1.13a.62.62,0,0,0,.18.3,2.44,2.44,0,0,1-1.2-.34c-.44-.22-6.43-.82-7.23-.34C253.46,94.18,253.52,94.23,256.13,94.44Z" id="elyksarl7ka2" class="animable" style="transform-origin: 256.145px 96.5695px;"></path><path d="M226.44,96.49c-.19.13-.34.32-.54.43a5,5,0,0,1-1.18.46l.42-.48a1.08,1.08,0,0,0,.18-.24,1.88,1.88,0,0,0-1.42.21,1.17,1.17,0,0,0,.2.06.33.33,0,0,1,0,.06,14,14,0,0,1-2.66.27c.09.1.25,0,.35.12-.16.16-.16.16-.17.2s.12.09,2.49.13c-.8.14-2.94.5-3.23.89,0,0,0,0,0,0s2.72,0,3.09-.1a11.12,11.12,0,0,0,2-.75.3.3,0,0,1-.08.21l0,0c.83-.37.83-.37,2.95-1.15a2,2,0,0,0,.57-.25.37.37,0,0,0-.24-.09s-2.36-.12-2.62-.06Z" id="elus62cs1xkv" class="animable" style="transform-origin: 225.145px 97.4966px;"></path><path d="M243.72,121.67c1,.27,2.24,3.78,2.25,3.82.28.86.58,1.75,1.1,1.83,1.46.22,5.33-4.28,5.37-4.32a1.59,1.59,0,0,0,.28-.53l-9.19-5.77a14,14,0,0,1,3.47-.45c1.22-.1,1.82-.15,1.88-.44.17-.74-2.17-5.3-3.77-6.17-.72-.39-1.6-.44-2.2-1s-.11-1.88-1.14-2.34-3.33-.37-5.07-.33-1.78,0-2-.07c0-.29,0-.59.67-2.89a10.14,10.14,0,0,0-3.26-.93c-3.25-.34-14.85,4-13.57,5.76s7.43,2.57,8.33,2.47c.06-.52.1-.87,2.7-.26,2.21.52,2.7.11,3-.16A18.86,18.86,0,0,1,234,112c.46,1,.4,2.21.79,3.27.5,1.33,2.52,1.92,1.88,3.81,0,0-1.94,4.13-8.46,3.83-2-.09-3.84-.87-5.83-.56a1.65,1.65,0,0,0-1.2,1.63c.22.41,1.22.9,4.7.94,2.65,0,2.65,0,6.22,3.37-.47.24-.47.24-2.39.28.64,1.15,7.33,5.18,9.09,4.88,0-.24,0-.24-.29-.55-.16-.16-.16-.16-2.32-4.28,2.41,1.15,3.09,1.75,4.17,3.21.21.29.36.5.52.5.89,0,3.29-2.52,2.88-3.42-.89-1.95-3.56-2.67-3.56-5.23C240.16,121.55,243.69,121.66,243.72,121.67Z" id="el1vgc0xhu6my" class="animable" style="transform-origin: 235.581px 117.764px;"></path><path d="M216.09,96a2.63,2.63,0,0,0,1.27-.1,1.41,1.41,0,0,0,.34-.1h-.08A6.88,6.88,0,0,0,216.09,96Z" id="elc7bwhe8puh" class="animable" style="transform-origin: 216.895px 95.9181px;"></path><path d="M268.15,123.43l1.63.23a1.14,1.14,0,0,0,.67-.29.47.47,0,0,0,.07-.43c-.06-.27-.31-.44-.4-.7a.5.5,0,0,1,0-.35.08.08,0,0,0,0-.07,1.27,1.27,0,0,0-.71-.33c-.74-.09-3.08.36-2.25,1.38A1.62,1.62,0,0,0,268.15,123.43Z" id="el4ilbd15a9vy" class="animable" style="transform-origin: 268.764px 122.569px;"></path><path d="M241.31,105.24l0,0a7.35,7.35,0,0,0-3.63-2c-1.46-.26-1.35.82-1.12,1.2C237.34,105.66,241.27,105.25,241.31,105.24Z" id="el8aiflphu4x" class="animable" style="transform-origin: 238.867px 104.257px;"></path><path d="M233.1,94.33a10.31,10.31,0,0,0-1.51.12h.22a4.13,4.13,0,0,1,1.4.31c-.14.22-.47.1-.61.33.05.14,1.36.08,1.45.07a6.79,6.79,0,0,0,2.32-1c-.15-.12-.35,0-.52-.08.26-.24.62-.09.9-.26,0,0,0,0-.13,0a22.26,22.26,0,0,0-3.43.21c.24.17.54.06.8.17C234,94.28,233.82,94.31,233.1,94.33Z" id="el8280nki5za3" class="animable" style="transform-origin: 234.17px 94.4992px;"></path><path d="M225.08,98.66c-.36.11-.48.14-.14.57a2.41,2.41,0,0,0,2.41.09c.62-.24,1.93-.9,1.5-1.1a.58.58,0,0,0-.19,0A22.76,22.76,0,0,0,225.08,98.66Z" id="el1an6dzyco7a" class="animable" style="transform-origin: 226.837px 98.906px;"></path><path d="M240.71,96.09l0,0-.11,0h-.1c-.69,0-1.37,0-2,0s-1.57-.15-2.35-.18a6,6,0,0,0-1,0,20.48,20.48,0,0,0,3.58.57,4.46,4.46,0,0,0,1.85-.23Z" id="ell2dzhjp9zo" class="animable" style="transform-origin: 237.93px 96.193px;"></path><path d="M235.18,95.37l0,0c.23,0,2.67-.09,3.38-.16.32,0,.39-.07.44-.18s-.18-.14-.14-.27.08-.11.06-.19,0,0,0,0a.2.2,0,0,0-.07-.09.38.38,0,0,0-.29-.07,1.77,1.77,0,0,0-.39.06,6.7,6.7,0,0,1-1.71.6C235.7,95.08,235.43,95.09,235.18,95.37Z" id="el8fnozv5ff2a" class="animable" style="transform-origin: 237.094px 94.8874px;"></path><path d="M241.24,93.91c1.76-.22,1.78-.23,1.81-.27a.9.9,0,0,0-.16,0s-1.69,0-2.2,0-.48.31-.48.31S240.71,94,241.24,93.91Z" id="el0zayqjwnv2o" class="animable" style="transform-origin: 241.63px 93.8001px;"></path><path d="M244.72,94.35c.72,0,.93.05,1.12.21a.43.43,0,0,1,0,.07,5.15,5.15,0,0,1-1.18,0,14.25,14.25,0,0,0-2.58,0c-.47.1-.67.55-.53.68s0,0,1.26.11c.49,0,.93.3,1.42.29,1.21,0,2.37-.39,3.57-.48.75-.06,1.49.1,2.23,0l.17-.05s0,0-.45-.32c0,0,0,0,0,0a2.6,2.6,0,0,1,.39-.05c1-.1,1-.14,1.1-.22s-.21-.07-.27-.17c.21-.14.56-.08.61-.43.27-.16.6-.13.86-.31l-.19-.07a52.54,52.54,0,0,0-6.06.1,1.9,1.9,0,0,0,.63.12,4.64,4.64,0,0,1-1.62,0,3.78,3.78,0,0,0-2.12.32A8.33,8.33,0,0,0,244.72,94.35Z" id="elwjszty6tkb9" class="animable" style="transform-origin: 246.973px 94.6378px;"></path><path d="M228.82,100c.1,0,11.36,2.73,15.25.89,1.06-.5-.83-1.29-.85-1.3-1-.38-6.47-.41-7.63-.35s-1.44-1-1.17-1.2c.11-.07.28-.06.64,0,1.94.12,1.26-.74,1.08-.82a7.31,7.31,0,0,0-1.4-.15c-.54-.12-1-.49-1.5-.61a7.12,7.12,0,0,0-1.06-.18,3.51,3.51,0,0,0-1.54.82,1.83,1.83,0,0,0,.73.09,3.48,3.48,0,0,1,1.4.14c.21.28-1.05,1.08-1.11,1.11-.7.31-1.51.23-2.19.61C228.13,99.81,228.51,99.94,228.82,100Z" id="elzzk7kz4136e" class="animable" style="transform-origin: 236.457px 98.9036px;"></path><path d="M210.63,96.9h0c-.4.06-3.75.7-3.95.83C206.83,97.77,207,97.82,210.63,96.9Z" id="eld0stb8c1u9" class="animable" style="transform-origin: 208.655px 97.3237px;"></path><path d="M190.86,103.08l0,.07a.5.5,0,0,0,.21,0c1.1-.3,2.14-.79,3.24-1.1,2-.55,4-.87,6-1.47.46-.14.46-.14,1.23-.85,0,0,0-.08,0-.11a5.81,5.81,0,0,0-1.71.26c.53-.22.53-.22.69-.48l0-.05h-.21c-2.26.13-2.26.13-13.44,4.22a6.53,6.53,0,0,0-2.83,1.72l.07.06C186.53,105.09,188.61,103.82,190.86,103.08Z" id="elsuqv1u3wq4" class="animable" style="transform-origin: 192.79px 102.35px;"></path><path d="M205.92,99.12a6.4,6.4,0,0,0,1.84-.19,48.39,48.39,0,0,1,4.8-.67,26.18,26.18,0,0,0,2.94-.09c.78-.11,3.87-1,3.9-1,.6-.16.65-.21.74-.28a1.75,1.75,0,0,0-.83-.07c-.91.17-1.77.53-2.68.7,1.26-.6,2.62-1,3.87-1.59l-.11,0s-3.7.51-3.94.91-.88.94-3.45.66l0-.07a1.57,1.57,0,0,1,.25-.14l.09,0c.44-.24,1.62-.07,1.34-.73-.07,0-7.49.83-7.86,1.69a30.18,30.18,0,0,0,3.66-.59,4.66,4.66,0,0,1-1.66.56c.07,0,.09,0,1-.1a8.68,8.68,0,0,1,1.55-.11,43.1,43.1,0,0,1-5,.74C205.78,98.74,205.68,99,205.92,99.12Z" id="elbzoacf27nx8" class="animable" style="transform-origin: 213.149px 97.5278px;"></path><path d="M182.73,108.64c.42.28.92,0,1.35.17l0,.1c-.39.48-1,.61-1.47,1a26.44,26.44,0,0,0,8.56-1.3,6.22,6.22,0,0,1,1.9-.51l.07.09a2.39,2.39,0,0,0-.39.38,10.28,10.28,0,0,0,1.64,1.2c1.71,0,1.71,0,3.77-1.12l.1-.06c-.14-.09-.14-.09-1.82.17a3.88,3.88,0,0,1,3.21-.64c.36.15.44.15.61.1,0,0,1-.43,1.12-1.11-.64-.74-.66-1.74,0-2.11s5.23-3.21,5.28-3.56a3.28,3.28,0,0,0-.43-.33c0-.06,0-.13,0-.18h-.05c-2,.76-3.64,2.19-5.77,2.58.09-.79.92-.76,1.32-1.21a1.21,1.21,0,0,0-.1-.14,15.46,15.46,0,0,1-2.36.23c.33-.25.76-.33,1.06-.63a.47.47,0,0,1-.05-.1c-1.09-.05-2.11.46-3.19.49.88-.61,2-.63,2.9-1.12-.62-.15-10.19,2.15-10.33,3.16a3.27,3.27,0,0,1,.24.27c-.24.2-.25.2-1.37.44-1.88.39-2,.55-2.09.78a.59.59,0,0,0,.27.14c.93.13,1.84-.2,2.77-.09.65.08,1.17.56,1.83.64a10.72,10.72,0,0,1-3.68.36C183.1,106.54,182.07,108.21,182.73,108.64Z" id="elzev9zmuyutm" class="animable" style="transform-origin: 194.604px 105.421px;"></path><path d="M214.61,131c.26-.3-.1-.41-.39-.46a3.8,3.8,0,0,0-1.69.06,1.31,1.31,0,0,0-.63,1.37C212.21,132.48,214.27,131.41,214.61,131Z" id="eljrldzf872cg" class="animable" style="transform-origin: 213.289px 131.289px;"></path><path d="M214.84,125a.72.72,0,0,0,.35-.13,1,1,0,0,0,.08-.94c-.17-.33-.47-.59-.62-.94a12.61,12.61,0,0,0-.63-1.85,2.56,2.56,0,0,0-.2-.26c-.38-.48-1-.64-1.4-1.12-.24-.3-.1-.74-.35-1a.2.2,0,0,0-.14,0,16.31,16.31,0,0,0-2.88,1.72c-.3.21-.67.5-1,.73l-2.6,2.1c1,.43,1,.43.86,1-.12.67-.12.67,0,.68a3.55,3.55,0,0,0,1.18-.36,7.61,7.61,0,0,1,4.27-.65C212.85,124.1,213.67,125,214.84,125Z" id="elys6hg3nk31" class="animable" style="transform-origin: 210.401px 121.874px;"></path><path d="M210.25,128.31a11.19,11.19,0,0,0-3.27,0c-.54.18-.93,1.08-.76,1.33.34.5,3.66-.17,4.43-.75C210.89,128.71,211,128.45,210.25,128.31Z" id="elq0exc3v4yz9" class="animable" style="transform-origin: 208.505px 129.003px;"></path><path d="M152.68,249.87c-1,0-.93,1.52-.48,1.88s2.32,1.42,2.6.5C155,251.7,153.86,250,152.68,249.87Z" id="el4i4mob2u8on" class="animable" style="transform-origin: 153.354px 251.243px;"></path><path d="M333.45,153.42s.05-.12.06-.18a3.25,3.25,0,0,0-.9-1.62l-.3-.24c-.83-.57-1.89-.69-2.66-1.37-.55-.49-.8-1.29-1.58-1.52-1-.09-1.92,0-2.87-.12s-1.81-.47-2.75-.48c-.6,0-.45.8-.95.89s-.84-.55-1.39-.45l-.28.06c-.43.7-.06,1.81-1.12,2.18a12.39,12.39,0,0,1-1.7-3.17c-.24-1.62-3-3.55-4.09-3.17,0,.79.89.93,1.09,1.57-.59.92-1.73.34-2.46.89a3.81,3.81,0,0,0,1.79.58c1,.17,3.65,2.26,1.49,3.06.41,1.13,1.63.71,2.35,1.23s.66.85.41,1.59c.14.24.28.37,2,.79a11.52,11.52,0,0,1,1.87.52c.79.34,1.42,1,2.2,1.29l.33.13a15,15,0,0,0,3.11.46c2.2.22,6.06-.93,6.14-1.64.05-.46-.22-.87-.2-1.33C333.2,153.32,333.2,153.32,333.45,153.42Z" id="elm5a4ta1bt9p" class="animable" style="transform-origin: 322.53px 150.275px;"></path><path d="M156.69,247.22c.47,1.46,5.87,3.81,6.19,3.21.17-.34-4-11-4.11-11.08-.55-.76-2.22-3.06-6.59-3.67a11,11,0,0,0-4.72,1c.19.39,2,.74,3.75.42,2.47-.45,3.6.69,3.61,1.1-.19.17-.57.36-1.09-.24a.19.19,0,0,0-.1,0c-.26,1,1.24,2,2.23,2.66,1.83,1.21,1.81,1.69,1.78,3.1a4.3,4.3,0,0,0,.22,1.81,2.26,2.26,0,0,1,.22,1C157.89,247.27,157.14,247,156.69,247.22Z" id="elq2pxyhc15he" class="animable" style="transform-origin: 155.173px 243.103px;"></path><path d="M163.12,257.1c.46.52-.37,1.42.42,1.79,1.36.64,1.87-1.33,3.13-1a2.77,2.77,0,0,1,.66.31,56,56,0,0,0,5.75,2.55c.19,0,.32,0,.39-.12.26-.62-.08-1.33.31-1.92,1.23-1.84-8.77-6.35-9.46-6.47a.44.44,0,0,0-.3,0c-.06.15-.06.15,0,.35a3.08,3.08,0,0,1-.14,3.45c-.26.09-1-.33-2.09-.91-2-1.07-2.2-1.07-2.33-1.08a.58.58,0,0,0,0,.14C160.54,255.4,162.09,255.93,163.12,257.1Z" id="el3aqalavvl96" class="animable" style="transform-origin: 166.67px 256.482px;"></path><path d="M226.28,168.06c-1,0,.67,1.71,1,2.05,2.22,2.18,3.62,1.16,3.63,1.15C231.51,170.65,227.3,168.24,226.28,168.06Z" id="elpn111aqp45i" class="animable" style="transform-origin: 228.467px 169.783px;"></path><path d="M135.57,133.61l.09-.07,0,0Z" id="elrx1ks5jp0md" class="animable" style="transform-origin: 135.615px 133.575px;"></path><path d="M160.38,116m-45.64,40.42c-13.14,16-22.15,39-22.15,39V200c.37.21.37.21,2.23,16.12-.48-.16-1.11-.36-1.59-.5.21,2,3.41,11.57,3.44,11.66.8-.6,1.64-1.21.29-6-.62-2.17-1.31-4.62-.31-14.94,2.18,3.17,2,4.69,1.77,6.59a12.92,12.92,0,0,0-.11,4c.53,2.33,1.39,4.56,2,6.87.81,3,3.15,5.32,3.6,8.45.37,2.52-1.17,5.19.56,7.61a6.23,6.23,0,0,0,1,.94,23.56,23.56,0,0,0,1.83,1.64c2.15,1.44,4.44,2.67,6.61,4.08s5.3.95,7.2,3.14c4.36,5,4.36,5,6.2,5.9l.92.45c8.14,4.21,8,16.06,17.46,19,6.62-5.5,6.26,3.76,5.81,8-.15,1.34-.15,1.34-4.31,5.67-.06.08-5.59,8.56-5.22,10.64,0,.34.12.79.2,1.13,1.48,5.64,9.72,22.57,9.79,22.69,2.15,3.75,6.12,5.82,8.55,9.3,1.85,2.65,2.48,6.8,1.76,11.68,0,.22-2.81,23.63,1.45,38.45,5.4,18.79,16.32,20.75,16.42,20.76-8.15-8.62-8.15-8.62-5.73-12.51-.86-2-.86-2-1-10.07.45,0,.45,0,2.31.74.05-.21.05-.21-1.11-4.15,2.28-.93,2.29-.94,2.59-2.21l.48-.17c2.79,2.11,4.75-.11,4.36-1.57l-.46-1.59c7.09,2.28,16-13.68,16.14-13.84,1.77-1.82,4.87-2.17,6.12-2.24,2.86-.16,3.92-3.08,6.25-4.06a2.53,2.53,0,0,1,2.33.08c1,.49,1.06.53,1.54-.39,1-2,1.59-4.25,2.44-6.35.48-1.17.21-2.65,1.41-3.53,1.39-1,1.9-1.41,1.57-2.53a2.13,2.13,0,0,1-.08-.71c6.63-.07,11-5.71,11-5.77a1.13,1.13,0,0,0,.08-.24c.12-.75-.27-1.46-.16-2.22.17-1.12,2.1-2.08,1-3.22-.78-.82-2-.45-2.84-1-2.84-1.74-3.91-5.11-6.53-7.05-3.9-2.89-8.15-5.25-12.19-7.92-2.24-1.85-1.43-4.91-2.42-7.17-2.08-2.72-3.1-6.29-5.36-8.9-3-3.41-7.77-4.29-10.65-7.8-2.28-2.78-3.18-6.45-5.77-9a6.37,6.37,0,0,0-1.42-1.05c-14.25-7.55-25.51-13.52-31-2.06-3.35-4.74-16.59-3.75-12.93-10.79a13.51,13.51,0,0,0,1.44-8.26c-2.86-3-7-2.4-10.48-3.87,2.51-3.44,2.51-3.44,2.29-5.53a21.84,21.84,0,0,0,4.47-6c-.46-.82-4.66-7.61-10.56,5.19-2-.84-4.27,1.54-6.12-.6-4.33-5-4.79-9.6-4.68-11.9.14-2.83,3-4.08,3.8-6.53.51-1.56-1.31-3.05-.14-4.63,1.51-2,7.26-4.87,8.52-5.29,2.26-.74,8.59,3.23,8.64,3.27l.79-.29c-.32-.76-1-1.24-1.46-1.92l.43-.7c1.65-.31,12.92,2.58,13,2.62,3.81,4.14-1.36,9.72,2.22,13.9,7.26-3.73.5-11.68,3.41-17,3-5.48,9.33-4.79,13.89-7.37l-.08,0c-.09-.22-.2-.5-.29-.71l.33-.68.75,0c.12-.24.27-.57.38-.81l-.58-.49,4.83-10.3c-.47,1.61-2.16,6.42-2.17,6.43.62-.15.62-.15,3.54-7a9.23,9.23,0,0,1,.47,2.65c1.54-1.31,2-3.58,4-4.5,0,0,7.54-1.23,8-1,2.52-5.32,2.52-5.32,6.63-7.12.51.21.51.21,11.32-1.84l-.53.53a5.18,5.18,0,0,0,1.5.89l-.27.78c-6.49,1.86-6.49,1.86-6.94,2.91,3.5,1.3,16.54-1.19,16.32-6.75-1.84.48-2.54,2.29-3.91,3.32-1-.73-1.89-1.32-2.59-1.83a2.83,2.83,0,0,0,1.73-.53l0,0a0,0,0,0,1,0,0c-.06,0-.09-.05-.3-.09a4.33,4.33,0,0,1-2.39-1.09,1.24,1.24,0,0,1-.29-1.6c.1-.21.07-.24.05-.27h0a2.78,2.78,0,0,0-.82,2c-1.13-1.11-1.12-1.88-1.07-3.7-1.11-.91-1.15-1-1.46-1.9,2.08.15,3.58.26,4.66-1.5-.64-1.31-.64-1.31-17.15,2.41,12.72-6.42,12.72-6.42,23.31-6,1.66,2.25,13.14.84,15.59-1.35-.06-1.35-.06-1.35,1.25-2.84l-.12-.79c-.75-.46-1.49-.92-2.25-1.37l-.69-.25c-.49-.12-2-.48-5.13.29,0-.22,0-.52-.07-.75,1.18-.84,1.6-.85,4.89-.95h0a1.35,1.35,0,0,0,.57-.16c.25-.3-1.33-3-4.43-3.29-.7-.06-.7-.06-1-.29,0-.62.66-1.07.45-1.74-.29-.9-1.42-1.09-1.7-2-.11-.38.14-.6.77-1,.93-.65.93-.65.42-3.57-1.29-7.37-1.29-7.37-4.1-4.74-.44.41,0,1.16-.57,1.51s-1.4-.45-2.1,0c-1.59,1.09-1.59,1.09-1.93,1.08-2.07-.09-2.84-2.07-4.34-3-.11-.61,1.71-3.73,3-4.18-.85-.65-2-.54-2.85-1.23-.19-.16-.28-.36-.4-1,0-.2-.13-.69-2.21-2.29a2,2,0,0,0-1-.49c-2.36-.18-4.5-1.47-6.91-1.33-.33,2.13-3.41,3.06-2.48,5.73-.67.87-2,.75-2.53,1.88-.55,1.3.53,2.55.12,3.85,0,.05-1.72,5.23-4.94,4.88-.7-.08-2.34-.13-2.41,1.07a3.5,3.5,0,0,1-1.06.43c-1.84,2.71-1.19,7.13-5.42,8.29-.49-2-2.22-3.14-3.33-4.71,1.63-2.07,1.58-3,1.52-4.28l1.08-.39c0-.13.14-.38.15-.52a6.91,6.91,0,0,0-.85-.35c-.92-1.85-3.05-1.22-4.41-2.15s-1.63-2.79-2.91-3.82a7.67,7.67,0,0,0-.78-.53c-1.27-.69-2.57,0-3.85-.12-.29-.47-.29-.47.28-3.72.19-1.13.19-1.13-2.26-2.21.57-3.46,10.6-6.57,14.88-7.9,0-1.18-1.33-1.11-1.8-1.86,7,1.15,7,1.15,12.19-1.54-2.72-.45-3.28-.54-4.94-2.45,2.77,0,5.4,2.64,8.27.42a1.71,1.71,0,0,0-.63-.51s1.75-1.06,2.75.21c4.83,0,4.83,0,6.3-.64a4.05,4.05,0,0,0,1-.57c.73-.62.26-1.72,1-2.35s1.52-.2,2.21-.56c.4-.25.61-.69,1-1,0,0-2.34-5-5.39-.21-2.67.5-6.09,5.14-7.95,1.78.81-1.52,4.41-1.41,3.45-3.53-1.94,0-3.24,1.53-4.91,2.2,0-1,2.56-2.64,2.58-2.65a8.36,8.36,0,0,0-1.59-.67c4.17-3.35,4.17-3.35,4.35-3.87l-.3-.44c2.35-1.81,2.35-1.81,10.9-3.5a3.1,3.1,0,0,0-1.31-.36c-6.14-.67-17.56,7.29-17.65,7.37s0,.32,0,.46c.6.21,1.24.29,1.86.46,0,.12,0,.28,0,.41a6.58,6.58,0,0,0-2.49.57l-.12.3h0l.34.21c-1.94,1.65-4.83,1.44-6.63,3.38-.58-1.29-.58-1.29,1.8-2.53-.91-.6-.91-.6-5,.81-.22.07-1.54.38-5.47-1.21-.12-.47.1-1,0-1.42-3.52-.3-5.14,1.24-8.37,4.3,0-1.07,1.08-1.56,1.29-2.51-1.84-.33-3.76.6-5.56-.36,1-.49,2.4-.34,3.16-1.45l-.23-.36c-.51.09-.59.1-1.78-.47a4.51,4.51,0,0,0-.32-.79c-.95-.13-1.71.45-2.57.67a6.94,6.94,0,0,1,.76-.58,8.05,8.05,0,0,0-1.63.65,9.24,9.24,0,0,1,2.45-1.78L160.38,116s-15.29,9.65-21.45,15.12A196.94,196.94,0,0,0,114.74,156.46Z" id="elawwt6e7rim" class="animable" style="transform-origin: 162.99px 256.115px;"></path><path d="M176.47,262.68c-1,.27-.33,1.72.62,2.24a8.05,8.05,0,0,0,3.28.66c.1-.1,0-.44-1.5-1.58C177.19,262.75,176.89,262.72,176.47,262.68Z" id="elbqkouwo5xbp" class="animable" style="transform-origin: 178.186px 264.13px;"></path><path d="M349.4,196.75c.52-.12,1-.3,1.56-.37s1.26.37,1.87-.06c.34-.24.51-1,.5-2.32a5.86,5.86,0,0,0-.26-1.59,1.32,1.32,0,0,1,.37-1.61,2.1,2.1,0,0,0,.65-1.31,2.33,2.33,0,0,0-.53-1.59,6.69,6.69,0,0,0-.5-.58c-.45-.44-1-.77-1.44-1.2a1.62,1.62,0,0,1-.45-.6c0-.07,0-.08-.09-.09s-4-.38-2.19,1.62a1.06,1.06,0,0,0,.47.34,1.22,1.22,0,0,1-.38.07,6.47,6.47,0,0,0-2.61.66,1.51,1.51,0,0,0-.85,1.15,1.45,1.45,0,0,0,.49,1.1,7.35,7.35,0,0,0,1.31.74l-.1.11a16.69,16.69,0,0,0-2.18,3c-.45.82-.55,1.25-.39,1.71C344.94,196.69,347.34,197.25,349.4,196.75Z" id="eli4oak1km9h" class="animable" style="transform-origin: 349.335px 191.169px;"></path><path d="M368.69,249a.57.57,0,0,0,.42-.07s.92-.51.93-.54c.15-.25-.23-.63-1-1s-2.31-.7-2,.12A3.94,3.94,0,0,0,368.69,249Z" id="eldl5vkaj3ze" class="animable" style="transform-origin: 368.536px 248.007px;"></path><path d="M357.57,194.06c-.16,0-.16.06-.18.23l1,.45A2.86,2.86,0,0,0,357.57,194.06Z" id="el84svyu48925" class="animable" style="transform-origin: 357.89px 194.4px;"></path><path d="M396.78,218.35a20.94,20.94,0,0,1,3.82,7.24c-.87-4.06-1.9-9.51-2.94-13.53-4.86-16-5-16.32-8.55-24.58l-4-8.43v0c-.16-.29-.32-.59-.48-.87a38.21,38.21,0,0,0,1.82,4.19,16.36,16.36,0,0,1-1-1.39c.26,1.57,1.3,2.77,1.95,4.15l-.29.07c-3.07-5-5.26-10.55-8.4-15.54,1.7,2.12,2.72,4.72,4.7,6.65-.2-1.21-4.81-9.26-8.24-13.42-2.47-3-2.7-3.43-2.92-3.85a5.15,5.15,0,0,1,.5.43,9.5,9.5,0,0,0-1.07-1.45l-.29.1a15,15,0,0,1-2.29-2.74c.16.13.38.31.55.43-.07-1-3.27-4.05-3.53-4.24a3.25,3.25,0,0,0,.4,1.47c-1.17-.93-1.35-2.57-2.5-3.5,0,.69.6,1.2.64,1.89-.85.88-.85.88-1,1.55-.21,1,1,7.5,1,7.56,1.05,4.33.53,5.53.47,5.65-1.6,3.13-1.6,3.13-3.85,3.78-.83.25-.9.48-.85,1.47,0,.13.87,13.09,6,12.6,1.66-.16,1.78-2.77,1.83-4,.27.39,5.45,11.1,6.06,14.12.29,1.44.57,2.79,1.79,3.23a9.49,9.49,0,0,0,1.35-5.15c-.61-3.91-.07-4.14,1.11-4.65.31-.78.32-1.11-1.45-3.45-1.23-1.62-1.23-1.62-2.17-5.88-.36-1.63,1.6-2.83.83-4.53-2-4.44-2-4.44-2.06-4.67s0-.33,0-.47l.24-.19c1.05.81,4.09,4.82,4.1,5.75l-.34-.09c.66,8,.66,8,2.63,11.69,1.7,3.25,5.69,4.25,7.43,7.49a6,6,0,0,1-1.06-.89l-.3.07a10.1,10.1,0,0,0,.24,1.06,32.15,32.15,0,0,0-4-2.84c.87,2.91,2.67,5.49,3.07,8.57-1.64-.64-.91-3.1-2.74-3.59l-.28.22s.72,4.42.83,4.75.9,2.66.53,3.39c-1-.44-1-.44-1.2-.46-.25.26-.42.59-.66.86,0,.09.06.2.09.29h0c-4.57-2-4.57-2-4.77-1.54l-.79.17a12.56,12.56,0,0,0-3.08-2.4l2.12,1.19a4.93,4.93,0,0,0-2.88-2.09c-.64-.19-.78-.24-1.83-2.85-.76-1.92-1.52-4.58-.8-6.39.3-.75.28-4.34-.54-4.74-.1,0-2.53-.9-2.53.43a58.94,58.94,0,0,0,2.52,10.45,5.44,5.44,0,0,1,.53,1.58c-.16.09-.19.1-.9,0l-1.64-.29c-1.28-1.79-3.06-3.2-4-5.21a15.69,15.69,0,0,0-1.45-3.14,8.54,8.54,0,0,0-3.43-2.65h0c1.25-.52,4-4.28,1.45-5.29a8.36,8.36,0,0,0-1.37-.37c-1.7-.36-2-.42-1.87-.85.28-.86,2.28-1.94,1.12-2.43,0,0-3.21-1.06-4.07-.1a.65.65,0,0,0-.1.39c-.2,1,.21,2.1,0,3.15-.17.88-1.07,1.42-1,2.37.22.19.78.31,2.2-.14.52-.17,1-.31,1.19-.06.92,1-.84,1.81-.77,2.85a3.79,3.79,0,0,0,2.09,3.42c1.69,1.15,1.91,1.29,2.17,1.65-.05.32-.33.56-.26.91.18,1.06.85,2,1,3.07-.1,1-1.08.07-1.8-.64-.31-.3-.31-.3-1.33-.75,0,1.37,1.16,2.44,1,3.85-.1.76-.89.9-2,1-.29,0-.74.08-.7.42,0,.17.27.8,2.56,1.53.95.31,2.94.95,2.81,1.61a4.92,4.92,0,0,0-1.71-.16.94.94,0,0,0,0,.25,1.32,1.32,0,0,0-.84.14c-.64.27-1,.93-1.56,1.26s-1.58.52-2.32.91c0,0,0,.13,0,.19.22.14.27.17,2.56.67a4.61,4.61,0,0,1-.69,1c-2.35-1-2.63-1.38-3.4-2.5a15.71,15.71,0,0,0,.43,1.8c-.15.21-.37.49-.52.69a11.3,11.3,0,0,1-1.84,0c-.9-1.15-.9-1.15-2.75-1.85l-.59.61,1.08,1.93-.81.23c10.11,7,4.4,17.68,4.3,17.76-5.09-2.21-9.57-5.53-14.57-7.88a8.89,8.89,0,0,0,.51,1.74c-.06.13-4.36,14.25-2.76,15.4-2,4.12-2,4.12-2.21,4.48,3.72,1,4.5,1.2,5.93,2.1a23.73,23.73,0,0,0-.25,2.72l9.49.17c2.45.53,4.08-2.23,3.52-4.68,3.31-5.11,3.39-5.11,7.37-5.26,1.64-4.49,1.64-4.49,2.12-4.67,2.09-.78,2.6,1.82,4.11,2.36,2.24-2,3.95-3.16,5.46-.54.06.11,4.77,11.95,6.42,18.61a3.1,3.1,0,0,0-.37,1.87c.16.4.8.45.72,1s-.43.94-.46,1.46a.64.64,0,0,0,.33.66.52.52,0,0,0,.18.07c-.35,1.56-1.47,1.34-5.65.49a26.46,26.46,0,0,0,2.52,5.71c.9-1.2.52-2.81,1.25-4.07l.7.36c1-.71,1.61-1.74,2.52-2.49v-.13a1.72,1.72,0,0,0,1.05-1,2.85,2.85,0,0,0,.14-.5c.11-.57.09-1.15.2-1.72a.53.53,0,0,1,0-.12c.14.48.31,1,.45,1.47a4.1,4.1,0,0,0-.23-2.27c.08-.28.17-.57.23-.87.19-1-.1-1.18-.41-1.33a2.07,2.07,0,0,0-.62-.08c-.29-.8-.66-1.78-1.11-3,.12-.18.28-.42.4-.63a1.77,1.77,0,0,0,.08.33s.74,1.94.81,2c.33,0,.86-2.35,1-3.6a12.86,12.86,0,0,0,.11-1.79l2,5.1c0,.08,0,.08,0,11l.7,9.54a12.63,12.63,0,0,0,.67-1.56c.69-2,.58-4.05.86-6.08.93-6.58.93-6.58,1.69-6.82,1,.62,2.84,2.8,2.69,4.76a9.69,9.69,0,0,0,1.17-1.23c.26.07.59.16.83.24,2.71-5.34.42-11.58,3.08-16.92a2.31,2.31,0,0,1,1.41.58l-.56.58a6.18,6.18,0,0,0,1.28,2.17,4.48,4.48,0,0,1-.91,2.5,32.23,32.23,0,0,1,.72,3.38c3.25-.61.19-4.78,1.79-6.78,1.29.17,1.36.64,1.38,1.69l-.65.58c.19.82.19.82,0,3.44-.2.15-.47.35-.68.49.27,5.48,3.35,10.76,1.17,16.41l-.81.13c-1.77-2.37.16-7.49-4-7.82a2.67,2.67,0,0,1-1.06,1.17c-.39-.3-.94-.69-1.36-1a3,3,0,0,0,.27,1.53c-1.12.43-2.13-.43-3.23-.29a10.81,10.81,0,0,0-.71,1.69l.65.47c-.63,3-1.8,8.56.68,12.77l.74-.36c.08-.24.17-.55.25-.78.81,1.36.62,3.1,1.67,4.38a7.2,7.2,0,0,0,.89-1.42,4.6,4.6,0,0,0,1,1.3c-3.22,11.05-3.71,12.74-5.93,15.25-1.51-.67-1.65-1.1-1.61-2.8a2.33,2.33,0,0,0-1.52.09c-5-2.2-1.93-9.56-7.31-11.55-1.63,1.45-1.57,3.81-2.91,5.41l-.85,0c-.83-1.22-8.91-16.2-9.26-17.91-.11-.53.52-1.2.94-1.54,1-.8,1-.8,2.77-7.37a23.05,23.05,0,0,0-1.84-2.23c-1.32.43-1.32.43-5.32-2.1a7,7,0,0,0-1.52.93c-4.88-4.18-11.61.4-16.54-3.52-.6-.27-.7-.31-.81-.35-1.71-.24-2.28-.31-3.28-3-.24-.32-.25-.33-.26-.33a6.67,6.67,0,0,0-.92.39c-1.51.92-1.35,3-2.84,4-1.86,1.16-4.26.28-6.06,1.63-.54.39-.7,1.38-.95,2-2.75,6.7-2.75,6.7-4.89,6.94a21.67,21.67,0,0,0-6.09,1.86c-1.6,1.28-13.7,11.69-13.71,11.7-1.53,3.38-.26,7.13-1.39,10.56-1,2.88-5.52,2.8-5.39,6.57.19,5.65,1.25,11.19,1.86,16.79.26,2.35,5.06,11.8,6.48,12.15,7,1.75,14.5,1.5,21.21,4.7a1.45,1.45,0,0,1,.53.59c.89,1.49-.67,3.08.18,4.57s2.59,1.5,3.79,2.41c-.06,3-.06,3-2.08,5.23-5.65,6.18-5.65,6.18-5.9,8.42-.4,3.53-.95,8.37-8.59,16.74-3.53,3.85-8.38,5.88-12.36,9.1-3.71,3-5.61,7.53-9.16,10.65-13.84,12.16-14.17,12.33-16,13.25a10.23,10.23,0,0,0-3.68,2.83c3.88,2.88,10.23,1.19,12.32.64l8.42-2.39,10.94-3.81c2.63-1.33,4.7-3.56,7.43-4.74,3.13-1.35,6.65-1.3,9.76-2.71,7.44-3.37,16.32-12.12,17.32-13.25,4-4.5,14.2-10,17.2-11.52,4.77-2.61,12.88-11,15.41-14.5-.78-.59-.78-.59-2.42-.8-.18-.6-.18-.6,2.74-6.61,1.08-2.22,1.35-4.69,2.12-7,2-6,5.25-11.58,6.82-17.77l5.05-19.45c.17.73.17.73-.39,3.6a3.27,3.27,0,0,0,1.39-1.22c-1.14,15.62-10.27,28.48-14.82,42.91,1.82-.18,1.82-.18,2.46.21,7.27-7.46,7.27-7.46,7.87-8.55l-.43.81c.26-.44.59-1,.84-1.47l.26-.5,1.61-3.13c.72-1.44,1.61-3.25,3.77-8.26-.11.27-.2.53-.3.77,1.76-4.37,4-9.81,5.47-14.08,1.28-4.41,3.1-10.27,4.17-14.74.27-1.36.51-2.61.73-3.78.17-3.79.27-4.38,2.5-17.21a1.13,1.13,0,0,0,0,.18c.82-18.24.82-18.24,1-19.06l0,.09a102.76,102.76,0,0,0-.7-13.79l-1.66-12.28A22.2,22.2,0,0,0,396.78,218.35Zm-30.66-20.21c.08,0,.11,0,.71.38l-.78-.29h0A.3.3,0,0,1,366.12,198.14Zm15,43.67a.53.53,0,0,0-.06.1,10.18,10.18,0,0,0-.49,1.69,1.24,1.24,0,0,1-.81.86.54.54,0,0,0-.4.44V245c-1.56-1.48-2.81-2.78-4.21-14.68a2.86,2.86,0,0,1,1.48-.56l4.6,12A.3.3,0,0,0,381.09,241.81Z" id="el11ymd2u0cwt" class="animable" style="transform-origin: 338.507px 275.077px;"></path><g id="elme411jlto6b"><g style="opacity: 0.4; transform-origin: 321.07px 254.071px;" class="animable"><path d="M401.85,247.81c3,88.55-61.45,161.37-150,167,165.29-77.41,151.07-248-11.66-321.27C321.67,89,398.86,159.26,401.85,247.81Z" id="elw2jbbdeqp5q" class="animable" style="transform-origin: 321.07px 254.071px;"></path></g></g></g></g><path d="M102.36,197.63c.48.18-1.58,6-4,15.48-.29,1.19-.59,2.44-.91,3.74s-.55,2.68-.85,4.09C96,223.75,95.55,226.8,95,230a195.86,195.86,0,0,0-1.91,21A194.33,194.33,0,0,0,93.74,272c.34,3.22.61,6.29,1.07,9.13.22,1.43.37,2.81.61,4.13s.46,2.58.68,3.79c1.8,9.66,3.5,15.54,3,15.7s-2.81-5.55-5.21-15.23c-.29-1.21-.59-2.48-.9-3.8s-.52-2.73-.79-4.17c-.58-2.87-.95-6-1.39-9.26a148.34,148.34,0,0,1,1.3-42.77c.63-3.24,1.19-6.32,1.95-9.16.36-1.42.66-2.8,1-4.11l1.12-3.75C99.21,203,102,197.49,102.36,197.63Z" style="fill: rgb(255, 255, 255); transform-origin: 96.1356px 251.19px;" id="eloxxzb3hlb2b" class="animable"></path><path d="M210.59,251.19a27.08,27.08,0,0,0-19.18-16.43,26.52,26.52,0,0,0-30.84,19.47c-.77,3.12,4.05,4.45,4.82,1.32a22,22,0,0,1,13-14.94,21.55,21.55,0,0,1,27.34,11.91,2.57,2.57,0,0,0,3.07,1.75,2.52,2.52,0,0,0,1.75-3.08Z" style="fill: rgb(38, 50, 56); transform-origin: 185.562px 245.797px;" id="elsh628qfg5r" class="animable"></path><path d="M323.58,251.19a27.08,27.08,0,0,0-19.18-16.43,26.52,26.52,0,0,0-30.84,19.47c-.77,3.12,4.05,4.45,4.82,1.32a22,22,0,0,1,13-14.94,21.55,21.55,0,0,1,27.34,11.91,2.57,2.57,0,0,0,3.07,1.75,2.52,2.52,0,0,0,1.75-3.08Z" style="fill: rgb(38, 50, 56); transform-origin: 298.552px 245.797px;" id="elhgaut8q4iv" class="animable"></path><path d="M154.54,247.29a23.68,23.68,0,0,0,9.25,4.11,2.5,2.5,0,0,0,1.33-4.82,23,23,0,0,1-2.31-.6c-.38-.12-.76-.26-1.13-.4-.18-.07-.37-.17-.55-.22.69.2.16.07,0,0a22.52,22.52,0,0,1-4.05-2.38,2.47,2.47,0,0,0-1.92-.25,2.58,2.58,0,0,0-1.5,1.15,2.53,2.53,0,0,0-.25,1.92,2.9,2.9,0,0,0,1.15,1.5Z" style="fill: rgb(38, 50, 56); transform-origin: 160.138px 247.064px;" id="ela46gipyf1og" class="animable"></path><path d="M161,238.68l5.19,6a2.47,2.47,0,0,0,1.76.73,2.49,2.49,0,0,0,2.5-2.5,2.76,2.76,0,0,0-.73-1.76l-5.18-6.05a2.5,2.5,0,0,0-4.27,1.77,2.8,2.8,0,0,0,.73,1.77Z" style="fill: rgb(38, 50, 56); transform-origin: 165.36px 239.888px;" id="el1fbfg8oyr64" class="animable"></path><path d="M228.93,259.57c1.33,3.89,2.75,7.84,5.5,11a12.82,12.82,0,0,0,9.73,4.62,13.23,13.23,0,0,0,9.47-5c2.63-3.2,4-7.14,5.22-11,1-3.07-3.85-4.39-4.83-1.33-1.5,4.72-3.82,12.07-9.86,12.4-2.57.14-4.9-1.52-6.44-3.45-2-2.45-3-5.55-4-8.48a2.56,2.56,0,0,0-3.07-1.75,2.52,2.52,0,0,0-1.75,3.08Z" style="fill: rgb(38, 50, 56); transform-origin: 243.899px 265.656px;" id="elzjtow799kqr" class="animable"></path><path d="M318.46,245.91a15.88,15.88,0,0,0,3.81-2.09,19.57,19.57,0,0,0,1.85-1.56,20.26,20.26,0,0,0,1.59-1.88,2.48,2.48,0,0,0-.89-3.42,2.56,2.56,0,0,0-1.93-.26l-.6.26a2.53,2.53,0,0,0-.89.89l-.06.08.39-.51a13.86,13.86,0,0,1-2.45,2.45l.5-.39a13.85,13.85,0,0,1-3.07,1.79l.6-.25-.18.07a2.72,2.72,0,0,0-1.49,1.15,2.51,2.51,0,0,0-.25,1.93,2.54,2.54,0,0,0,1.14,1.49,2.43,2.43,0,0,0,1.93.25Z" style="fill: rgb(38, 50, 56); transform-origin: 320.68px 241.312px;" id="el6zmjd4mvdin" class="animable"></path><path d="M323.4,255l6.58-2.74a2.75,2.75,0,0,0,1.49-1.15,2.55,2.55,0,0,0,.25-1.93,2.52,2.52,0,0,0-1.15-1.49,2.41,2.41,0,0,0-1.92-.25l-6.58,2.74a2.78,2.78,0,0,0-1.5,1.15,2.51,2.51,0,0,0,.9,3.42,2.43,2.43,0,0,0,1.93.25Z" style="fill: rgb(38, 50, 56); transform-origin: 326.02px 251.22px;" id="eliqamaj7i2of" class="animable"></path><path d="M56.09,173.36c14.67,25.46,37.15,22.43,42.24,25,3,1.54,6.15,3.08,9.52,3.08a3.23,3.23,0,0,0,2.21-.64,1.37,1.37,0,0,0,.06-2.06,2,2,0,0,0,2.43-3.06,2.26,2.26,0,1,0,1-4.4,1.92,1.92,0,0,0,2.78-1,3,3,0,0,0-1-3.1,7.22,7.22,0,0,0-3.13-1.39,16.42,16.42,0,0,1-3.32-1,7,7,0,0,0,2.12-1.19,2.37,2.37,0,0,0,.82-2.18c-.29-1.28-1.82-1.8-3.12-2a23.16,23.16,0,0,0-9.62.69S80.81,176,78.59,169.41" style="fill: rgb(245, 245, 245); transform-origin: 86.2611px 185.43px;" id="elud0mrt43cy" class="animable"></path><path d="M78.59,169.41a9.09,9.09,0,0,0,.83,1.43A12.9,12.9,0,0,0,83,173.9c3.48,2.17,9.08,4.37,16.15,6.1h-.09a23.17,23.17,0,0,1,8.72-.83,9.48,9.48,0,0,1,2.36.43,2.79,2.79,0,0,1,1.9,1.68,2.52,2.52,0,0,1-.78,2.48,7,7,0,0,1-2.25,1.32v-.45a14.8,14.8,0,0,0,3.11.9,8.2,8.2,0,0,1,3.22,1.33,3.36,3.36,0,0,1,1.32,3.34,2.26,2.26,0,0,1-1.27,1.46,1.92,1.92,0,0,1-2-.13l-.91-.7,1.12.24a2.52,2.52,0,1,1-1.14,4.9l.27-.41a2.34,2.34,0,0,1,.34,2.13,2.23,2.23,0,0,1-1.68,1.47A2.26,2.26,0,0,1,110,199l.26-.45a1.53,1.53,0,0,1,.39,1.87,2.14,2.14,0,0,1-1.47,1.15,5.85,5.85,0,0,1-1.75.15,13.4,13.4,0,0,1-1.7-.18,23.17,23.17,0,0,1-6.23-2.27c-.49-.23-1-.5-1.44-.71a8,8,0,0,0-1.46-.47c-1-.26-2-.41-3.06-.59-2-.33-4.06-.63-6-1a51,51,0,0,1-10.72-3.38L74.48,192l-2.16-1.27-1-.61-1-.69-1.87-1.34a48.38,48.38,0,0,1-9.65-10.3l-2-3.26-.51-.85a2.41,2.41,0,0,1-.16-.3s.08.08.21.27l.55.83c.5.75,1.2,1.83,2.1,3.2a50.31,50.31,0,0,0,9.71,10.12l1.86,1.31,1,.68,1,.6,2.15,1.24L77,192.7A49.84,49.84,0,0,0,87.65,196c1.93.41,3.93.7,6,1,1,.18,2.06.32,3.1.59a9.17,9.17,0,0,1,1.56.51c.5.21,1,.48,1.45.71a22.92,22.92,0,0,0,6.08,2.21,12.87,12.87,0,0,0,1.63.17,5.28,5.28,0,0,0,1.6-.13,1.6,1.6,0,0,0,1.13-.85A1,1,0,0,0,110,199l.26-.45a1.78,1.78,0,0,0,1.08.11,1.68,1.68,0,0,0,1.29-1.12,1.8,1.8,0,0,0-.25-1.65l-.48-.61.75.2a2,2,0,1,0,.91-3.89l.21-.46a1.68,1.68,0,0,0,2.43-1,2.85,2.85,0,0,0-1.14-2.81c-1.77-1.37-4.2-1.22-6.23-2.19l-.49-.23.5-.21a6.79,6.79,0,0,0,2.11-1.2,2.09,2.09,0,0,0,.66-2A2.35,2.35,0,0,0,110,180a9.5,9.5,0,0,0-2.26-.42,23,23,0,0,0-8.56.77h-.1c-7.11-1.79-12.7-4-16.19-6.31a12.28,12.28,0,0,1-3.54-3.17A4.41,4.41,0,0,1,78.59,169.41Z" style="fill: rgb(38, 50, 56); transform-origin: 86.4244px 185.571px;" id="elu0pesykq3f" class="animable"></path><path d="M108.68,189.92l5.78,1.22" style="fill: rgb(69, 90, 100); transform-origin: 111.57px 190.53px;" id="elinjrxe54kd" class="animable"></path><path d="M114.46,191.14a8.58,8.58,0,0,1-2.94-.36,8.77,8.77,0,0,1-2.84-.86,8.42,8.42,0,0,1,2.94.35A8.64,8.64,0,0,1,114.46,191.14Z" style="fill: rgb(38, 50, 56); transform-origin: 111.57px 190.529px;" id="el5504x0duqxl" class="animable"></path><path d="M107.59,193.56l5.12,2" style="fill: rgb(69, 90, 100); transform-origin: 110.15px 194.56px;" id="elqm7cuvc61v" class="animable"></path><path d="M112.71,195.52a7.12,7.12,0,0,1-2.65-.74,7.65,7.65,0,0,1-2.47-1.22,7.15,7.15,0,0,1,2.66.74A7.53,7.53,0,0,1,112.71,195.52Z" style="fill: rgb(38, 50, 56); transform-origin: 110.15px 194.54px;" id="elqgs7vkf4ig" class="animable"></path><path d="M105.36,196.83a13.14,13.14,0,0,0,4.6,1.89" style="fill: rgb(69, 90, 100); transform-origin: 107.66px 197.775px;" id="elt35m3u1adps" class="animable"></path><path d="M110,198.72a6.41,6.41,0,0,1-4.6-1.89,11.58,11.58,0,0,1,2.31.93A10.66,10.66,0,0,1,110,198.72Z" style="fill: rgb(38, 50, 56); transform-origin: 107.7px 197.775px;" id="elnii0bje46z" class="animable"></path></g><g id="freepik--Clouds--inject-153" class="animable animator-hidden" style="transform-origin: 258.684px 256.259px;"><path d="M361.69,333.43c.51-4.28-4.74-7.8-8.69-8.17-1.88-.17-3.83.16-5.62-.55-3.86-1.55-5.4-7.29-9.17-9.12-2.82-1.36-6.06-.15-8.79,1.43s-5.43,3.57-8.49,3.8c-2.65.19-5.53-.94-7.86.55-1.73,1.11-2.63,3.41-4.23,4.76a9.14,9.14,0,0,1-5.53,1.72,13.91,13.91,0,0,0-5.71,1.07,5.3,5.3,0,0,0-2.85,5.26Z" style="fill: rgb(245, 245, 245); transform-origin: 328.223px 324.59px;" id="ellb6ht3ci6yf" class="animable"></path><path d="M294.33,334.69l-.07-.42a5.79,5.79,0,0,1,3.11-5.79,12.65,12.65,0,0,1,5.32-1.09l.59,0a8.7,8.7,0,0,0,5.24-1.6,12.13,12.13,0,0,0,1.79-2.11A9.85,9.85,0,0,1,312.8,321c1.69-1.08,3.6-.9,5.45-.73a16.87,16.87,0,0,0,2.65.1c2.38-.18,4.63-1.54,6.8-2.85l1.47-.88c3.76-2.17,6.79-2.64,9.26-1.45,1.94.95,3.3,2.84,4.62,4.66s2.67,3.7,4.52,4.44a9.59,9.59,0,0,0,3.58.46c.62,0,1.26,0,1.9.06a12,12,0,0,1,7.63,4.09,6.16,6.16,0,0,1,1.5,4.63l-.05.44Zm21.84-13.6a5.08,5.08,0,0,0-2.83.7,9,9,0,0,0-2.22,2.43,12.62,12.62,0,0,1-2,2.29,9.58,9.58,0,0,1-5.82,1.84l-.59,0a11.68,11.68,0,0,0-4.91,1,5,5,0,0,0-2.64,4.31l66-.75a5.35,5.35,0,0,0-1.32-3.45,10.89,10.89,0,0,0-6.94-3.72c-.59-.05-1.21-.06-1.81-.06a10.51,10.51,0,0,1-3.95-.53c-2.12-.85-3.56-2.85-5-4.78s-2.53-3.51-4.25-4.35c-2.15-1-4.87-.58-8.32,1.42-.49.28-1,.57-1.45.86-2.28,1.38-4.62,2.8-7.25,3a17.52,17.52,0,0,1-2.81-.11C317.48,321.15,316.81,321.09,316.17,321.09Z" style="fill: rgb(69, 90, 100); transform-origin: 328.216px 324.621px;" id="elczmy8sdr26i" class="animable"></path><path d="M206,192.08c.38-3.21-3.56-5.85-6.52-6.13-1.42-.13-2.88.12-4.22-.41-2.9-1.17-4.06-5.47-6.89-6.85-2.12-1-4.55-.11-6.61,1.08s-4.07,2.68-6.37,2.85c-2,.14-4.15-.71-5.9.41-1.3.84-2,2.56-3.18,3.57a6.8,6.8,0,0,1-4.15,1.3,10.38,10.38,0,0,0-4.28.8,4,4,0,0,0-2.15,4Z" style="fill: rgb(245, 245, 245); transform-origin: 180.866px 185.479px;" id="elkrxjqq3u2n" class="animable"></path><path d="M155.26,193.16l-.07-.42a4.46,4.46,0,0,1,2.4-4.48,9.43,9.43,0,0,1,4-.83l.44,0a6.27,6.27,0,0,0,3.86-1.18,8.22,8.22,0,0,0,1.32-1.56,7.63,7.63,0,0,1,1.91-2,6.29,6.29,0,0,1,4.17-.57,13.3,13.3,0,0,0,2,.08,12,12,0,0,0,5.05-2.13l1.1-.66c2.86-1.65,5.18-2,7.08-1.09a10.37,10.37,0,0,1,3.52,3.54c1,1.41,2,2.75,3.33,3.29a7.21,7.21,0,0,0,2.65.34,13.57,13.57,0,0,1,1.43.05,9,9,0,0,1,5.82,3.11,4.79,4.79,0,0,1,1.16,3.57l-.06.44Zm16.51-10.22a3.76,3.76,0,0,0-2.06.51,6.85,6.85,0,0,0-1.64,1.8,9.81,9.81,0,0,1-1.48,1.74,7.37,7.37,0,0,1-4.45,1.41l-.44,0a8.71,8.71,0,0,0-3.64.73,3.58,3.58,0,0,0-1.92,3l49.34-.56a4,4,0,0,0-1-2.39,8.06,8.06,0,0,0-5.13-2.75c-.44,0-.9,0-1.35,0a8,8,0,0,1-3-.41c-1.62-.65-2.72-2.17-3.77-3.63a9.48,9.48,0,0,0-3.15-3.23c-1.57-.76-3.58-.42-6.13,1.06-.37.21-.73.43-1.09.65a9.67,9.67,0,0,1-7.63,2.19C172.74,183,172.25,182.94,171.77,182.94Z" style="fill: rgb(69, 90, 100); transform-origin: 180.805px 185.494px;" id="elb8qyxlpidn" class="animable"></path></g><g id="freepik--Flowers--inject-153" class="animable" style="transform-origin: 190.326px 227.736px;"><path d="M229.68,399.74A11.22,11.22,0,0,0,217,382.67a9.76,9.76,0,0,0-4-11.3,9,9,0,0,0-11.55,2.52,9.31,9.31,0,0,0-18-3.27,7.92,7.92,0,0,0-6.94-5.22,10.2,10.2,0,0,0-8.15,3.58,14.47,14.47,0,0,0-3.32,8.43l22.91,26,20.93,2.82Z" style="fill: rgb(133, 221, 116); transform-origin: 198.361px 385.44px;" id="elw0u4s8tol6d" class="animable"></path><g id="el5boqav3657n"><g style="opacity: 0.3; transform-origin: 198.361px 385.44px;" class="animable"><path d="M229.68,399.74A11.22,11.22,0,0,0,217,382.67a9.76,9.76,0,0,0-4-11.3,9,9,0,0,0-11.55,2.52,9.31,9.31,0,0,0-18-3.27,7.92,7.92,0,0,0-6.94-5.22,10.2,10.2,0,0,0-8.15,3.58,14.47,14.47,0,0,0-3.32,8.43l22.91,26,20.93,2.82Z" id="elkmlscpyllpd" class="animable" style="transform-origin: 198.361px 385.44px;"></path></g></g><path d="M184.77,387.45a14.18,14.18,0,0,1,7.18-4.92,13.56,13.56,0,0,1,7.27.08,10.88,10.88,0,0,1,7.41,5.7,13.14,13.14,0,0,1-.92,11.81" style="fill: rgb(255, 255, 255); transform-origin: 196.193px 391.096px;" id="elrdw3zxttv6r" class="animable"></path><path d="M165.14,379a35.57,35.57,0,0,0,66.36,19.28l-.93-2a7.21,7.21,0,0,0-10.42,3,10.95,10.95,0,0,0-18.28-.93c-1.06-5.67-7.86-9.47-13.25-7.4a7.2,7.2,0,0,0-11.25-7.05,7.63,7.63,0,0,0-3.81-7.9,7.1,7.1,0,0,0-8.34,1.22Z" style="fill: rgb(133, 221, 116); transform-origin: 198.304px 395.63px;" id="elycw84sigqhs" class="animable"></path><path d="M343.24,111.16A11.3,11.3,0,0,0,330.46,94a9.81,9.81,0,0,0-4.07-11.37,9,9,0,0,0-11.61,2.54,9.37,9.37,0,0,0-18.15-3.29,7.92,7.92,0,0,0-7-5.25,10.23,10.23,0,0,0-8.2,3.6,14.54,14.54,0,0,0-3.34,8.48l23.06,26.15,21.05,2.83Z" style="fill: rgb(133, 221, 116); transform-origin: 311.661px 96.7362px;" id="elqm7sd010ok" class="animable"></path><g id="elsuoqky2fgdr"><g style="opacity: 0.3; transform-origin: 311.661px 96.7362px;" class="animable"><path d="M343.24,111.16A11.3,11.3,0,0,0,330.46,94a9.81,9.81,0,0,0-4.07-11.37,9,9,0,0,0-11.61,2.54,9.37,9.37,0,0,0-18.15-3.29,7.92,7.92,0,0,0-7-5.25,10.23,10.23,0,0,0-8.2,3.6,14.54,14.54,0,0,0-3.34,8.48l23.06,26.15,21.05,2.83Z" id="elwp3tbtyjot" class="animable" style="transform-origin: 311.661px 96.7362px;"></path></g></g><path d="M298.05,98.79a14.32,14.32,0,0,1,7.22-5,13.64,13.64,0,0,1,7.32.08,11,11,0,0,1,7.46,5.73,13.25,13.25,0,0,1-.93,11.89" style="fill: rgb(255, 255, 255); transform-origin: 309.544px 102.409px;" id="elvdmveyw3gvi" class="animable"></path><path d="M278.3,90.26a35.78,35.78,0,0,0,66.76,19.41l-.93-2a7.24,7.24,0,0,0-10.48,3,11,11,0,0,0-18.4-.94c-1.06-5.7-7.91-9.52-13.32-7.44a7.24,7.24,0,0,0-11.32-7.09,7.7,7.7,0,0,0-3.83-7.95,7.18,7.18,0,0,0-8.4,1.23Z" style="fill: rgb(133, 221, 116); transform-origin: 311.663px 107.012px;" id="elbwnx9o0yibb" class="animable"></path><path d="M153.69,329.34a14.59,14.59,0,0,0-27.54,2.59,12.66,12.66,0,0,0-15.28-3.15c-5,2.69-7.37,9.4-5,14.52a12.1,12.1,0,0,0-15.81,17.82,10.26,10.26,0,0,0-10.48,4.19A13.26,13.26,0,0,0,78,376.78a18.78,18.78,0,0,0,7.13,9.38l44.35-7.9,17.26-21.33Z" style="fill: rgb(133, 221, 116); transform-origin: 115.519px 353.415px;" id="el1f9v906on5q" class="animable"></path><g id="el2eawevp3l6d"><g style="opacity: 0.3; transform-origin: 115.519px 353.415px;" class="animable"><path d="M153.69,329.34a14.59,14.59,0,0,0-27.54,2.59,12.66,12.66,0,0,0-15.28-3.15c-5,2.69-7.37,9.4-5,14.52a12.1,12.1,0,0,0-15.81,17.82,10.26,10.26,0,0,0-10.48,4.19A13.26,13.26,0,0,0,78,376.78a18.78,18.78,0,0,0,7.13,9.38l44.35-7.9,17.26-21.33Z" id="ela44zqsngo47" class="animable" style="transform-origin: 115.519px 353.415px;"></path></g></g><path d="M109.7,370.93a18.4,18.4,0,0,1-.61-11.3,17.51,17.51,0,0,1,5-8c3-2.85,6.81-4.86,11.34-4.39s9.82,3.87,12.49,9" style="fill: rgb(255, 255, 255); transform-origin: 123.199px 359.051px;" id="elzsdnlbpbz3o" class="animable"></path><path d="M87,387a46.24,46.24,0,0,0,66.25-60.68l-2.85-.32c-5,2.09-6.94,9.27-3.69,13.6a14.24,14.24,0,0,0-13.39,19.68c-7-2.65-15.83,2.34-17.16,9.72a9.35,9.35,0,0,0-15.43,7.73,9.93,9.93,0,0,0-11.35-1.11,9.24,9.24,0,0,0-4.28,10.1Z" style="fill: rgb(133, 221, 116); transform-origin: 121.901px 360.405px;" id="eligqmwy2q2jl" class="animable"></path><path d="M62.68,252.23a25.4,25.4,0,0,1-14.83,21.56c-1.67.73-3.84,1.2-5.14-.09s-.78-3.69.08-5.44A29.88,29.88,0,0,1,61,253a34.16,34.16,0,0,1-19.77,2.07c-2.51-.49-5.4-1.73-5.77-4.27s1.91-4.45,4.14-5.51A20.09,20.09,0,0,1,63,250.37a18.91,18.91,0,0,1-5.31-20.92c1.09-2.74,3.72-5.55,6.53-4.65,1.72.54,2.74,2.27,3.41,3.94a24.15,24.15,0,0,1-1.13,20.13A21.15,21.15,0,0,1,85.4,235.41c2.63,0,5.63.65,6.89,3,1.6,2.92-.48,6.5-2.9,8.78a27.71,27.71,0,0,1-22.87,7.12,15.75,15.75,0,0,1,11.22,9.44c1.23,3.11.88,7.52-2.24,8.71s-6-1.54-7.85-4.19a39.21,39.21,0,0,1-6.38-16" style="fill: rgb(133, 221, 116); transform-origin: 64.1364px 249.569px;" id="eli7usohac56" class="animable"></path><path d="M51,266.14c.25.13,2.15-4,5.85-8.14s7.57-6.51,7.42-6.75-4.3,1.88-8.08,6.16S50.8,266.09,51,266.14Z" style="fill: rgb(38, 50, 56); transform-origin: 57.6289px 258.687px;" id="ely6ph5dhx31n" class="animable"></path><path d="M47,252c.09.27,3.56-1.2,8.07-1s8.06,1.33,8.14,1-3.41-1.78-8.11-1.93S46.88,251.87,47,252Z" style="fill: rgb(38, 50, 56); transform-origin: 55.1042px 251.061px;" id="el1hs33t3hbjm" class="animable"></path><path d="M63.29,236.66c-.17-.11-1.9,3.2-2,7.73s1.7,7.9,1.89,7.75-1.17-3.4-1-7.73S63.57,236.75,63.29,236.66Z" style="fill: rgb(38, 50, 56); transform-origin: 62.3088px 244.401px;" id="elzolsjph5fpj" class="animable"></path><path d="M65.81,249.28a3.11,3.11,0,0,0-5.43,1.79,8.47,8.47,0,0,1,2.74.8,12.89,12.89,0,0,1,2.69-2.59" style="fill: rgb(250, 250, 250); transform-origin: 63.095px 250.049px;" id="eld6m1hk2p3if" class="animable"></path><path d="M85,242.87a10.31,10.31,0,0,0-3.59.16,31.51,31.51,0,0,0-8.33,2.48,32.2,32.2,0,0,0-7.35,4.62,10.62,10.62,0,0,0-2.49,2.6c.19.22,4.1-3.69,10.21-6.41S85.06,243.16,85,242.87Z" style="fill: rgb(38, 50, 56); transform-origin: 74.1202px 247.761px;" id="el00lksunrkhlvc" class="animable"></path><path d="M193,333.32a17.32,17.32,0,0,1-17.11,5c-1.2-.34-2.54-1-2.67-2.27s1.18-2.28,2.38-2.83a20.32,20.32,0,0,1,16.18-.16,23.26,23.26,0,0,1-11.3-7.43c-1.12-1.34-2.1-3.24-1.21-4.74s2.93-1.52,4.56-1.12a13.69,13.69,0,0,1,10.12,12.72,12.89,12.89,0,0,1,6.22-13.31c1.75-1,4.35-1.32,5.45.36a4.2,4.2,0,0,1,.09,3.54,16.41,16.41,0,0,1-9.27,10.13,14.39,14.39,0,0,1,15.78,1.07c1.41,1.1,2.69,2.76,2.36,4.52-.41,2.23-3.06,3.22-5.31,3.38A18.86,18.86,0,0,1,194.1,336a10.73,10.73,0,0,1,1.85,9.81c-.69,2.17-2.78,4.35-4.94,3.62s-2.51-3.41-2.33-5.58a26.59,26.59,0,0,1,3.55-11.2" style="fill: rgb(133, 221, 116); transform-origin: 193.922px 333.964px;" id="eljm8hhpzusg" class="animable"></path><path d="M180.81,335.62c.08.17,2.87-1.2,6.59-1.77s6.8-.17,6.82-.36a14.77,14.77,0,0,0-6.91-.24C183.47,333.84,180.72,335.5,180.81,335.62Z" style="fill: rgb(38, 50, 56); transform-origin: 187.514px 334.293px;" id="el8tq8rwmqvog" class="animable"></path><path d="M184.78,326.47c-.06.17,2.4.9,4.71,2.93s3.67,4.17,3.84,4.05a12,12,0,0,0-3.45-4.51C187.45,326.81,184.78,326.32,184.78,326.47Z" style="fill: rgb(38, 50, 56); transform-origin: 189.054px 329.95px;" id="el84wpv2h1s56" class="animable"></path><path d="M200,325.38a9.89,9.89,0,0,0-4.4,3.19c-2.06,2.32-2.51,4.89-2.35,4.89A25.14,25.14,0,0,1,196,329C198,326.74,200.09,325.54,200,325.38Z" style="fill: rgb(38, 50, 56); transform-origin: 196.612px 329.42px;" id="elt0vqag4emvb" class="animable"></path><path d="M195.88,333.11a2.12,2.12,0,0,0-3.64-1.4,5.93,5.93,0,0,1,1.11,1.61,8.42,8.42,0,0,1,2.53-.21" style="fill: rgb(250, 250, 250); transform-origin: 194.06px 332.193px;" id="elg2aceiqjb7" class="animable"></path><path d="M208.77,338a7.26,7.26,0,0,0-2-1.46,21.51,21.51,0,0,0-11.32-3,7.15,7.15,0,0,0-2.43.29c0,.2,3.75-.18,8.14,1S208.67,338.18,208.77,338Z" style="fill: rgb(38, 50, 56); transform-origin: 200.895px 335.77px;" id="elt68p230j9nc" class="animable"></path><path d="M314.74,54.37a17.27,17.27,0,0,1-17.1,5c-1.2-.33-2.55-1-2.68-2.26s1.18-2.29,2.39-2.83a20.32,20.32,0,0,1,16.18-.16,23.4,23.4,0,0,1-11.31-7.43c-1.11-1.34-2.1-3.25-1.2-4.74s2.93-1.52,4.56-1.12A13.69,13.69,0,0,1,315.7,53.51a12.87,12.87,0,0,1,6.21-13.31c1.76-1,4.36-1.32,5.46.37a4.27,4.27,0,0,1,.09,3.54,16.44,16.44,0,0,1-9.27,10.13A14.39,14.39,0,0,1,334,55.3c1.4,1.11,2.68,2.77,2.36,4.53-.42,2.22-3.06,3.21-5.32,3.37a18.86,18.86,0,0,1-15.12-6.1,10.7,10.7,0,0,1,1.85,9.8c-.69,2.18-2.78,4.35-4.94,3.63s-2.52-3.41-2.33-5.59A26.76,26.76,0,0,1,314,53.74" style="fill: rgb(133, 221, 116); transform-origin: 315.68px 55.0234px;" id="el20lyh4ssqsa" class="animable"></path><path d="M302.6,56.67c.07.18,2.86-1.19,6.59-1.77s6.8-.17,6.82-.35a18.15,18.15,0,0,0-13.41,2.12Z" style="fill: rgb(38, 50, 56); transform-origin: 309.305px 55.3862px;" id="ellz10qp2b59" class="animable"></path><path d="M306.57,47.52c-.06.18,2.39.9,4.7,2.94s3.67,4.17,3.84,4A11.8,11.8,0,0,0,311.67,50,9.19,9.19,0,0,0,306.57,47.52Z" style="fill: rgb(38, 50, 56); transform-origin: 310.839px 50.9948px;" id="elgazhl90fjwt" class="animable"></path><path d="M321.78,46.43a9.93,9.93,0,0,0-4.41,3.19c-2.06,2.33-2.51,4.9-2.35,4.9s.85-2.3,2.81-4.5S321.88,46.6,321.78,46.43Z" style="fill: rgb(38, 50, 56); transform-origin: 318.387px 50.475px;" id="elckyxnun3mus" class="animable"></path><path d="M317.66,54.17a2.11,2.11,0,0,0-3.63-1.4,5.85,5.85,0,0,1,1.1,1.6,8.77,8.77,0,0,1,2.53-.2" style="fill: rgb(250, 250, 250); transform-origin: 315.845px 53.2462px;" id="el56r3sk4ttdh" class="animable"></path><path d="M330.55,59.07a7.21,7.21,0,0,0-2-1.47,21.83,21.83,0,0,0-11.32-3,7.15,7.15,0,0,0-2.43.29c0,.2,3.75-.17,8.14,1S330.45,59.24,330.55,59.07Z" style="fill: rgb(38, 50, 56); transform-origin: 322.675px 56.8346px;" id="elc20n8x0gtmn" class="animable"></path></g><defs>     <filter id="active" height="200%">         <feMorphology in="SourceAlpha" result="DILATED" operator="dilate" radius="2"></feMorphology>                <feFlood flood-color="#32DFEC" flood-opacity="1" result="PINK"></feFlood>        <feComposite in="PINK" in2="DILATED" operator="in" result="OUTLINE"></feComposite>        <feMerge>            <feMergeNode in="OUTLINE"></feMergeNode>            <feMergeNode in="SourceGraphic"></feMergeNode>        </feMerge>    </filter>    <filter id="hover" height="200%">        <feMorphology in="SourceAlpha" result="DILATED" operator="dilate" radius="2"></feMorphology>                <feFlood flood-color="#ff0000" flood-opacity="0.5" result="PINK"></feFlood>        <feComposite in="PINK" in2="DILATED" operator="in" result="OUTLINE"></feComposite>        <feMerge>            <feMergeNode in="OUTLINE"></feMergeNode>            <feMergeNode in="SourceGraphic"></feMergeNode>        </feMerge>            <feColorMatrix type="matrix" values="0   0   0   0   0                0   1   0   0   0                0   0   0   0   0                0   0   0   1   0 "></feColorMatrix>    </filter></defs></svg>