<svg xmlns="http://www.w3.org/2000/svg" xmlns:xlink="http://www.w3.org/1999/xlink" width="1000" zoomAndPan="magnify" viewBox="0 0 750 299.999988" height="400" preserveAspectRatio="xMidYMid meet" version="1.0"><defs><g/><clipPath id="beff0cf911"><path d="M 184.90625 168.058594 L 295.742188 168.058594 L 295.742188 278.898438 L 184.90625 278.898438 Z M 184.90625 168.058594 " clip-rule="nonzero"/></clipPath><clipPath id="9640dcb725"><path d="M 240.324219 168.058594 C 209.71875 168.058594 184.90625 192.871094 184.90625 223.480469 C 184.90625 254.085938 209.71875 278.898438 240.324219 278.898438 C 270.933594 278.898438 295.742188 254.085938 295.742188 223.480469 C 295.742188 192.871094 270.933594 168.058594 240.324219 168.058594 Z M 240.324219 168.058594 " clip-rule="nonzero"/></clipPath><clipPath id="396486bb1f"><path d="M 218.179688 247.351562 L 266.574219 247.351562 L 266.574219 266.429688 L 218.179688 266.429688 Z M 218.179688 247.351562 " clip-rule="nonzero"/></clipPath><clipPath id="cf9d5eb387"><path d="M 237 180.53125 L 240 180.53125 L 240 184 L 237 184 Z M 237 180.53125 " clip-rule="nonzero"/></clipPath><clipPath id="0932647968"><path d="M 242 180.53125 L 245 180.53125 L 245 184 L 242 184 Z M 242 180.53125 " clip-rule="nonzero"/></clipPath><clipPath id="862f8d6132"><path d="M 202.527344 210 L 208 210 L 208 214 L 202.527344 214 Z M 202.527344 210 " clip-rule="nonzero"/></clipPath><clipPath id="77ea20e454"><path d="M 202.527344 217 L 207 217 L 207 220 L 202.527344 220 Z M 202.527344 217 " clip-rule="nonzero"/></clipPath><clipPath id="ffca2d798c"><path d="M 275.484375 218.597656 L 278.097656 218.597656 L 278.097656 220.828125 L 275.484375 220.828125 Z M 275.484375 218.597656 " clip-rule="nonzero"/></clipPath></defs><g fill="#000000" fill-opacity="1"><g transform="translate(155.753871, 134.504454)"><g><path d="M 97.84375 0 L 75.96875 0 L 75.96875 -44.671875 L 34.96875 -44.671875 L 34.96875 0 L 13.03125 0 L 13.03125 -103.5 L 34.96875 -103.5 L 34.96875 -62.9375 L 75.96875 -62.9375 L 75.96875 -103.5 L 97.84375 -103.5 Z M 97.84375 0 "/></g></g></g><g fill="#000000" fill-opacity="1"><g transform="translate(279.871193, 134.504454)"><g><path d="M 13.03125 0 L 13.03125 -103.5 L 34.96875 -103.5 L 34.96875 0 Z M 13.03125 0 "/></g></g></g><g fill="#000000" fill-opacity="1"><g transform="translate(341.058525, 134.504454)"><g><path d="M 52.3125 -58.125 L 93.375 -58.125 L 93.375 -4.453125 C 86.71875 -2.285156 80.453125 -0.765625 74.578125 0.109375 C 68.703125 0.984375 62.695312 1.421875 56.5625 1.421875 C 40.9375 1.421875 29.003906 -3.164062 20.765625 -12.34375 C 12.535156 -21.53125 8.421875 -34.710938 8.421875 -51.890625 C 8.421875 -68.597656 13.195312 -81.625 22.75 -90.96875 C 32.3125 -100.3125 45.566406 -104.984375 62.515625 -104.984375 C 73.128906 -104.984375 83.367188 -102.859375 93.234375 -98.609375 L 85.9375 -81.0625 C 78.382812 -84.832031 70.53125 -86.71875 62.375 -86.71875 C 52.882812 -86.71875 45.28125 -83.53125 39.5625 -77.15625 C 33.851562 -70.789062 31 -62.226562 31 -51.46875 C 31 -40.238281 33.300781 -31.660156 37.90625 -25.734375 C 42.507812 -19.804688 49.203125 -16.84375 57.984375 -16.84375 C 62.554688 -16.84375 67.203125 -17.316406 71.921875 -18.265625 L 71.921875 -39.859375 L 52.3125 -39.859375 Z M 52.3125 -58.125 "/></g></g></g><g fill="#000000" fill-opacity="1"><g transform="translate(459.229707, 134.504454)"><g><path d="M 97.84375 0 L 75.96875 0 L 75.96875 -44.671875 L 34.96875 -44.671875 L 34.96875 0 L 13.03125 0 L 13.03125 -103.5 L 34.96875 -103.5 L 34.96875 -62.9375 L 75.96875 -62.9375 L 75.96875 -103.5 L 97.84375 -103.5 Z M 97.84375 0 "/></g></g></g><g fill="#000000" fill-opacity="1"><g transform="translate(-17.471968, 277.540089)"><g><path d="M 72.640625 0 L 13.03125 0 L 13.03125 -103.5 L 72.640625 -103.5 L 72.640625 -85.515625 L 34.96875 -85.515625 L 34.96875 -62.796875 L 70.015625 -62.796875 L 70.015625 -44.8125 L 34.96875 -44.8125 L 34.96875 -18.125 L 72.640625 -18.125 Z M 72.640625 0 "/></g></g></g><g fill="#000000" fill-opacity="1"><g transform="translate(76.914652, 277.540089)"><g><path d="M 56.984375 -86.71875 C 48.722656 -86.71875 42.328125 -83.613281 37.796875 -77.40625 C 33.265625 -71.207031 31 -62.5625 31 -51.46875 C 31 -28.382812 39.660156 -16.84375 56.984375 -16.84375 C 64.253906 -16.84375 73.054688 -18.660156 83.390625 -22.296875 L 83.390625 -3.890625 C 74.898438 -0.347656 65.414062 1.421875 54.9375 1.421875 C 39.882812 1.421875 28.367188 -3.144531 20.390625 -12.28125 C 12.410156 -21.414062 8.421875 -34.523438 8.421875 -51.609375 C 8.421875 -62.367188 10.378906 -71.796875 14.296875 -79.890625 C 18.210938 -87.984375 23.835938 -94.1875 31.171875 -98.5 C 38.515625 -102.820312 47.117188 -104.984375 56.984375 -104.984375 C 67.035156 -104.984375 77.132812 -102.550781 87.28125 -97.6875 L 80.203125 -79.859375 C 76.335938 -81.691406 72.445312 -83.289062 68.53125 -84.65625 C 64.613281 -86.03125 60.765625 -86.71875 56.984375 -86.71875 Z M 56.984375 -86.71875 "/></g></g></g><g fill="#000000" fill-opacity="1"><g transform="translate(182.485678, 277.540089)"><g><path d="M 106.96875 -51.890625 C 106.96875 -34.753906 102.71875 -21.582031 94.21875 -12.375 C 85.726562 -3.175781 73.554688 1.421875 57.703125 1.421875 C 41.835938 1.421875 29.65625 -3.175781 21.15625 -12.375 C 12.664062 -21.582031 8.421875 -34.800781 8.421875 -52.03125 C 8.421875 -69.257812 12.679688 -82.414062 21.203125 -91.5 C 29.722656 -100.582031 41.9375 -105.125 57.84375 -105.125 C 73.738281 -105.125 85.898438 -100.546875 94.328125 -91.390625 C 102.753906 -82.234375 106.96875 -69.066406 106.96875 -51.890625 Z M 31.4375 -51.890625 C 31.4375 -40.328125 33.628906 -31.617188 38.015625 -25.765625 C 42.398438 -19.910156 48.960938 -16.984375 57.703125 -16.984375 C 75.203125 -16.984375 83.953125 -28.617188 83.953125 -51.890625 C 83.953125 -75.203125 75.25 -86.859375 57.84375 -86.859375 C 49.101562 -86.859375 42.515625 -83.921875 38.078125 -78.046875 C 33.648438 -72.171875 31.4375 -63.453125 31.4375 -51.890625 Z M 31.4375 -51.890625 "/></g></g></g><g fill="#000000" fill-opacity="1"><g transform="translate(311.062606, 277.540089)"><g><path d="M 13.03125 0 L 13.03125 -103.5 L 34.96875 -103.5 L 34.96875 -18.125 L 76.953125 -18.125 L 76.953125 0 Z M 13.03125 0 "/></g></g></g><g fill="#000000" fill-opacity="1"><g transform="translate(406.1571, 277.540089)"><g><path d="M 106.96875 -51.890625 C 106.96875 -34.753906 102.71875 -21.582031 94.21875 -12.375 C 85.726562 -3.175781 73.554688 1.421875 57.703125 1.421875 C 41.835938 1.421875 29.65625 -3.175781 21.15625 -12.375 C 12.664062 -21.582031 8.421875 -34.800781 8.421875 -52.03125 C 8.421875 -69.257812 12.679688 -82.414062 21.203125 -91.5 C 29.722656 -100.582031 41.9375 -105.125 57.84375 -105.125 C 73.738281 -105.125 85.898438 -100.546875 94.328125 -91.390625 C 102.753906 -82.234375 106.96875 -69.066406 106.96875 -51.890625 Z M 31.4375 -51.890625 C 31.4375 -40.328125 33.628906 -31.617188 38.015625 -25.765625 C 42.398438 -19.910156 48.960938 -16.984375 57.703125 -16.984375 C 75.203125 -16.984375 83.953125 -28.617188 83.953125 -51.890625 C 83.953125 -75.203125 75.25 -86.859375 57.84375 -86.859375 C 49.101562 -86.859375 42.515625 -83.921875 38.078125 -78.046875 C 33.648438 -72.171875 31.4375 -63.453125 31.4375 -51.890625 Z M 31.4375 -51.890625 "/></g></g></g><g fill="#000000" fill-opacity="1"><g transform="translate(534.734028, 277.540089)"><g><path d="M 52.3125 -58.125 L 93.375 -58.125 L 93.375 -4.453125 C 86.71875 -2.285156 80.453125 -0.765625 74.578125 0.109375 C 68.703125 0.984375 62.695312 1.421875 56.5625 1.421875 C 40.9375 1.421875 29.003906 -3.164062 20.765625 -12.34375 C 12.535156 -21.53125 8.421875 -34.710938 8.421875 -51.890625 C 8.421875 -68.597656 13.195312 -81.625 22.75 -90.96875 C 32.3125 -100.3125 45.566406 -104.984375 62.515625 -104.984375 C 73.128906 -104.984375 83.367188 -102.859375 93.234375 -98.609375 L 85.9375 -81.0625 C 78.382812 -84.832031 70.53125 -86.71875 62.375 -86.71875 C 52.882812 -86.71875 45.28125 -83.53125 39.5625 -77.15625 C 33.851562 -70.789062 31 -62.226562 31 -51.46875 C 31 -40.238281 33.300781 -31.660156 37.90625 -25.734375 C 42.507812 -19.804688 49.203125 -16.84375 57.984375 -16.84375 C 62.554688 -16.84375 67.203125 -17.316406 71.921875 -18.265625 L 71.921875 -39.859375 L 52.3125 -39.859375 Z M 52.3125 -58.125 "/></g></g></g><g fill="#000000" fill-opacity="1"><g transform="translate(652.90521, 277.540089)"><g><path d="M 45.234375 -60.875 L 66.828125 -103.5 L 90.46875 -103.5 L 56.140625 -40.28125 L 56.140625 0 L 34.328125 0 L 34.328125 -39.578125 L 0 -103.5 L 23.78125 -103.5 Z M 45.234375 -60.875 "/></g></g></g><g clip-path="url(#beff0cf911)"><g clip-path="url(#9640dcb725)"><path fill="#41893e" d="M 184.90625 168.058594 L 295.742188 168.058594 L 295.742188 278.898438 L 184.90625 278.898438 Z M 184.90625 168.058594 " fill-opacity="1" fill-rule="nonzero"/></g></g><path fill="#603814" d="M 265.640625 253.746094 C 263.960938 253.921875 262.207031 253.984375 262 253.402344 C 261.414062 251.777344 259.367188 251.300781 259.582031 251.09375 C 259.667969 251.015625 260.394531 251.054688 261.601562 251.273438 C 262.195312 251.382812 263.96875 251.957031 264.558594 252.082031 C 264.859375 252.148438 265.113281 252.25 265.328125 252.359375 C 266.195312 252.800781 267.683594 252.9375 268.828125 253.214844 C 269.445312 253.363281 269.960938 253.710938 270.222656 253.796875 C 269.917969 253.425781 269.453125 253.296875 269.203125 253.199219 C 268.757812 253.03125 268.371094 252.863281 267.964844 252.792969 C 267.289062 252.675781 266.863281 252.636719 266.371094 252.394531 C 265.179688 251.808594 264.511719 251.53125 263.359375 251.351562 C 263.40625 251.226562 265.433594 251.058594 266.300781 251.09375 C 267.203125 251.128906 268.683594 251.359375 269.777344 251.296875 C 270.175781 251.273438 270.511719 251.207031 270.882812 251.167969 C 271.257812 251.125 271.707031 251.234375 272.117188 251.328125 C 271.757812 251.109375 271.03125 251.035156 270.46875 251.050781 C 269.910156 251.066406 269.394531 251.144531 268.800781 251.113281 C 267.933594 251.0625 267.078125 250.78125 266.207031 250.722656 C 265.058594 250.644531 264.179688 250.964844 263.03125 250.894531 C 262.390625 250.855469 261.792969 250.664062 261.148438 250.574219 C 259.542969 250.355469 256.882812 250.695312 254.566406 250.5625 C 253.371094 250.492188 252.007812 250.515625 250.988281 250.222656 C 250.164062 249.980469 248.46875 248.921875 248.378906 248.777344 C 248.121094 248.371094 249.277344 248.070312 250.164062 248.160156 C 251.046875 248.25 251.71875 248.367188 252.605469 248.453125 C 253.679688 248.554688 254.828125 248.519531 255.902344 248.46875 C 256.785156 248.425781 258.628906 248.363281 259.519531 248.4375 C 261.066406 248.5625 261.671875 248.8125 263.21875 248.949219 C 262.347656 248.753906 261.457031 248.582031 260.597656 248.378906 C 259.5625 248.132812 258.105469 248.167969 257.507812 248.167969 C 251.492188 248.199219 251.761719 247.175781 248.171875 246.953125 C 246.507812 246.851562 243.597656 246.816406 241.929688 246.871094 C 240.832031 246.902344 239.734375 247.148438 238.640625 247.15625 C 238.074219 247.160156 237.507812 247.164062 236.941406 247.167969 C 236.667969 247.167969 236.328125 246.78125 236.21875 246.882812 C 235.703125 246.832031 234.367188 247.089844 234.300781 247.09375 C 233.546875 247.152344 232.695312 247.125 231.976562 247.238281 C 231.394531 247.332031 230.34375 247.585938 230.007812 247.847656 C 229.199219 248.191406 228.410156 248.582031 227.390625 248.757812 C 226.960938 248.832031 226.503906 248.867188 226.089844 248.960938 C 225.175781 249.164062 224.601562 249.613281 223.734375 249.863281 C 222.882812 250.105469 221.859375 250.128906 220.902344 250.105469 C 219.949219 250.078125 218.992188 250.011719 218.03125 250.09375 C 217.074219 250.175781 216.070312 250.453125 215.710938 250.878906 C 216.578125 250.351562 218.195312 250.296875 219.53125 250.378906 C 220.863281 250.460938 222.292969 250.621094 223.554688 250.328125 C 224.488281 250.109375 225.171875 249.671875 226.144531 249.503906 C 226.488281 249.445312 226.921875 249.4375 227.136719 249.5625 C 227.335938 249.679688 227.226562 249.851562 227.15625 250 C 226.8125 250.734375 226.140625 250.835938 225.402344 251.175781 C 224.875 251.417969 224.296875 251.527344 223.640625 251.6875 C 222.542969 251.953125 221.304688 252.132812 220.109375 252.238281 C 218.914062 252.347656 217.65625 252.527344 216.804688 252.953125 C 216.3125 253.199219 216 253.507812 215.542969 253.765625 C 214.492188 254.355469 212.976562 254.765625 212.515625 255.480469 C 212.257812 255.882812 212.226562 256.230469 212.203125 256.640625 C 212.183594 257.039062 211.882812 257.445312 211.359375 257.777344 C 211.957031 257.382812 212.503906 257.101562 212.742188 256.640625 C 213.007812 256.128906 212.847656 255.621094 213.582031 255.199219 C 214.210938 254.835938 215.328125 254.308594 216.03125 253.972656 C 216.472656 253.757812 216.773438 253.609375 217.179688 253.378906 C 218.09375 252.863281 219.214844 252.785156 220.570312 252.605469 C 221.925781 252.429688 223.589844 252.128906 224.894531 251.867188 C 226.195312 251.609375 227.519531 250.992188 227.917969 250.359375 C 228.101562 250.066406 228.019531 249.914062 228.226562 249.625 C 228.59375 249.113281 229.570312 248.734375 230.59375 248.480469 C 231.613281 248.222656 232.09375 247.960938 233.847656 247.941406 C 234.226562 247.9375 236.171875 247.753906 236.984375 248.234375 C 237.421875 248.488281 236.949219 248.804688 236.582031 249.097656 C 235.746094 249.761719 234.199219 250.144531 232.824219 250.578125 C 231.449219 251.011719 230.074219 251.625 229.988281 252.390625 C 229.9375 252.824219 230.003906 253.230469 230.4375 253.664062 C 230.828125 254.050781 231.296875 254.375 229.828125 254.632812 C 229.050781 254.769531 227.707031 254.707031 226.953125 254.875 C 226.152344 255.054688 225.785156 255.433594 225.136719 255.71875 C 224.242188 256.113281 223.03125 256.117188 221.84375 256.195312 C 220.023438 256.316406 218.402344 256.988281 217.789062 257.792969 C 218.15625 257.46875 218.945312 257.269531 219.601562 257.042969 C 221.074219 256.53125 222.996094 256.6875 224.15625 256.507812 C 223.726562 257.101562 224.34375 258.082031 224.644531 258.679688 C 224.972656 259.335938 224.390625 259.34375 224.269531 260.167969 C 224.183594 260.746094 224.695312 261.414062 225.84375 261.605469 C 225.140625 261.34375 224.976562 260.867188 225.070312 260.441406 C 225.164062 260.015625 225.464844 259.597656 225.492188 259.171875 C 225.546875 258.289062 224.28125 257.261719 225.355469 256.515625 C 226.144531 255.96875 226.359375 255.542969 227.617188 255.320312 C 229.46875 254.992188 231.429688 255.199219 232.039062 254.464844 C 232.308594 254.140625 231.777344 253.695312 231.636719 253.359375 C 230.8125 251.425781 234.59375 250.964844 234.890625 251.101562 C 235.308594 251.289062 234.378906 251.898438 235.03125 252.457031 C 235.472656 252.835938 236.554688 253 236.796875 253.417969 C 237.023438 253.808594 236.292969 254.175781 236.078125 254.570312 C 235.628906 255.390625 237.441406 256.21875 236.824219 257.015625 C 236.234375 257.78125 234.042969 257.851562 232.5625 258.273438 C 230.351562 258.902344 229.933594 260.5625 231.777344 261.363281 C 230.535156 260.273438 231.023438 258.996094 233.101562 258.664062 C 234.015625 258.515625 235.105469 258.382812 235.9375 258.148438 C 236.75 257.921875 237.3125 257.214844 238.25 257.195312 C 238.945312 257.179688 239.460938 258.007812 239.796875 258.292969 C 240.132812 258.578125 240.304688 258.90625 240.65625 259.1875 C 241.230469 259.648438 242.316406 260.046875 242.171875 260.582031 C 242.097656 260.847656 242 261.039062 241.992188 261.359375 C 242.738281 260.867188 242.804688 260.164062 242.148438 259.652344 C 241.75 259.339844 241.109375 259.089844 240.882812 258.738281 C 240.738281 258.507812 240.179688 257.558594 239.957031 257.34375 C 239.148438 256.558594 238.210938 256.722656 237.617188 255.898438 C 236.394531 254.199219 239.003906 254.269531 238.4375 253.496094 C 237.941406 252.8125 235.84375 252.457031 236.042969 251.738281 C 236.179688 251.238281 237.371094 250.960938 237.867188 250.515625 C 238.085938 250.324219 238.160156 250.101562 238.386719 249.90625 C 238.769531 249.578125 239.59375 249.371094 240.382812 249.414062 C 241.171875 249.453125 241.367188 249.871094 241.574219 250.230469 C 242.023438 251.023438 240.734375 251.695312 241.207031 252.484375 C 241.355469 252.730469 241.71875 252.953125 241.683594 253.210938 C 241.648438 253.449219 241.273438 253.644531 241.027344 253.859375 C 240.464844 254.347656 240.632812 254.996094 241.421875 255.398438 C 242.226562 255.8125 243.476562 255.9375 244.53125 256.199219 C 245.582031 256.460938 246.550781 257.023438 246.078125 257.539062 C 246.722656 257.105469 246.625 256.457031 245.855469 256.070312 C 245.210938 255.75 244.25 255.628906 243.425781 255.417969 C 242.597656 255.210938 241.8125 254.808594 242.035156 254.375 C 242.226562 254 243.117188 253.753906 243.210938 253.367188 C 243.25 253.203125 243.257812 253.027344 243.117188 252.875 C 241.9375 251.585938 243.441406 250.464844 246.789062 251.8125 C 247.902344 252.261719 246.980469 253.074219 247.851562 253.394531 C 248.855469 253.757812 251.480469 253.292969 252.058594 253.828125 C 252.601562 254.328125 250.671875 255.257812 250.722656 255.816406 C 250.773438 256.378906 251.898438 256.800781 252.152344 257.351562 C 252.507812 258.113281 251.117188 258.800781 250.839844 259.570312 C 250.601562 260.238281 251.292969 260.953125 252.515625 261.304688 C 251.425781 260.917969 251.484375 260.136719 251.929688 259.53125 C 252.378906 258.925781 253.113281 258.339844 253.019531 257.699219 C 252.933594 257.117188 252.167969 256.601562 251.933594 256.03125 C 251.699219 255.457031 252.433594 254.859375 253.664062 254.78125 C 256.636719 254.59375 255.515625 256.203125 256.789062 256.832031 C 257.984375 257.421875 261.050781 257.800781 261.046875 258.894531 C 261.046875 259.390625 260.9375 260.03125 260.011719 260.28125 C 261.839844 259.855469 262.414062 258.613281 261.113281 257.863281 C 260.042969 257.242188 256.675781 256.523438 257.226562 255.925781 C 257.046875 256.117188 260.257812 256.285156 262.871094 255.984375 C 264.410156 255.808594 266.019531 256.265625 266.449219 256.96875 C 266.089844 256.378906 265.300781 255.914062 264.179688 255.757812 C 263.054688 255.601562 262.214844 255.726562 261.054688 255.746094 C 259.894531 255.765625 258.304688 255.847656 257.484375 255.453125 C 256.886719 255.164062 256.914062 254.578125 256.195312 254.355469 C 255.53125 254.148438 254.621094 254.167969 254.015625 253.925781 C 253.539062 253.738281 253.359375 253.433594 252.957031 253.214844 C 251.75 252.550781 248.796875 253.492188 248.71875 252.632812 C 248.617188 251.535156 247.179688 250.96875 245.738281 250.769531 C 244.792969 250.640625 243.835938 250.429688 243.324219 250.03125 C 242.816406 249.636719 242.917969 249.046875 243.730469 248.789062 C 244.550781 248.53125 245.707031 248.699219 246.449219 249.007812 C 247.191406 249.320312 247.667969 249.746094 248.300781 250.105469 C 249.808594 250.96875 252.617188 251.28125 254.949219 251.175781 C 255.632812 251.136719 259.796875 251.019531 260.785156 253.101562 C 261.035156 253.625 261.546875 254.203125 262.605469 254.433594 C 263.875 254.707031 265.535156 253.933594 266.777344 254.242188 C 267.804688 254.496094 267.988281 255.445312 268.597656 255.890625 C 269.28125 256.394531 270.617188 256.542969 271.773438 256.8125 C 270.007812 256.40625 269.105469 255.742188 268.539062 255.140625 C 267.894531 254.457031 267.535156 253.550781 265.640625 253.746094 " fill-opacity="1" fill-rule="nonzero"/><g clip-path="url(#396486bb1f)"><path fill="#603814" d="M 223.472656 256.289062 C 224.808594 256.5625 226.199219 256.675781 226.363281 255.898438 C 226.824219 253.738281 228.449219 253.144531 228.28125 252.867188 C 228.210938 252.757812 227.636719 252.796875 226.675781 253.0625 C 226.203125 253.195312 224.796875 253.925781 224.328125 254.078125 C 224.089844 254.15625 223.890625 254.289062 223.71875 254.433594 C 223.03125 255.007812 221.847656 255.152344 220.941406 255.492188 C 220.449219 255.675781 220.039062 256.132812 219.828125 256.242188 C 220.070312 255.746094 220.441406 255.585938 220.640625 255.460938 C 220.992188 255.246094 221.300781 255.03125 221.625 254.945312 C 222.160156 254.804688 222.496094 254.765625 222.886719 254.449219 C 223.832031 253.691406 224.363281 253.339844 225.28125 253.128906 C 225.242188 252.957031 223.628906 252.679688 222.941406 252.703125 C 222.222656 252.722656 221.046875 252.980469 220.175781 252.859375 C 219.859375 252.816406 219.589844 252.710938 219.292969 252.644531 C 218.996094 252.574219 218.640625 252.703125 218.3125 252.816406 C 218.597656 252.535156 219.179688 252.457031 219.625 252.5 C 220.070312 252.542969 220.480469 252.667969 220.953125 252.644531 C 221.644531 252.609375 222.320312 252.253906 223.015625 252.203125 C 223.925781 252.132812 224.628906 252.589844 225.539062 252.523438 C 226.050781 252.484375 226.523438 252.242188 227.035156 252.140625 C 228.308594 251.886719 230.421875 252.386719 232.257812 252.238281 C 233.207031 252.160156 234.289062 252.207031 235.101562 251.824219 C 235.753906 251.515625 237.097656 250.132812 237.171875 249.945312 C 237.371094 249.414062 236.457031 249.011719 235.753906 249.121094 C 235.050781 249.226562 234.519531 249.375 233.816406 249.476562 C 232.964844 249.597656 232.054688 249.53125 231.199219 249.445312 C 230.496094 249.375 229.035156 249.25 228.328125 249.324219 C 227.097656 249.453125 226.617188 249.773438 225.386719 249.90625 C 226.082031 249.675781 226.785156 249.46875 227.46875 249.21875 C 228.292969 248.917969 229.449219 249.003906 229.925781 249.019531 C 234.703125 249.171875 234.484375 247.800781 237.332031 247.550781 C 238.652344 247.4375 240.960938 247.402344 242.285156 247.464844 C 243.15625 247.507812 244.023438 247.820312 244.894531 247.828125 C 245.339844 247.828125 245.792969 247.828125 246.238281 247.828125 C 246.457031 247.828125 246.726562 247.320312 246.8125 247.449219 C 247.222656 247.378906 248.066406 247.730469 248.175781 247.703125 C 248.226562 247.691406 248.28125 247.699219 248.332031 247.703125 C 248.929688 247.769531 249.605469 247.722656 250.175781 247.855469 C 250.636719 247.96875 251.46875 248.277344 251.730469 248.609375 C 252.371094 249.042969 252.996094 249.53125 253.804688 249.734375 C 254.144531 249.820312 254.503906 249.855469 254.832031 249.964844 C 255.558594 250.203125 256.011719 250.769531 256.699219 251.066406 C 257.371094 251.359375 258.183594 251.359375 258.941406 251.296875 C 259.699219 251.230469 260.457031 251.109375 261.21875 251.179688 C 261.980469 251.253906 262.773438 251.570312 263.058594 252.109375 C 262.375 251.460938 261.089844 251.449219 260.03125 251.601562 C 258.972656 251.753906 257.835938 252.007812 256.839844 251.664062 C 256.097656 251.410156 255.5625 250.859375 254.789062 250.671875 C 254.515625 250.605469 254.175781 250.601562 254 250.773438 C 253.847656 250.925781 253.929688 251.144531 253.984375 251.335938 C 254.253906 252.28125 254.789062 252.394531 255.371094 252.8125 C 255.789062 253.113281 256.246094 253.238281 256.765625 253.425781 C 257.636719 253.738281 258.617188 253.929688 259.5625 254.03125 C 260.511719 254.128906 261.507812 254.320312 262.179688 254.839844 C 262.570312 255.140625 262.816406 255.523438 263.179688 255.839844 C 264.007812 256.566406 265.210938 257.035156 265.570312 257.941406 C 265.777344 258.453125 265.796875 258.90625 265.8125 259.4375 C 265.828125 259.953125 266.0625 260.464844 266.476562 260.878906 C 266.003906 260.386719 265.574219 260.046875 265.386719 259.457031 C 265.175781 258.804688 265.308594 258.140625 264.726562 257.621094 C 264.230469 257.175781 263.34375 256.539062 262.792969 256.128906 C 262.441406 255.867188 262.203125 255.683594 261.882812 255.402344 C 261.160156 254.769531 260.269531 254.707031 259.195312 254.523438 C 258.125 254.335938 256.804688 253.996094 255.773438 253.695312 C 254.742188 253.398438 253.695312 252.632812 253.378906 251.820312 C 253.234375 251.445312 253.300781 251.246094 253.140625 250.875 C 252.851562 250.222656 252.074219 249.753906 251.265625 249.441406 C 250.460938 249.128906 250.078125 248.796875 248.6875 248.796875 C 248.390625 248.796875 246.847656 248.585938 246.203125 249.214844 C 245.855469 249.550781 246.226562 249.957031 246.515625 250.332031 C 247.179688 251.1875 248.40625 251.664062 249.492188 252.203125 C 250.582031 252.742188 251.667969 253.507812 251.734375 254.5 C 251.773438 255.0625 251.71875 255.589844 251.375 256.160156 C 251.066406 256.667969 250.691406 257.101562 251.855469 257.402344 C 252.46875 257.558594 253.53125 257.449219 254.128906 257.648438 C 254.761719 257.855469 255.054688 258.339844 255.566406 258.691406 C 256.269531 259.175781 257.230469 259.144531 258.171875 259.210938 C 259.613281 259.308594 260.898438 260.121094 261.375 261.140625 C 261.089844 260.734375 260.464844 260.507812 259.945312 260.234375 C 258.777344 259.621094 257.253906 259.878906 256.339844 259.683594 C 256.675781 260.4375 256.183594 261.726562 255.945312 262.507812 C 255.679688 263.371094 256.140625 263.363281 256.234375 264.425781 C 256.300781 265.167969 255.894531 266.050781 254.984375 266.332031 C 255.539062 265.972656 255.671875 265.351562 255.597656 264.804688 C 255.527344 264.253906 255.289062 263.722656 255.269531 263.167969 C 255.230469 262.03125 256.238281 260.664062 255.390625 259.730469 C 254.765625 259.042969 254.597656 258.492188 253.601562 258.238281 C 252.136719 257.859375 250.582031 258.171875 250.101562 257.230469 C 249.890625 256.816406 250.3125 256.226562 250.425781 255.789062 C 251.085938 253.265625 248.089844 252.738281 247.855469 252.914062 C 247.523438 253.164062 248.257812 253.941406 247.738281 254.679688 C 247.390625 255.175781 246.53125 255.40625 246.335938 255.953125 C 246.15625 256.460938 246.734375 256.929688 246.902344 257.441406 C 247.257812 258.5 245.820312 259.605469 246.308594 260.632812 C 246.773438 261.613281 248.503906 261.671875 249.679688 262.183594 C 251.425781 262.949219 251.75 265.089844 250.289062 266.171875 C 251.273438 264.730469 250.894531 263.085938 249.25 262.699219 C 248.527344 262.53125 247.664062 262.375 247.007812 262.089844 C 246.363281 261.808594 245.921875 260.902344 245.179688 260.886719 C 244.628906 260.875 244.21875 261.964844 243.953125 262.339844 C 243.683594 262.71875 243.550781 263.148438 243.269531 263.519531 C 242.8125 264.128906 241.953125 264.664062 242.070312 265.363281 C 242.125 265.707031 242.203125 265.957031 242.210938 266.375 C 241.617188 265.742188 241.566406 264.828125 242.085938 264.148438 C 242.402344 263.734375 242.914062 263.398438 243.089844 262.9375 C 243.207031 262.636719 243.648438 261.390625 243.828125 261.105469 C 244.46875 260.074219 245.207031 260.273438 245.683594 259.191406 C 246.65625 256.964844 244.589844 257.089844 245.039062 256.078125 C 245.433594 255.183594 247.097656 254.691406 246.9375 253.757812 C 246.832031 253.113281 245.890625 252.769531 245.496094 252.195312 C 245.324219 251.941406 245.265625 251.652344 245.085938 251.40625 C 244.785156 250.980469 244.128906 250.71875 243.507812 250.777344 C 242.882812 250.835938 242.726562 251.378906 242.5625 251.851562 C 242.203125 252.886719 243.222656 253.753906 242.84375 254.789062 C 242.726562 255.109375 242.441406 255.402344 242.46875 255.738281 C 242.496094 256.050781 242.792969 256.300781 242.984375 256.574219 C 243.429688 257.207031 243.296875 258.054688 242.671875 258.589844 C 242.035156 259.136719 241.042969 259.3125 240.210938 259.664062 C 239.375 260.011719 238.609375 260.761719 238.984375 261.429688 C 238.472656 260.867188 238.546875 260.019531 239.160156 259.507812 C 239.667969 259.082031 240.429688 258.914062 241.085938 258.632812 C 241.742188 258.355469 242.363281 257.824219 242.1875 257.261719 C 242.035156 256.773438 241.332031 256.457031 241.257812 255.957031 C 241.226562 255.742188 241.222656 255.507812 241.332031 255.308594 C 242.273438 253.621094 241.078125 252.167969 238.425781 253.933594 C 237.542969 254.523438 238.273438 255.585938 237.582031 256.007812 C 236.785156 256.488281 234.707031 255.871094 234.25 256.570312 C 233.820312 257.226562 235.347656 258.457031 235.304688 259.191406 C 235.265625 259.933594 234.371094 260.492188 234.171875 261.21875 C 233.890625 262.222656 234.992188 263.125 235.210938 264.136719 C 235.398438 265.007812 234.851562 265.957031 233.886719 266.429688 C 234.746094 265.914062 234.699219 264.882812 234.347656 264.089844 C 233.992188 263.292969 233.410156 262.519531 233.484375 261.675781 C 233.554688 260.910156 234.160156 260.226562 234.34375 259.472656 C 234.53125 258.71875 233.949219 257.933594 232.976562 257.824219 C 230.621094 257.5625 231.507812 259.695312 230.5 260.523438 C 229.550781 261.300781 227.121094 261.792969 227.125 263.253906 C 227.128906 263.914062 227.214844 264.773438 227.945312 265.109375 C 226.5 264.539062 226.042969 262.867188 227.070312 261.875 C 227.921875 261.050781 230.589844 260.113281 230.152344 259.320312 C 230.292969 259.578125 227.75 259.78125 225.675781 259.347656 C 224.457031 259.089844 223.179688 259.675781 222.839844 260.621094 C 223.125 259.828125 223.746094 259.21875 224.636719 259.023438 C 225.53125 258.828125 226.195312 259.007812 227.117188 259.046875 C 228.035156 259.085938 229.296875 259.207031 229.945312 258.691406 C 230.421875 258.3125 230.398438 257.535156 230.96875 257.242188 C 231.496094 256.976562 232.214844 257.003906 232.699219 256.691406 C 233.074219 256.445312 233.214844 256.046875 233.535156 255.757812 C 234.492188 254.890625 236.835938 256.136719 236.894531 255.003906 C 236.976562 253.5625 238.117188 252.824219 239.257812 252.566406 C 240.007812 252.398438 240.769531 252.113281 241.171875 251.59375 C 241.578125 251.078125 241.5 250.308594 240.851562 249.972656 C 240.203125 249.632812 239.285156 249.851562 238.699219 250.257812 C 238.109375 250.664062 237.730469 251.21875 237.230469 251.691406 C 236.035156 252.816406 233.808594 253.214844 231.957031 253.042969 C 231.414062 252.992188 228.109375 252.757812 227.328125 255.523438 C 227.128906 256.214844 226.722656 256.980469 225.882812 257.273438 C 224.878906 257.621094 223.558594 256.550781 222.570312 256.933594 C 221.753906 257.253906 221.613281 258.53125 221.128906 259.125 C 220.589844 259.792969 219.527344 259.96875 218.609375 260.3125 C 220.011719 259.792969 220.726562 258.914062 221.171875 258.109375 C 221.683594 257.199219 221.96875 255.984375 223.472656 256.289062 " fill-opacity="1" fill-rule="nonzero"/></g><path fill="#603814" d="M 261.09375 215.5625 L 261.335938 215.472656 L 261.445312 215.507812 C 262.554688 215.859375 263.523438 216.109375 264.417969 216.273438 C 265.289062 216.433594 266.179688 216.542969 267.082031 216.609375 C 266.820312 216.570312 266.558594 216.527344 266.304688 216.484375 C 265.300781 216.304688 264.132812 215.992188 262.824219 215.554688 L 261.917969 215.253906 L 263.050781 214.832031 C 266.410156 213.601562 268.582031 212.054688 269.980469 210.648438 C 268.800781 211.4375 267.425781 212.113281 266.078125 212.714844 L 265.476562 212.984375 L 265.613281 212.339844 C 265.816406 211.367188 266.089844 210.550781 266.425781 209.914062 C 266.246094 210.171875 266.078125 210.449219 265.929688 210.746094 C 265.632812 211.324219 265.386719 212.0625 265.203125 212.941406 L 265.167969 213.113281 L 265.003906 213.179688 C 263.082031 213.984375 261.007812 214.765625 259 215.519531 C 256.988281 216.273438 255.085938 216.988281 253.460938 217.679688 L 252.53125 218.078125 L 253.039062 217.199219 C 253.402344 216.578125 253.703125 216 253.960938 215.429688 C 254.328125 214.621094 254.707031 213.59375 255.105469 212.507812 L 255.210938 212.226562 L 255.421875 212.207031 C 256.507812 212.121094 257.398438 211.988281 258.144531 211.796875 C 258.394531 211.734375 258.636719 211.667969 258.875 211.59375 C 258.039062 211.773438 257.007812 211.898438 255.808594 211.964844 L 255.292969 211.996094 L 255.472656 211.511719 C 256.210938 209.542969 257.328125 206.550781 259.15625 204.082031 C 257.960938 205.203125 256.796875 206.664062 256.007812 208.503906 C 255.917969 208.714844 255.832031 208.917969 255.746094 209.121094 L 255.363281 210.042969 L 255.109375 209.078125 C 254.816406 207.960938 254.652344 206.953125 254.613281 206.09375 C 254.589844 205.546875 254.589844 204.816406 254.671875 203.964844 C 254.433594 205.09375 254.308594 206.367188 254.40625 207.75 C 254.472656 208.644531 254.667969 209.671875 254.996094 210.8125 L 255.023438 210.921875 L 254.953125 211.109375 C 253.929688 213.734375 253.203125 216.050781 250.984375 218.730469 L 250.617188 219.011719 C 249.347656 219.6875 248.089844 220.484375 246.871094 221.378906 L 246.453125 221.683594 L 246.34375 221.179688 C 245.96875 219.484375 245.804688 217.980469 245.855469 216.71875 C 245.886719 215.953125 245.984375 214.871094 246.257812 213.609375 C 245.753906 215.082031 245.375 216.808594 245.355469 218.695312 C 245.34375 219.675781 245.460938 220.804688 245.699219 222.050781 L 245.738281 222.246094 L 245.582031 222.375 C 244.15625 223.535156 243.109375 224.574219 242.484375 225.242188 L 242.058594 225.695312 L 241.910156 225.089844 C 241.6875 224.171875 241.484375 223.070312 241.320312 222.183594 C 241.175781 221.410156 241.054688 220.746094 240.972656 220.484375 C 240.589844 219.273438 241.300781 211.863281 242.832031 207.140625 L 242.855469 207.0625 L 243.078125 206.84375 C 243.875 206.050781 244.503906 205.421875 245.296875 204.679688 L 245.714844 204.277344 C 247.398438 202.664062 249.816406 200.34375 251.953125 197.394531 C 251.035156 198.5625 249.96875 199.726562 248.734375 200.828125 C 247.023438 202.359375 245.441406 203.8125 244.019531 205.152344 L 243.054688 205.957031 C 243.234375 205.441406 243.828125 203.773438 244.003906 203.277344 C 244.710938 201.277344 245.933594 197.820312 246.386719 193.640625 C 246.1875 194.953125 245.878906 196.304688 245.429688 197.660156 L 245.257812 198.175781 L 244.597656 197.519531 C 243.742188 196.679688 243.003906 195.949219 242.480469 195.054688 C 242.257812 194.679688 242.042969 194.292969 241.835938 193.890625 C 242.105469 194.515625 242.445312 195.167969 242.882812 195.851562 C 243.277344 196.472656 243.996094 197.367188 244.96875 198.429688 L 245.105469 198.582031 L 244.585938 200.003906 C 241.875 207.410156 239.917969 212.761719 239.304688 216.863281 L 239.167969 217.761719 L 238.6875 216.988281 C 237.476562 215.058594 236.339844 212.929688 235.308594 210.667969 L 235.230469 210.496094 L 235.332031 210.34375 C 236.027344 209.296875 236.558594 208.335938 236.921875 207.484375 C 237.726562 205.597656 238.011719 203.835938 238.046875 202.339844 C 237.824219 203.78125 237.429688 204.992188 237.117188 205.796875 C 236.726562 206.792969 236.09375 207.949219 235.238281 209.226562 L 234.890625 209.742188 L 234.648438 209.171875 C 233.714844 206.980469 232.867188 204.644531 232.121094 202.230469 L 232.074219 202.070312 L 232.167969 201.9375 C 232.886719 200.914062 233.394531 200.03125 233.726562 199.246094 C 234.027344 198.535156 234.222656 197.855469 234.347656 197.214844 C 234.242188 197.558594 234.136719 197.863281 234.039062 198.109375 C 233.710938 198.964844 233.144531 199.972656 232.355469 201.101562 L 231.953125 201.679688 L 231.753906 201.003906 C 230.839844 197.851562 230.226562 195.007812 229.828125 192.765625 C 229.910156 194.085938 230.089844 195.679688 230.453125 197.566406 L 230.609375 198.371094 L 229.933594 197.910156 C 228.449219 196.890625 227.332031 195.96875 226.515625 195.089844 C 226.472656 195.039062 226.425781 194.988281 226.378906 194.941406 C 226.757812 195.429688 227.175781 195.917969 227.648438 196.398438 C 228.398438 197.167969 229.375 197.964844 230.625 198.835938 L 230.730469 198.910156 L 230.757812 199.039062 C 231.296875 201.4375 232.0625 204.050781 233.046875 206.8125 L 233.300781 207.527344 L 232.597656 207.234375 C 229.839844 206.085938 223.089844 203.078125 219.988281 199.9375 C 219.914062 199.859375 219.839844 199.78125 219.765625 199.703125 C 220.160156 200.203125 220.605469 200.703125 221.105469 201.183594 C 224.054688 204.015625 229.28125 206.640625 233.097656 208.554688 L 233.304688 208.65625 L 233.351562 208.78125 C 233.503906 209.179688 233.65625 209.585938 233.8125 209.996094 C 234.695312 212.335938 235.695312 214.984375 237.054688 217.839844 L 237.351562 218.464844 L 236.679688 218.3125 C 234.742188 217.882812 233.527344 217.367188 232.121094 216.769531 L 231.871094 216.664062 C 230.046875 215.890625 228.332031 214.957031 226.792969 213.910156 C 228.492188 215.367188 230.824219 216.960938 233.851562 218.179688 C 234.332031 218.375 234.703125 218.554688 235.0625 218.730469 C 235.726562 219.058594 236.304688 219.339844 237.347656 219.585938 L 237.503906 219.625 L 237.574219 219.765625 C 237.699219 220.015625 238.617188 225.125 238.628906 225.175781 L 238.734375 225.75 C 238.765625 225.839844 238.070312 225.480469 238.078125 225.484375 C 237.988281 225.421875 237.410156 225.117188 236.742188 224.765625 C 232.523438 222.542969 221.3125 216.640625 217.015625 211.53125 C 216.511719 210.90625 216.046875 210.1875 215.625 209.394531 C 216.21875 210.679688 217.019531 212.003906 218.09375 213.273438 C 220.617188 216.273438 224.488281 218.546875 228.230469 220.746094 L 229.566406 221.691406 L 228.257812 221.515625 C 221.945312 220.429688 216.410156 218.808594 211.722656 216.691406 C 213.546875 217.644531 216.0625 218.714844 219.570312 219.792969 L 220.421875 220.054688 L 219.582031 220.433594 C 218.984375 220.636719 218.425781 220.789062 217.917969 220.890625 C 217.496094 220.976562 217.070312 221.046875 216.636719 221.101562 C 217.703125 221.070312 218.75 220.941406 219.761719 220.726562 C 219.910156 220.695312 220.90625 220.277344 221.003906 220.234375 C 224.015625 221.132812 227.660156 222.074219 232.144531 223.105469 L 232.199219 223.117188 L 232.25 223.148438 C 232.898438 223.558594 233.472656 223.9375 234 224.308594 L 234.746094 224.835938 L 233.835938 224.921875 C 232.949219 225.003906 232.066406 225.238281 231.214844 225.613281 C 230.78125 225.804688 230.371094 226.066406 229.9375 226.34375 C 229.609375 226.554688 229.265625 226.773438 228.898438 226.96875 C 227.191406 227.875 225.3125 228.214844 223.9375 228.464844 C 223.160156 228.601562 222.359375 228.707031 221.550781 228.777344 C 221.558594 228.777344 221.566406 228.777344 221.574219 228.777344 C 223.054688 228.777344 224.527344 228.640625 225.949219 228.371094 L 225.976562 228.367188 L 227.125 228.1875 L 226.242188 228.964844 C 225.183594 229.761719 224.015625 230.582031 222.707031 231.175781 C 223.402344 230.9375 224.222656 230.601562 225.171875 230.117188 C 225.734375 229.832031 226.324219 229.511719 226.894531 229.207031 C 229.34375 227.886719 231.875 226.523438 234.105469 226.523438 C 235.664062 226.523438 236.933594 227.210938 237.882812 228.5625 C 238.804688 229.882812 239.027344 231.597656 239.113281 232.773438 C 239.503906 238.132812 238.5625 244.398438 235.648438 247.035156 C 236.285156 247.09375 237.101562 247.519531 237.722656 247.519531 C 237.890625 247.519531 238.605469 247.859375 238.734375 247.851562 C 241.472656 247.664062 243.6875 247.304688 246.382812 247.179688 C 245.867188 245.601562 244.25 239.90625 244.742188 236.25 C 245.578125 230.089844 250.242188 229.375 253.679688 229.375 C 254.050781 229.375 254.445312 229.382812 254.910156 229.402344 L 255.046875 229.40625 L 255.140625 229.503906 C 255.636719 230.023438 256.125 230.472656 256.59375 230.839844 C 257.398438 231.464844 258.242188 231.976562 259.0625 232.394531 C 258.550781 232.039062 258.105469 231.707031 257.753906 231.441406 C 257.332031 231.125 256.875 230.683594 256.3125 230.054688 L 255.757812 229.433594 L 256.589844 229.496094 C 256.894531 229.519531 257.203125 229.542969 257.519531 229.570312 C 258.507812 229.648438 259.53125 229.730469 260.628906 229.769531 C 261.160156 229.789062 261.675781 229.800781 262.15625 229.800781 C 262.84375 229.800781 263.453125 229.777344 263.988281 229.742188 C 261.917969 229.738281 259.699219 229.367188 257.558594 229.003906 C 256.078125 228.753906 254.546875 228.496094 253.105469 228.371094 L 251.886719 228.265625 L 252.988281 227.734375 C 253.449219 227.511719 253.875 227.277344 254.277344 227.035156 C 253.214844 227.507812 252.265625 227.800781 251.589844 227.972656 C 250.882812 228.144531 249.4375 228.425781 248.890625 228.535156 C 248.808594 228.550781 248.703125 228.570312 248.703125 228.570312 C 246.445312 229.050781 245.027344 230.042969 244.238281 230.789062 L 243.800781 231.199219 L 243.652344 230.484375 C 243.449219 229.535156 243.273438 228.710938 243.492188 228.09375 C 244.339844 225.660156 248.101562 222.210938 250.507812 220.539062 L 250.628906 220.457031 L 251.597656 220.675781 C 255.859375 221.640625 261.164062 222.84375 265.210938 222.84375 C 265.449219 222.839844 265.683594 222.835938 265.917969 222.828125 C 262.429688 222.664062 257.382812 221.691406 252.121094 220.15625 L 251.378906 219.941406 L 252.042969 219.546875 C 254.769531 217.921875 257.699219 216.828125 261.09375 215.5625 " fill-opacity="1" fill-rule="nonzero"/><path fill="#603814" d="M 228.195312 182.441406 C 228.191406 182.449219 225.851562 185.601562 229.339844 187.972656 C 229.339844 187.984375 231.714844 184.949219 228.195312 182.441406 " fill-opacity="1" fill-rule="nonzero"/><path fill="#603814" d="M 203.878906 207.734375 C 203.878906 207.746094 203.601562 210.277344 206.890625 210.082031 C 206.894531 210.097656 207.222656 207.503906 203.878906 207.734375 " fill-opacity="1" fill-rule="nonzero"/><path fill="#603814" d="M 207.367188 205.132812 C 207.371094 205.140625 207.226562 207.164062 209.863281 206.976562 C 209.863281 206.984375 210.058594 204.933594 207.367188 205.132812 " fill-opacity="1" fill-rule="nonzero"/><path fill="#603814" d="M 231.347656 183.386719 C 231.347656 183.386719 229.699219 184.886719 231.261719 186.582031 C 231.261719 186.582031 232.90625 185.167969 231.347656 183.386719 " fill-opacity="1" fill-rule="nonzero"/><path fill="#603814" d="M 232.46875 182.425781 C 232.46875 182.429688 232.03125 183.605469 233.355469 184.429688 C 233.441406 184.050781 233.796875 183.28125 232.46875 182.425781 " fill-opacity="1" fill-rule="nonzero"/><path fill="#603814" d="M 241.84375 181.878906 C 241.839844 181.867188 238.511719 183.945312 240.808594 187.542969 C 240.804688 187.53125 244.113281 185.640625 241.84375 181.878906 " fill-opacity="1" fill-rule="nonzero"/><path fill="#603814" d="M 245.351562 181.269531 C 245.347656 181.273438 243.03125 184.105469 246.566406 186.984375 C 246.5625 186.984375 248.914062 184.3125 245.351562 181.269531 " fill-opacity="1" fill-rule="nonzero"/><path fill="#603814" d="M 225.808594 186.5625 C 225.808594 186.578125 224.105469 189.976562 228.078125 191.683594 C 228.078125 191.699219 229.835938 188.355469 225.808594 186.5625 " fill-opacity="1" fill-rule="nonzero"/><path fill="#603814" d="M 233.195312 185.953125 C 233.191406 185.9375 229.394531 187.546875 230.628906 191.402344 C 230.628906 191.386719 234.367188 189.953125 233.195312 185.953125 " fill-opacity="1" fill-rule="nonzero"/><path fill="#603814" d="M 236.28125 186.652344 C 236.28125 186.644531 233.460938 187.746094 234.375 190.632812 C 234.375 190.625 237.148438 189.640625 236.28125 186.652344 " fill-opacity="1" fill-rule="nonzero"/><path fill="#603814" d="M 243.601562 187.4375 C 243.601562 187.429688 240.777344 188.347656 241.683594 191.292969 C 241.683594 191.285156 244.457031 190.480469 243.601562 187.4375 " fill-opacity="1" fill-rule="nonzero"/><path fill="#603814" d="M 236.019531 181.613281 C 236.015625 181.601562 233.195312 182.714844 234.109375 185.601562 C 234.105469 185.589844 236.886719 184.597656 236.019531 181.613281 " fill-opacity="1" fill-rule="nonzero"/><path fill="#603814" d="M 238.328125 191.863281 C 238.328125 191.851562 235.316406 192.234375 235.335938 195.273438 C 235.335938 195.265625 238.273438 194.960938 238.328125 191.863281 " fill-opacity="1" fill-rule="nonzero"/><path fill="#603814" d="M 244.304688 189.039062 C 244.304688 189.042969 242.953125 190.921875 245.429688 192.390625 C 245.429688 192.394531 246.808594 190.59375 244.304688 189.039062 " fill-opacity="1" fill-rule="nonzero"/><path fill="#603814" d="M 212.65625 192.988281 C 212.660156 193 212.097656 195.246094 214.878906 195.230469 C 214.878906 195.238281 215.488281 192.980469 212.65625 192.988281 " fill-opacity="1" fill-rule="nonzero"/><path fill="#603814" d="M 237.425781 195.796875 C 237.425781 195.789062 234.835938 196.003906 234.992188 198.566406 C 234.992188 198.558594 237.519531 198.414062 237.425781 195.796875 " fill-opacity="1" fill-rule="nonzero"/><path fill="#603814" d="M 249.558594 185.878906 C 249.558594 185.867188 246.964844 185.796875 247.105469 188.367188 C 247.105469 188.359375 249.640625 188.480469 249.558594 185.878906 " fill-opacity="1" fill-rule="nonzero"/><path fill="#603814" d="M 240.464844 196 C 240.464844 195.996094 238.375 196.257812 238.683594 198.332031 C 238.683594 198.324219 240.730469 198.125 240.464844 196 " fill-opacity="1" fill-rule="nonzero"/><path fill="#603814" d="M 240.484375 191.675781 C 240.484375 191.683594 240.375 189.808594 237.996094 189.910156 C 237.996094 189.917969 238.046875 191.707031 240.484375 191.675781 " fill-opacity="1" fill-rule="nonzero"/><path fill="#603814" d="M 240.953125 193.910156 C 240.953125 193.917969 240.859375 192.285156 238.785156 192.359375 C 238.785156 192.363281 238.828125 193.929688 240.953125 193.910156 " fill-opacity="1" fill-rule="nonzero"/><path fill="#603814" d="M 241.738281 195.199219 C 241.738281 195.199219 241.199219 193.976562 239.648438 194.488281 C 239.648438 194.488281 240.136719 195.667969 241.738281 195.199219 " fill-opacity="1" fill-rule="nonzero"/><path fill="#603814" d="M 243.550781 198.054688 C 243.550781 198.058594 242.835938 196.414062 240.765625 197.074219 C 240.765625 197.078125 241.417969 198.65625 243.550781 198.054688 " fill-opacity="1" fill-rule="nonzero"/><path fill="#603814" d="M 239.011719 193.878906 C 239.007812 193.875 237.066406 194.625 237.972656 196.542969 C 237.972656 196.539062 239.890625 195.867188 239.011719 193.878906 " fill-opacity="1" fill-rule="nonzero"/><path fill="#603814" d="M 244.417969 186.199219 C 244.417969 186.203125 243.570312 187.851562 245.742188 188.816406 C 245.742188 188.820312 246.621094 187.226562 244.417969 186.199219 " fill-opacity="1" fill-rule="nonzero"/><g clip-path="url(#cf9d5eb387)"><path fill="#603814" d="M 237.648438 180.582031 C 237.648438 180.585938 236.804688 182.285156 238.984375 183.125 C 238.980469 183.128906 239.859375 181.472656 237.648438 180.582031 " fill-opacity="1" fill-rule="nonzero"/></g><path fill="#603814" d="M 225.117188 183.644531 C 225.117188 183.652344 224.285156 185.433594 226.453125 186.011719 C 226.453125 186.015625 227.3125 184.269531 225.117188 183.644531 " fill-opacity="1" fill-rule="nonzero"/><path fill="#603814" d="M 236.566406 202.589844 C 236.566406 202.589844 238.148438 200.75 235.867188 199.210938 C 235.867188 199.214844 234.269531 200.976562 236.566406 202.589844 " fill-opacity="1" fill-rule="nonzero"/><path fill="#603814" d="M 240.125 189.316406 C 240.125 189.324219 240.609375 187.0625 237.738281 186.582031 C 237.738281 186.589844 237.199219 188.746094 240.125 189.316406 " fill-opacity="1" fill-rule="nonzero"/><path fill="#603814" d="M 238.9375 200.832031 C 238.9375 200.828125 241.183594 200.722656 241.066406 198.5 C 241.066406 198.496094 238.867188 198.546875 238.9375 200.832031 " fill-opacity="1" fill-rule="nonzero"/><path fill="#603814" d="M 230.125 211.207031 C 230.125 211.203125 232.355469 210.964844 232.234375 208.753906 C 232.234375 208.746094 230.046875 208.933594 230.125 211.207031 " fill-opacity="1" fill-rule="nonzero"/><path fill="#603814" d="M 235 192.382812 C 235 192.375 237.253906 192.203125 237.136719 189.984375 C 237.132812 189.976562 234.929688 190.101562 235 192.382812 " fill-opacity="1" fill-rule="nonzero"/><path fill="#603814" d="M 236.34375 185.898438 C 236.34375 185.890625 238.601562 185.742188 238.484375 183.523438 C 238.484375 183.515625 236.273438 183.613281 236.34375 185.898438 " fill-opacity="1" fill-rule="nonzero"/><path fill="#603814" d="M 234.59375 202.707031 C 234.589844 202.714844 233.53125 204.949219 236.34375 205.957031 C 236.34375 205.960938 237.445312 203.78125 234.59375 202.707031 " fill-opacity="1" fill-rule="nonzero"/><path fill="#603814" d="M 231.6875 193.871094 C 231.683594 193.878906 230.625 196.136719 233.445312 197.066406 C 233.445312 197.074219 234.550781 194.863281 231.6875 193.871094 " fill-opacity="1" fill-rule="nonzero"/><path fill="#603814" d="M 232.21875 191.53125 C 232.21875 191.535156 231.605469 193.484375 234.070312 194 C 234.070312 194.007812 234.730469 192.089844 232.21875 191.53125 " fill-opacity="1" fill-rule="nonzero"/><path fill="#603814" d="M 243.257812 191.945312 C 243.257812 191.949219 242.183594 194.109375 245.003906 195.308594 C 245.003906 195.3125 246.121094 193.21875 243.257812 191.945312 " fill-opacity="1" fill-rule="nonzero"/><path fill="#603814" d="M 243.726562 211.28125 C 243.726562 211.28125 242.386719 213.1875 244.839844 214.609375 C 244.839844 214.609375 246.207031 212.785156 243.726562 211.28125 " fill-opacity="1" fill-rule="nonzero"/><path fill="#603814" d="M 244.660156 209.277344 C 244.660156 209.277344 243.820312 210.941406 245.96875 211.875 C 245.96875 211.875 246.84375 210.269531 244.660156 209.277344 " fill-opacity="1" fill-rule="nonzero"/><path fill="#603814" d="M 242.6875 214.203125 C 242.6875 214.207031 241.625 216.390625 244.421875 217.535156 C 244.417969 217.539062 245.527344 215.425781 242.6875 214.203125 " fill-opacity="1" fill-rule="nonzero"/><path fill="#603814" d="M 242.652344 217.578125 C 242.652344 217.582031 241.589844 219.765625 244.382812 220.90625 C 244.378906 220.910156 245.488281 218.792969 242.652344 217.578125 " fill-opacity="1" fill-rule="nonzero"/><path fill="#603814" d="M 240.769531 205.199219 C 240.769531 205.191406 238.054688 204.964844 237.726562 207.667969 C 237.726562 207.660156 240.367188 207.933594 240.769531 205.199219 " fill-opacity="1" fill-rule="nonzero"/><path fill="#603814" d="M 238.820312 203.542969 C 238.820312 203.535156 241.34375 204.195312 242.214844 201.726562 C 242.214844 201.722656 239.765625 200.992188 238.820312 203.542969 " fill-opacity="1" fill-rule="nonzero"/><path fill="#603814" d="M 246.171875 198.277344 C 246.175781 198.273438 248.691406 199.089844 249.59375 196.703125 C 249.59375 196.699219 247.152344 195.800781 246.171875 198.277344 " fill-opacity="1" fill-rule="nonzero"/><path fill="#603814" d="M 247.082031 195.699219 C 247.085938 195.691406 249.703125 196.109375 250.046875 193.578125 C 250.046875 193.570312 247.492188 193.078125 247.082031 195.699219 " fill-opacity="1" fill-rule="nonzero"/><path fill="#603814" d="M 247.1875 192.839844 C 247.1875 192.832031 249.796875 193.359375 250.269531 190.859375 C 250.269531 190.851562 247.730469 190.246094 247.1875 192.839844 " fill-opacity="1" fill-rule="nonzero"/><path fill="#603814" d="M 247.402344 190.335938 C 247.402344 190.328125 250.011719 190.871094 250.488281 188.371094 C 250.488281 188.367188 247.949219 187.746094 247.402344 190.335938 " fill-opacity="1" fill-rule="nonzero"/><path fill="#603814" d="M 257.183594 184.609375 C 257.183594 184.597656 254.738281 185.816406 256.492188 188.691406 C 256.492188 188.683594 258.917969 187.59375 257.183594 184.609375 " fill-opacity="1" fill-rule="nonzero"/><path fill="#603814" d="M 254.589844 200.921875 C 254.589844 200.925781 252.5 199.136719 250.230469 200.835938 C 250.230469 200.839844 252.226562 202.527344 254.589844 200.921875 " fill-opacity="1" fill-rule="nonzero"/><path fill="#603814" d="M 252.894531 202.730469 C 252.894531 202.730469 250.539062 201.28125 248.65625 203.34375 C 248.65625 203.34375 250.910156 204.726562 252.894531 202.730469 " fill-opacity="1" fill-rule="nonzero"/><path fill="#603814" d="M 249.933594 204.769531 C 249.9375 204.769531 247.488281 203.519531 245.78125 205.75 C 245.78125 205.75 248.132812 206.949219 249.933594 204.769531 " fill-opacity="1" fill-rule="nonzero"/><path fill="#603814" d="M 253.570312 189.703125 C 253.570312 189.699219 251.585938 190.914062 253.425781 193.089844 C 253.421875 193.085938 255.40625 191.972656 253.570312 189.703125 " fill-opacity="1" fill-rule="nonzero"/><path fill="#603814" d="M 259.339844 189.515625 C 259.339844 189.511719 257.039062 188.570312 256.300781 190.71875 C 256.300781 190.714844 258.53125 191.636719 259.339844 189.515625 " fill-opacity="1" fill-rule="nonzero"/><path fill="#603814" d="M 254.71875 187.21875 C 254.71875 187.214844 253.300781 188.382812 255.03125 190.015625 C 255.03125 190.015625 256.457031 188.929688 254.71875 187.21875 " fill-opacity="1" fill-rule="nonzero"/><path fill="#603814" d="M 259.882812 200.207031 C 259.882812 200.203125 258.148438 200.953125 259.429688 202.847656 C 259.429688 202.84375 261.152344 202.171875 259.882812 200.207031 " fill-opacity="1" fill-rule="nonzero"/><path fill="#603814" d="M 261.566406 198.742188 C 261.566406 198.738281 259.835938 199.453125 261.113281 201.367188 C 261.113281 201.359375 262.832031 200.722656 261.566406 198.742188 " fill-opacity="1" fill-rule="nonzero"/><g clip-path="url(#0932647968)"><path fill="#603814" d="M 243.234375 180.527344 C 243.234375 180.527344 241.847656 181.816406 243.554688 183.257812 C 243.554688 183.257812 244.949219 182.042969 243.234375 180.527344 " fill-opacity="1" fill-rule="nonzero"/></g><path fill="#603814" d="M 266.402344 192.089844 C 266.40625 192.082031 264.089844 192.164062 264.859375 194.589844 C 264.859375 194.582031 267.132812 194.5625 266.402344 192.089844 " fill-opacity="1" fill-rule="nonzero"/><path fill="#603814" d="M 267.792969 204.605469 C 267.792969 204.601562 266.433594 205.59375 268.082031 207.257812 C 268.082031 207.253906 269.445312 206.34375 267.792969 204.605469 " fill-opacity="1" fill-rule="nonzero"/><path fill="#603814" d="M 274.707031 207.929688 C 274.710938 207.925781 272.730469 207.253906 272.488281 209.09375 C 272.488281 209.09375 274.417969 209.761719 274.707031 207.929688 " fill-opacity="1" fill-rule="nonzero"/><path fill="#603814" d="M 272.652344 199.605469 C 272.652344 199.597656 270.292969 198.886719 270.160156 201.136719 C 270.164062 201.128906 272.464844 201.84375 272.652344 199.605469 " fill-opacity="1" fill-rule="nonzero"/><path fill="#603814" d="M 270.339844 196.09375 C 270.339844 196.085938 268.070312 195.800781 268.433594 198.09375 C 268.433594 198.085938 270.65625 198.40625 270.339844 196.09375 " fill-opacity="1" fill-rule="nonzero"/><path fill="#603814" d="M 273.839844 210.109375 C 273.839844 210.109375 272.007812 209 271.109375 210.558594 C 271.113281 210.5625 272.886719 211.632812 273.839844 210.109375 " fill-opacity="1" fill-rule="nonzero"/><path fill="#603814" d="M 270.523438 207.367188 C 270.523438 207.359375 268.667969 207.59375 269.480469 209.566406 C 269.480469 209.5625 271.3125 209.386719 270.523438 207.367188 " fill-opacity="1" fill-rule="nonzero"/><path fill="#603814" d="M 263.398438 189.707031 C 263.398438 189.703125 261.902344 190.570312 263.417969 192.355469 C 263.417969 192.351562 264.914062 191.5625 263.398438 189.707031 " fill-opacity="1" fill-rule="nonzero"/><path fill="#603814" d="M 259.722656 186.925781 C 259.726562 186.917969 257.707031 186.832031 258.03125 188.863281 C 258.03125 188.859375 260.007812 188.988281 259.722656 186.925781 " fill-opacity="1" fill-rule="nonzero"/><path fill="#603814" d="M 268.429688 208.957031 C 268.429688 208.953125 266.566406 209.234375 267.382812 211.203125 C 267.382812 211.195312 269.21875 210.972656 268.429688 208.957031 " fill-opacity="1" fill-rule="nonzero"/><path fill="#603814" d="M 271.332031 213.839844 C 271.332031 213.84375 270.148438 212.210938 268.320312 212.988281 C 268.320312 212.992188 269.441406 214.5625 271.332031 213.839844 " fill-opacity="1" fill-rule="nonzero"/><path fill="#603814" d="M 269.726562 215.378906 C 269.726562 215.386719 268.980469 213.640625 266.875 213.96875 C 266.875 213.976562 267.5625 215.65625 269.726562 215.378906 " fill-opacity="1" fill-rule="nonzero"/><path fill="#603814" d="M 266.347656 218.234375 C 266.347656 218.238281 265.597656 216.5 263.484375 216.910156 C 263.484375 216.914062 264.175781 218.589844 266.347656 218.234375 " fill-opacity="1" fill-rule="nonzero"/><path fill="#603814" d="M 269.628906 218.765625 C 269.628906 218.769531 268.882812 217.035156 266.78125 217.390625 C 266.78125 217.398438 267.464844 219.070312 269.628906 218.765625 " fill-opacity="1" fill-rule="nonzero"/><path fill="#603814" d="M 272.652344 214.613281 C 272.652344 214.609375 270.660156 214.238281 270.699219 216.167969 C 270.699219 216.164062 272.648438 216.550781 272.652344 214.613281 " fill-opacity="1" fill-rule="nonzero"/><path fill="#603814" d="M 273.152344 217.867188 C 273.152344 217.871094 271.660156 216.429688 270.152344 217.574219 C 270.152344 217.578125 271.582031 218.960938 273.152344 217.867188 " fill-opacity="1" fill-rule="nonzero"/><path fill="#603814" d="M 272.753906 211.917969 C 272.753906 211.921875 271.082031 210.613281 269.839844 211.960938 C 269.839844 211.964844 271.453125 213.222656 272.753906 211.917969 " fill-opacity="1" fill-rule="nonzero"/><path fill="#603814" d="M 260.726562 213.390625 C 260.726562 213.394531 259.644531 211.753906 257.703125 212.578125 C 257.703125 212.582031 258.722656 214.164062 260.726562 213.390625 " fill-opacity="1" fill-rule="nonzero"/><path fill="#603814" d="M 262.867188 212.777344 C 262.867188 212.78125 261.789062 211.128906 259.847656 211.914062 C 259.847656 211.917969 260.863281 213.507812 262.867188 212.777344 " fill-opacity="1" fill-rule="nonzero"/><path fill="#603814" d="M 264.601562 211.707031 C 264.601562 211.710938 263.628906 210.203125 261.871094 210.878906 C 261.871094 210.882812 262.789062 212.335938 264.601562 211.707031 " fill-opacity="1" fill-rule="nonzero"/><path fill="#603814" d="M 265.285156 210.0625 C 265.285156 210.0625 264.164062 209.191406 263.269531 210.132812 C 263.273438 210.132812 264.34375 210.984375 265.285156 210.0625 " fill-opacity="1" fill-rule="nonzero"/><path fill="#603814" d="M 260.589844 207.597656 C 260.589844 207.589844 258.3125 208.300781 259.597656 210.710938 C 259.597656 210.703125 261.847656 210.085938 260.589844 207.597656 " fill-opacity="1" fill-rule="nonzero"/><path fill="#603814" d="M 262.484375 206.992188 C 262.484375 206.984375 260.652344 207.554688 261.730469 209.519531 C 261.730469 209.511719 263.542969 209.011719 262.484375 206.992188 " fill-opacity="1" fill-rule="nonzero"/><path fill="#603814" d="M 258.195312 208.394531 C 258.195312 208.390625 256.355469 209.03125 257.441406 210.976562 C 257.441406 210.96875 259.261719 210.398438 258.195312 208.394531 " fill-opacity="1" fill-rule="nonzero"/><path fill="#603814" d="M 250.347656 194.871094 C 250.347656 194.871094 248.933594 196.113281 250.664062 197.671875 C 250.664062 197.671875 252.089844 196.503906 250.347656 194.871094 " fill-opacity="1" fill-rule="nonzero"/><path fill="#603814" d="M 246.574219 198.949219 C 246.574219 198.949219 245.160156 200.246094 246.894531 201.75 C 246.894531 201.75 248.316406 200.527344 246.574219 198.949219 " fill-opacity="1" fill-rule="nonzero"/><path fill="#603814" d="M 251.507812 191.941406 C 251.507812 191.9375 249.6875 193.542969 251.953125 195.574219 C 251.953125 195.570312 253.785156 194.074219 251.507812 191.941406 " fill-opacity="1" fill-rule="nonzero"/><path fill="#603814" d="M 252.199219 198.695312 C 252.203125 198.699219 254.332031 200.234375 256.082031 198.398438 C 256.082031 198.402344 254.042969 196.777344 252.199219 198.695312 " fill-opacity="1" fill-rule="nonzero"/><path fill="#603814" d="M 246.992188 210.859375 C 246.992188 210.847656 250.472656 210.277344 249.53125 206.773438 C 249.53125 206.757812 246.105469 207.25 246.992188 210.859375 " fill-opacity="1" fill-rule="nonzero"/><path fill="#603814" d="M 262.226562 201.375 C 262.230469 201.367188 265.730469 202.535156 266.464844 199.347656 C 266.464844 199.335938 263.066406 198.03125 262.226562 201.375 " fill-opacity="1" fill-rule="nonzero"/><path fill="#603814" d="M 264.976562 198.226562 C 264.976562 198.207031 268.484375 198.582031 267.996094 195.101562 C 268 195.085938 264.554688 194.613281 264.976562 198.226562 " fill-opacity="1" fill-rule="nonzero"/><path fill="#603814" d="M 263.628906 209.164062 C 263.628906 209.148438 267.015625 208.867188 265.898438 205.375 C 265.902344 205.359375 262.558594 205.5625 263.628906 209.164062 " fill-opacity="1" fill-rule="nonzero"/><path fill="#603814" d="M 269.179688 207.046875 C 269.183594 207.039062 271.671875 206.960938 270.851562 204.378906 C 270.855469 204.371094 268.398438 204.386719 269.179688 207.046875 " fill-opacity="1" fill-rule="nonzero"/><path fill="#603814" d="M 264.691406 204.980469 C 264.691406 204.972656 267.195312 204.808594 266.371094 202.210938 C 266.371094 202.203125 263.898438 202.308594 264.691406 204.980469 " fill-opacity="1" fill-rule="nonzero"/><path fill="#603814" d="M 272.507812 207.183594 C 272.511719 207.164062 275.472656 206.644531 273.777344 203.351562 C 273.777344 203.335938 270.839844 203.800781 272.507812 207.183594 " fill-opacity="1" fill-rule="nonzero"/><path fill="#603814" d="M 260.558594 193.171875 C 260.558594 193.164062 263.226562 191.839844 260.859375 188.757812 C 260.859375 188.75 258.195312 190.019531 260.558594 193.171875 " fill-opacity="1" fill-rule="nonzero"/><path fill="#603814" d="M 248.050781 185.257812 C 248.050781 185.25 250.554688 184.871094 249.804688 182.34375 C 249.804688 182.332031 247.339844 182.65625 248.050781 185.257812 " fill-opacity="1" fill-rule="nonzero"/><path fill="#603814" d="M 254.71875 186.550781 C 254.71875 186.554688 255.929688 184.734375 253.367188 183.171875 C 253.367188 183.175781 252.128906 184.921875 254.71875 186.550781 " fill-opacity="1" fill-rule="nonzero"/><path fill="#603814" d="M 256.402344 198.652344 C 256.40625 198.640625 259.929688 199.671875 260.667969 196.394531 C 260.671875 196.382812 257.242188 195.222656 256.402344 198.652344 " fill-opacity="1" fill-rule="nonzero"/><path fill="#603814" d="M 253.488281 196.421875 C 253.488281 196.421875 255.460938 197.875 257.082031 196.195312 C 257.082031 196.199219 255.195312 194.671875 253.488281 196.421875 " fill-opacity="1" fill-rule="nonzero"/><path fill="#603814" d="M 254.863281 194.414062 C 254.863281 194.414062 257.023438 195.65625 258.296875 193.769531 C 258.300781 193.769531 256.222656 192.449219 254.863281 194.414062 " fill-opacity="1" fill-rule="nonzero"/><path fill="#603814" d="M 260.957031 193.441406 C 260.957031 193.433594 258.582031 193.417969 259.0625 195.828125 C 259.0625 195.820312 261.390625 195.890625 260.957031 193.441406 " fill-opacity="1" fill-rule="nonzero"/><path fill="#603814" d="M 266.957031 201.796875 C 266.957031 201.777344 270.417969 202.21875 269.898438 198.808594 C 269.902344 198.789062 266.507812 198.253906 266.957031 201.796875 " fill-opacity="1" fill-rule="nonzero"/><path fill="#603814" d="M 267.875 203.894531 C 267.878906 203.886719 271.195312 205.132812 271.800781 202.144531 C 271.804688 202.136719 268.585938 200.761719 267.875 203.894531 " fill-opacity="1" fill-rule="nonzero"/><path fill="#603814" d="M 255.898438 192.425781 C 255.898438 192.425781 258.058594 193.691406 259.332031 191.828125 C 259.335938 191.828125 257.257812 190.484375 255.898438 192.425781 " fill-opacity="1" fill-rule="nonzero"/><path fill="#603814" d="M 249.792969 210.964844 C 249.792969 210.960938 247.742188 210.535156 247.324219 212.546875 C 247.324219 212.542969 249.316406 212.992188 249.792969 210.964844 " fill-opacity="1" fill-rule="nonzero"/><path fill="#603814" d="M 246.589844 216.652344 C 246.589844 216.648438 249 217.226562 249.640625 214.890625 C 249.644531 214.886719 247.300781 214.238281 246.589844 216.652344 " fill-opacity="1" fill-rule="nonzero"/><path fill="#603814" d="M 246.6875 218.550781 C 246.6875 218.546875 249.054688 219.46875 250.140625 217.199219 C 250.140625 217.199219 247.855469 216.207031 246.6875 218.550781 " fill-opacity="1" fill-rule="nonzero"/><path fill="#603814" d="M 246.894531 214.429688 C 246.894531 214.425781 248.960938 214.921875 249.5 212.917969 C 249.5 212.917969 247.496094 212.367188 246.894531 214.429688 " fill-opacity="1" fill-rule="nonzero"/><path fill="#603814" d="M 259.03125 199.574219 C 259.03125 199.570312 257.152344 198.585938 256.214844 200.308594 C 256.214844 200.304688 258.027344 201.269531 259.03125 199.574219 " fill-opacity="1" fill-rule="nonzero"/><path fill="#603814" d="M 255.765625 202.335938 C 255.765625 202.335938 257.605469 203.40625 258.730469 201.789062 C 258.730469 201.789062 256.960938 200.660156 255.765625 202.335938 " fill-opacity="1" fill-rule="nonzero"/><path fill="#603814" d="M 260.742188 203.050781 C 260.742188 203.050781 262.570312 204.179688 263.6875 202.625 C 263.691406 202.628906 261.933594 201.4375 260.742188 203.050781 " fill-opacity="1" fill-rule="nonzero"/><path fill="#603814" d="M 259.886719 204.464844 C 259.886719 204.46875 261.574219 205.757812 262.949219 204.371094 C 262.949219 204.375 261.339844 203.03125 259.886719 204.464844 " fill-opacity="1" fill-rule="nonzero"/><path fill="#603814" d="M 258.855469 206.183594 C 258.859375 206.183594 260.542969 207.457031 261.921875 206.050781 C 261.921875 206.050781 260.3125 204.726562 258.855469 206.183594 " fill-opacity="1" fill-rule="nonzero"/><path fill="#603814" d="M 251.453125 204.730469 C 251.453125 204.734375 251.382812 206.542969 253.726562 206.859375 C 253.726562 206.863281 253.855469 205.082031 251.453125 204.730469 " fill-opacity="1" fill-rule="nonzero"/><path fill="#603814" d="M 251.214844 206.917969 C 251.214844 206.921875 251.128906 209.070312 253.914062 209.4375 C 253.914062 209.441406 254.066406 207.324219 251.214844 206.917969 " fill-opacity="1" fill-rule="nonzero"/><path fill="#603814" d="M 255.179688 204.609375 C 255.179688 204.605469 257.179688 205.335938 257.855469 203.480469 C 257.855469 203.476562 255.917969 202.6875 255.179688 204.609375 " fill-opacity="1" fill-rule="nonzero"/><g clip-path="url(#862f8d6132)"><path fill="#603814" d="M 202.585938 210.859375 C 202.589844 210.878906 202.554688 214.15625 207.019531 213.613281 C 207.027344 213.632812 207.128906 210.203125 202.585938 210.859375 " fill-opacity="1" fill-rule="nonzero"/></g><path fill="#603814" d="M 213.765625 195.292969 C 213.765625 195.300781 210.953125 198.136719 213.480469 200.652344 C 213.480469 200.65625 216.292969 197.960938 213.765625 195.292969 " fill-opacity="1" fill-rule="nonzero"/><path fill="#603814" d="M 263.105469 192.984375 C 263.105469 192.96875 260.230469 194.632812 262.730469 198.199219 C 262.730469 198.183594 265.59375 196.707031 263.105469 192.984375 " fill-opacity="1" fill-rule="nonzero"/><path fill="#603814" d="M 251.945312 184.589844 C 251.945312 184.578125 249.035156 186.539062 251.582031 189.960938 C 251.582031 189.949219 254.480469 188.171875 251.945312 184.589844 " fill-opacity="1" fill-rule="nonzero"/><path fill="#603814" d="M 219.542969 189.1875 C 219.542969 189.1875 217.847656 190.707031 219.207031 192.300781 C 219.207031 192.300781 220.894531 190.863281 219.542969 189.1875 " fill-opacity="1" fill-rule="nonzero"/><path fill="#603814" d="M 219.589844 187.632812 C 219.589844 187.640625 219.242188 189.574219 221.65625 189.78125 C 221.660156 189.789062 222.050781 187.855469 219.589844 187.632812 " fill-opacity="1" fill-rule="nonzero"/><path fill="#603814" d="M 222.5625 185.242188 C 222.5625 185.25 220.425781 188.363281 223.789062 190.371094 C 223.789062 190.378906 225.960938 187.363281 222.5625 185.242188 " fill-opacity="1" fill-rule="nonzero"/><path fill="#603814" d="M 205.589844 202.792969 C 205.59375 202.800781 206.058594 205.234375 209.570312 204.289062 C 209.574219 204.304688 209.179688 201.757812 205.589844 202.792969 " fill-opacity="1" fill-rule="nonzero"/><path fill="#603814" d="M 218.941406 206.941406 C 218.941406 206.953125 218.816406 209.550781 222.1875 209.617188 C 222.191406 209.628906 222.386719 207 218.941406 206.941406 " fill-opacity="1" fill-rule="nonzero"/><path fill="#603814" d="M 216.449219 189.84375 C 216.449219 189.855469 213.925781 193.078125 217.140625 195.296875 C 217.140625 195.308594 219.6875 192.195312 216.449219 189.84375 " fill-opacity="1" fill-rule="nonzero"/><path fill="#603814" d="M 203.1875 215.328125 C 203.191406 215.335938 204.503906 218.132812 208.902344 216.382812 C 208.90625 216.390625 207.679688 213.40625 203.1875 215.328125 " fill-opacity="1" fill-rule="nonzero"/><path fill="#603814" d="M 208.289062 209.859375 C 208.289062 209.878906 206.703125 213.304688 210.621094 214.496094 C 210.621094 214.515625 212.253906 211.089844 208.289062 209.859375 " fill-opacity="1" fill-rule="nonzero"/><path fill="#603814" d="M 221.148438 212.320312 C 221.148438 212.324219 221.734375 214.417969 224.542969 213.59375 C 224.542969 213.601562 224.03125 211.46875 221.148438 212.320312 " fill-opacity="1" fill-rule="nonzero"/><path fill="#603814" d="M 221.617188 196.542969 C 221.613281 196.542969 219.546875 198.308594 221.40625 200.101562 C 221.402344 200.101562 223.472656 198.429688 221.617188 196.542969 " fill-opacity="1" fill-rule="nonzero"/><path fill="#603814" d="M 219.703125 216.734375 C 219.703125 216.742188 218.875 214.289062 215.640625 215.546875 C 215.640625 215.550781 216.363281 217.882812 219.703125 216.734375 " fill-opacity="1" fill-rule="nonzero"/><path fill="#603814" d="M 220.078125 194.835938 C 220.078125 194.835938 218.277344 196.289062 219.746094 197.839844 C 219.746094 197.839844 221.542969 196.464844 220.078125 194.835938 " fill-opacity="1" fill-rule="nonzero"/><path fill="#603814" d="M 223.753906 192.597656 C 223.753906 192.601562 222.921875 190.550781 220.175781 191.785156 C 220.175781 191.789062 220.917969 193.730469 223.753906 192.597656 " fill-opacity="1" fill-rule="nonzero"/><path fill="#603814" d="M 225.21875 195.03125 C 225.21875 195.035156 224.386719 192.96875 221.636719 194.152344 C 221.636719 194.160156 222.378906 196.121094 225.21875 195.03125 " fill-opacity="1" fill-rule="nonzero"/><path fill="#603814" d="M 226.75 196.847656 C 226.75 196.851562 226.167969 195.394531 224.238281 196.179688 C 224.238281 196.179688 224.757812 197.582031 226.75 196.847656 " fill-opacity="1" fill-rule="nonzero"/><path fill="#603814" d="M 228.574219 195.992188 C 228.574219 195.992188 229.929688 194.824219 228.597656 193.582031 C 228.597656 193.582031 227.242188 194.699219 228.574219 195.992188 " fill-opacity="1" fill-rule="nonzero"/><path fill="#603814" d="M 230.800781 205.710938 C 230.800781 205.710938 232.160156 204.578125 230.828125 203.296875 C 230.828125 203.296875 229.472656 204.382812 230.800781 205.710938 " fill-opacity="1" fill-rule="nonzero"/><path fill="#603814" d="M 253.847656 211.585938 C 253.847656 211.589844 254.128906 210.046875 252.128906 209.585938 C 252.128906 209.585938 251.8125 211.070312 253.847656 211.585938 " fill-opacity="1" fill-rule="nonzero"/><path fill="#603814" d="M 228.507812 198.519531 C 228.507812 198.523438 227.929688 197.054688 225.992188 197.808594 C 225.992188 197.808594 226.515625 199.222656 228.507812 198.519531 " fill-opacity="1" fill-rule="nonzero"/><path fill="#603814" d="M 226.027344 193.007812 C 226.027344 193.007812 227.152344 191.796875 225.769531 190.828125 C 225.769531 190.828125 224.640625 191.992188 226.027344 193.007812 " fill-opacity="1" fill-rule="nonzero"/><path fill="#603814" d="M 227.480469 199.671875 C 227.480469 199.671875 228.285156 200.878906 229.945312 199.976562 C 229.945312 199.980469 229.195312 198.75 227.480469 199.671875 " fill-opacity="1" fill-rule="nonzero"/><path fill="#603814" d="M 227.054688 194.445312 C 227.050781 194.445312 228.472656 193.53125 227.492188 192.214844 C 227.492188 192.214844 226.082031 193.082031 227.054688 194.445312 " fill-opacity="1" fill-rule="nonzero"/><path fill="#603814" d="M 216.421875 203.457031 C 216.421875 203.453125 214.167969 204.6875 215.210938 206.722656 C 215.210938 206.722656 217.4375 205.585938 216.421875 203.457031 " fill-opacity="1" fill-rule="nonzero"/><path fill="#603814" d="M 217.53125 205.617188 C 217.53125 205.613281 215.277344 206.820312 216.320312 208.875 C 216.316406 208.871094 218.546875 207.765625 217.53125 205.617188 " fill-opacity="1" fill-rule="nonzero"/><path fill="#603814" d="M 217.980469 208.144531 C 217.980469 208.144531 216.359375 209.414062 217.65625 210.824219 C 217.65625 210.828125 219.269531 209.628906 217.980469 208.144531 " fill-opacity="1" fill-rule="nonzero"/><path fill="#603814" d="M 210.984375 217.714844 C 210.984375 217.714844 209.949219 216.429688 208.046875 217.789062 C 208.046875 217.789062 209.003906 219.039062 210.984375 217.714844 " fill-opacity="1" fill-rule="nonzero"/><path fill="#603814" d="M 216.128906 219.839844 C 216.132812 219.839844 215.089844 218.492188 213.171875 219.789062 C 213.171875 219.789062 214.136719 221.097656 216.128906 219.839844 " fill-opacity="1" fill-rule="nonzero"/><path fill="#603814" d="M 212.8125 216.335938 C 212.8125 216.339844 213.667969 214.621094 211.664062 214.121094 C 211.664062 214.125 210.78125 215.769531 212.8125 216.335938 " fill-opacity="1" fill-rule="nonzero"/><path fill="#603814" d="M 214.898438 217.203125 C 214.898438 217.207031 215.757812 215.5 213.75 214.957031 C 213.75 214.964844 212.867188 216.597656 214.898438 217.203125 " fill-opacity="1" fill-rule="nonzero"/><path fill="#603814" d="M 215.488281 212.238281 C 215.488281 212.238281 214.542969 210.410156 212.003906 211.777344 C 212.007812 211.777344 212.859375 213.53125 215.488281 212.238281 " fill-opacity="1" fill-rule="nonzero"/><path fill="#603814" d="M 215.515625 201.175781 C 215.515625 201.175781 213.632812 202.308594 214.601562 203.976562 C 214.601562 203.976562 216.464844 202.925781 215.515625 201.175781 " fill-opacity="1" fill-rule="nonzero"/><path fill="#603814" d="M 222.0625 218.121094 C 222.0625 218.121094 221.015625 216.824219 219.214844 218.054688 C 219.214844 218.054688 220.191406 219.320312 222.0625 218.121094 " fill-opacity="1" fill-rule="nonzero"/><path fill="#603814" d="M 221.875 230.488281 C 221.875 230.488281 220.832031 229.171875 219.039062 230.355469 C 219.039062 230.355469 220.011719 231.644531 221.875 230.488281 " fill-opacity="1" fill-rule="nonzero"/><path fill="#603814" d="M 208.316406 207.847656 C 208.316406 207.851562 208.589844 209.53125 210.894531 208.804688 C 210.898438 208.8125 210.675781 207.097656 208.316406 207.847656 " fill-opacity="1" fill-rule="nonzero"/><path fill="#603814" d="M 219.417969 192.585938 C 219.414062 192.585938 217.390625 193.675781 218.308594 195.511719 C 218.308594 195.507812 220.308594 194.503906 219.417969 192.585938 " fill-opacity="1" fill-rule="nonzero"/><path fill="#603814" d="M 232.570312 218.667969 C 232.570312 218.667969 230.957031 217.144531 228.929688 218.855469 C 228.929688 218.855469 230.453125 220.339844 232.570312 218.667969 " fill-opacity="1" fill-rule="nonzero"/><path fill="#603814" d="M 222.550781 221.601562 C 222.550781 221.601562 220.71875 222.820312 222.027344 224.53125 C 222.027344 224.53125 223.851562 223.386719 222.550781 221.601562 " fill-opacity="1" fill-rule="nonzero"/><path fill="#603814" d="M 224.574219 222.1875 C 224.574219 222.1875 223.160156 223.113281 224.171875 224.449219 C 224.167969 224.449219 225.574219 223.582031 224.574219 222.1875 " fill-opacity="1" fill-rule="nonzero"/><path fill="#603814" d="M 238.324219 209.734375 C 238.320312 209.734375 236.277344 210.5 237.1875 212.53125 C 237.1875 212.527344 239.207031 211.835938 238.324219 209.734375 " fill-opacity="1" fill-rule="nonzero"/><path fill="#603814" d="M 219.792969 210.421875 C 219.792969 210.421875 220.539062 212.015625 222.734375 211.054688 C 222.734375 211.054688 222.050781 209.433594 219.792969 210.421875 " fill-opacity="1" fill-rule="nonzero"/><path fill="#603814" d="M 223.554688 214.761719 C 223.558594 214.761719 224.546875 216.863281 227.390625 215.691406 C 227.390625 215.695312 226.484375 213.550781 223.554688 214.761719 " fill-opacity="1" fill-rule="nonzero"/><path fill="#603814" d="M 226.191406 216.980469 C 226.191406 216.980469 227.554688 218.925781 230.203125 217.445312 C 230.207031 217.449219 228.929688 215.453125 226.191406 216.980469 " fill-opacity="1" fill-rule="nonzero"/><path fill="#603814" d="M 232.746094 216.308594 C 232.746094 216.308594 234.589844 214.609375 232.550781 212.832031 C 232.550781 212.835938 230.703125 214.460938 232.746094 216.308594 " fill-opacity="1" fill-rule="nonzero"/><path fill="#603814" d="M 229.894531 214.972656 C 229.894531 214.976562 231.523438 213.066406 229.246094 211.5625 C 229.246094 211.566406 227.601562 213.394531 229.894531 214.972656 " fill-opacity="1" fill-rule="nonzero"/><path fill="#603814" d="M 227.304688 213.191406 C 227.304688 213.191406 228.832031 211.496094 226.839844 210.117188 C 226.839844 210.121094 225.308594 211.746094 227.304688 213.191406 " fill-opacity="1" fill-rule="nonzero"/><path fill="#603814" d="M 224.851562 211.445312 C 224.851562 211.445312 226.273438 209.664062 224.199219 208.4375 C 224.199219 208.441406 222.761719 210.148438 224.851562 211.445312 " fill-opacity="1" fill-rule="nonzero"/><path fill="#603814" d="M 228.871094 204.871094 C 228.871094 204.875 230.726562 202.816406 228.304688 201.144531 C 228.304688 201.148438 226.4375 203.121094 228.871094 204.871094 " fill-opacity="1" fill-rule="nonzero"/><path fill="#603814" d="M 225.855469 203.089844 C 225.855469 203.089844 227.851562 201.242188 225.761719 199.457031 C 225.761719 199.457031 223.765625 201.230469 225.855469 203.089844 " fill-opacity="1" fill-rule="nonzero"/><path fill="#603814" d="M 223.40625 201.40625 C 223.40625 201.40625 225.402344 199.859375 223.75 198.066406 C 223.75 198.066406 221.761719 199.546875 223.40625 201.40625 " fill-opacity="1" fill-rule="nonzero"/><path fill="#603814" d="M 269.914062 219.554688 C 269.910156 219.5625 270.777344 221.960938 267.773438 222.066406 C 267.773438 222.078125 266.859375 219.675781 269.914062 219.554688 " fill-opacity="1" fill-rule="nonzero"/><path fill="#603814" d="M 272.550781 219.214844 C 272.550781 219.222656 273.378906 221.238281 270.898438 221.371094 C 270.898438 221.378906 270.035156 219.367188 272.550781 219.214844 " fill-opacity="1" fill-rule="nonzero"/><path fill="#603814" d="M 274.679688 218.207031 C 274.679688 218.214844 275.984375 220.128906 273.859375 220.730469 C 273.859375 220.738281 272.539062 218.851562 274.679688 218.207031 " fill-opacity="1" fill-rule="nonzero"/><path fill="#603814" d="M 257.460938 220.828125 C 257.460938 220.835938 257.074219 218.191406 260.457031 218.46875 C 260.457031 218.476562 260.914062 220.992188 257.460938 220.828125 " fill-opacity="1" fill-rule="nonzero"/><path fill="#603814" d="M 261.496094 221.683594 C 261.492188 221.691406 260.8125 219.152344 263.984375 219.175781 C 263.980469 219.183594 264.722656 221.597656 261.496094 221.683594 " fill-opacity="1" fill-rule="nonzero"/><path fill="#603814" d="M 264.960938 221.949219 C 264.960938 221.957031 264.054688 219.664062 266.835938 219.445312 C 266.832031 219.453125 267.785156 221.640625 264.960938 221.949219 " fill-opacity="1" fill-rule="nonzero"/><path fill="#603814" d="M 225.925781 209.160156 C 225.925781 209.15625 228.265625 210.582031 230.390625 208.152344 C 230.390625 208.148438 228.144531 206.636719 225.925781 209.160156 " fill-opacity="1" fill-rule="nonzero"/><path fill="#603814" d="M 222.796875 207.644531 C 222.796875 207.640625 225.132812 209.003906 227.25 206.53125 C 227.25 206.527344 225.007812 205.074219 222.796875 207.644531 " fill-opacity="1" fill-rule="nonzero"/><path fill="#603814" d="M 213.277344 213.808594 C 213.277344 213.808594 214.492188 215.613281 217.132812 214.0625 C 217.132812 214.0625 215.996094 212.191406 213.277344 213.808594 " fill-opacity="1" fill-rule="nonzero"/><path fill="#603814" d="M 209.890625 219.078125 C 209.894531 219.074219 211.566406 220.507812 213.847656 218.535156 C 213.847656 218.53125 212.253906 217.035156 209.890625 219.078125 " fill-opacity="1" fill-rule="nonzero"/><g clip-path="url(#77ea20e454)"><path fill="#603814" d="M 202.65625 218.761719 C 202.65625 218.753906 204.3125 220.058594 206.566406 218.007812 C 206.566406 218 204.988281 216.632812 202.65625 218.761719 " fill-opacity="1" fill-rule="nonzero"/></g><path fill="#603814" d="M 220.996094 205.789062 C 220.996094 205.789062 222.785156 206.796875 224.398438 204.871094 C 224.398438 204.867188 222.683594 203.800781 220.996094 205.789062 " fill-opacity="1" fill-rule="nonzero"/><path fill="#603814" d="M 218.476562 203.757812 C 218.476562 203.757812 219.894531 205.179688 222.039062 203.523438 C 222.042969 203.523438 220.695312 202.039062 218.476562 203.757812 " fill-opacity="1" fill-rule="nonzero"/><path fill="#603814" d="M 214.726562 225.613281 C 214.726562 225.621094 214.320312 227.917969 217.242188 228.015625 C 217.242188 228.023438 217.703125 225.726562 214.726562 225.613281 " fill-opacity="1" fill-rule="nonzero"/><path fill="#603814" d="M 225.820312 227.324219 C 225.820312 227.328125 226.242188 225.363281 223.808594 225.109375 C 223.808594 225.113281 223.339844 227 225.820312 227.324219 " fill-opacity="1" fill-rule="nonzero"/><path fill="#603814" d="M 216.050781 229.261719 C 216.054688 229.257812 214.511719 228.128906 212.816406 229.839844 C 212.816406 229.839844 214.273438 230.960938 216.050781 229.261719 " fill-opacity="1" fill-rule="nonzero"/><path fill="#603814" d="M 229.675781 225.671875 C 229.675781 225.671875 230.546875 224.230469 228.792969 223.441406 C 228.792969 223.441406 227.902344 224.824219 229.675781 225.671875 " fill-opacity="1" fill-rule="nonzero"/><path fill="#603814" d="M 223.324219 227.855469 C 223.324219 227.859375 223.8125 225.597656 221.015625 225.34375 C 221.015625 225.347656 220.472656 227.511719 223.324219 227.855469 " fill-opacity="1" fill-rule="nonzero"/><path fill="#603814" d="M 220.410156 228.144531 C 220.410156 228.152344 220.882812 225.953125 218.164062 225.75 C 218.167969 225.753906 217.644531 227.855469 220.410156 228.144531 " fill-opacity="1" fill-rule="nonzero"/><path fill="#603814" d="M 226.285156 224.171875 C 226.285156 224.175781 225.753906 226.023438 228.058594 226.441406 C 228.058594 226.445312 228.636719 224.625 226.285156 224.171875 " fill-opacity="1" fill-rule="nonzero"/><path fill="#603814" d="M 211.246094 208.902344 C 211.25 208.90625 211.472656 211.210938 214.570312 210.480469 C 214.570312 210.488281 214.414062 208.132812 211.246094 208.902344 " fill-opacity="1" fill-rule="nonzero"/><path fill="#603814" d="M 210.683594 206.574219 C 210.683594 206.582031 210.980469 208.722656 213.894531 207.917969 C 213.894531 207.925781 213.664062 205.730469 210.683594 206.574219 " fill-opacity="1" fill-rule="nonzero"/><path fill="#603814" d="M 210.355469 204.160156 C 210.355469 204.164062 210.621094 206.089844 213.238281 205.332031 C 213.238281 205.339844 213.03125 203.371094 210.355469 204.160156 " fill-opacity="1" fill-rule="nonzero"/><path fill="#603814" d="M 211.183594 201.09375 C 211.1875 201.097656 210.6875 202.703125 212.640625 202.796875 C 212.640625 202.800781 213.171875 201.203125 211.183594 201.09375 " fill-opacity="1" fill-rule="nonzero"/><path fill="#603814" d="M 204.40625 206.234375 C 204.40625 206.234375 204.894531 207.566406 206.839844 206.621094 C 206.839844 206.621094 206.398438 205.257812 204.40625 206.234375 " fill-opacity="1" fill-rule="nonzero"/><path fill="#603814" d="M 216.683594 202.042969 C 216.683594 202.042969 218.101562 203.433594 220.242188 201.746094 C 220.242188 201.746094 218.898438 200.289062 216.683594 202.042969 " fill-opacity="1" fill-rule="nonzero"/><path fill="#603814" d="M 215.5625 199.371094 C 215.5625 199.375 216.148438 201.226562 218.726562 200.25 C 218.730469 200.257812 218.203125 198.351562 215.5625 199.371094 " fill-opacity="1" fill-rule="nonzero"/><path fill="#603814" d="M 207.738281 198.914062 C 207.742188 198.929688 206.566406 201.796875 209.960938 202.148438 C 209.960938 202.164062 211.179688 199.28125 207.738281 198.914062 " fill-opacity="1" fill-rule="nonzero"/><path fill="#603814" d="M 210.433594 195.683594 C 210.433594 195.695312 208.734375 198 211.183594 199.09375 C 211.183594 199.101562 212.902344 196.855469 210.433594 195.683594 " fill-opacity="1" fill-rule="nonzero"/><path fill="#603814" d="M 215.242188 197.125 C 215.242188 197.128906 215.523438 198.683594 217.632812 198.046875 C 217.632812 198.050781 217.402344 196.472656 215.242188 197.125 " fill-opacity="1" fill-rule="nonzero"/><path fill="#603814" d="M 256.214844 226.550781 C 256.210938 226.550781 256.816406 225.050781 259.195312 225.914062 C 259.195312 225.914062 258.664062 227.363281 256.214844 226.550781 " fill-opacity="1" fill-rule="nonzero"/><path fill="#603814" d="M 258.039062 228.414062 C 258.039062 228.417969 258.023438 226.78125 260.507812 226.933594 C 260.507812 226.9375 260.582031 228.5 258.039062 228.414062 " fill-opacity="1" fill-rule="nonzero"/><path fill="#603814" d="M 260.511719 228.828125 C 260.511719 228.832031 260.140625 227.207031 262.554688 226.957031 C 262.554688 226.964844 262.976562 228.511719 260.511719 228.828125 " fill-opacity="1" fill-rule="nonzero"/><path fill="#603814" d="M 263.078125 229.054688 C 263.078125 229.058594 262.445312 227.476562 264.742188 226.941406 C 264.742188 226.949219 265.417969 228.449219 263.078125 229.054688 " fill-opacity="1" fill-rule="nonzero"/><path fill="#603814" d="M 265.582031 228.730469 C 265.582031 228.734375 265.148438 227.121094 267.535156 226.875 C 267.53125 226.878906 268.011719 228.410156 265.582031 228.730469 " fill-opacity="1" fill-rule="nonzero"/><path fill="#603814" d="M 267.996094 228.945312 C 267.992188 228.953125 267.78125 226.957031 270.804688 227.089844 C 270.800781 227.097656 271.085938 228.976562 267.996094 228.945312 " fill-opacity="1" fill-rule="nonzero"/><path fill="#603814" d="M 262 233.902344 C 262 233.894531 264.351562 232.65625 266.699219 235.5625 C 266.699219 235.554688 264.46875 236.824219 262 233.902344 " fill-opacity="1" fill-rule="nonzero"/><path fill="#603814" d="M 254.105469 226.007812 C 254.109375 226.011719 253.144531 224.175781 255.238281 222.808594 C 255.238281 222.816406 256.226562 224.558594 254.105469 226.007812 " fill-opacity="1" fill-rule="nonzero"/><path fill="#603814" d="M 252.214844 227.132812 C 252.214844 227.132812 250.804688 225.707031 252.375 223.625 C 252.375 223.625 253.785156 224.96875 252.214844 227.132812 " fill-opacity="1" fill-rule="nonzero"/><path fill="#603814" d="M 261.195312 225.6875 C 261.195312 225.679688 258.542969 225.703125 258.683594 222.992188 C 258.683594 222.984375 261.28125 222.921875 261.195312 225.6875 " fill-opacity="1" fill-rule="nonzero"/><path fill="#603814" d="M 264.503906 225.957031 C 264.507812 225.953125 261.863281 225.925781 262.003906 223.238281 C 262.003906 223.230469 264.59375 223.222656 264.503906 225.957031 " fill-opacity="1" fill-rule="nonzero"/><g clip-path="url(#ffca2d798c)"><path fill="#603814" d="M 278.003906 218.738281 C 278 218.746094 278.800781 220.984375 275.769531 220.6875 C 275.769531 220.699219 274.925781 218.433594 278.003906 218.738281 " fill-opacity="1" fill-rule="nonzero"/></g><path fill="#603814" d="M 277.375 214.660156 C 277.371094 214.675781 277.773438 217.648438 273.648438 216.550781 C 273.644531 216.566406 273.179688 213.484375 277.375 214.660156 " fill-opacity="1" fill-rule="nonzero"/><path fill="#603814" d="M 267.09375 225.785156 C 267.097656 225.78125 265.078125 225.722656 265.1875 223.6875 C 265.1875 223.683594 267.164062 223.707031 267.09375 225.785156 " fill-opacity="1" fill-rule="nonzero"/><path fill="#603814" d="M 270.378906 225.128906 C 270.378906 225.125 268.328125 225.496094 267.839844 223.449219 C 267.839844 223.445312 269.835938 223.050781 270.378906 225.128906 " fill-opacity="1" fill-rule="nonzero"/><path fill="#603814" d="M 272.917969 224.757812 C 272.917969 224.75 270.875 225.078125 270.386719 223.046875 C 270.386719 223.039062 272.375 222.6875 272.917969 224.757812 " fill-opacity="1" fill-rule="nonzero"/><path fill="#603814" d="M 275.597656 223.527344 C 275.597656 223.519531 273.871094 224.460938 272.546875 222.730469 C 272.546875 222.722656 274.207031 221.757812 275.597656 223.527344 " fill-opacity="1" fill-rule="nonzero"/><path fill="#603814" d="M 264.296875 232.3125 C 264.296875 232.308594 262.171875 232.632812 261.890625 230.570312 C 261.890625 230.5625 263.964844 230.210938 264.296875 232.3125 " fill-opacity="1" fill-rule="nonzero"/><path fill="#603814" d="M 262.132812 235.761719 C 262.136719 235.757812 259.941406 235.847656 260.007812 233.789062 C 260.007812 233.785156 262.152344 233.664062 262.132812 235.761719 " fill-opacity="1" fill-rule="nonzero"/><path fill="#603814" d="M 258.90625 235.121094 C 258.90625 235.117188 256.75 234.515625 257.671875 232.664062 C 257.671875 232.660156 259.796875 233.222656 258.90625 235.121094 " fill-opacity="1" fill-rule="nonzero"/><path fill="#603814" d="M 256.128906 233.96875 C 256.128906 233.972656 254.289062 232.765625 255.910156 231.34375 C 255.910156 231.34375 257.746094 232.492188 256.128906 233.96875 " fill-opacity="1" fill-rule="nonzero"/><path fill="#603814" d="M 253.308594 232.707031 C 253.308594 232.710938 252.304688 230.894531 254.566406 230.390625 C 254.566406 230.394531 255.597656 232.140625 253.308594 232.707031 " fill-opacity="1" fill-rule="nonzero"/><path fill="#603814" d="M 261.804688 232.058594 C 261.804688 232.054688 259.675781 232.410156 259.394531 230.332031 C 259.394531 230.328125 261.46875 229.949219 261.804688 232.058594 " fill-opacity="1" fill-rule="nonzero"/><path fill="#603814" d="M 266.925781 231.984375 C 266.925781 231.976562 264.804688 232.269531 264.527344 230.21875 C 264.527344 230.210938 266.597656 229.894531 266.925781 231.984375 " fill-opacity="1" fill-rule="nonzero"/><path fill="#603814" d="M 269.800781 230.785156 C 269.800781 230.78125 267.933594 231.703125 266.765625 229.941406 C 266.765625 229.9375 268.570312 228.992188 269.800781 230.785156 " fill-opacity="1" fill-rule="nonzero"/><path fill="#603814" d="M 277.359375 222.28125 C 277.359375 222.277344 276.082031 223.117188 274.867188 221.8125 C 274.867188 221.808594 276.09375 220.945312 277.359375 222.28125 " fill-opacity="1" fill-rule="nonzero"/><path fill="#603814" d="M 203.535156 220.484375 C 203.535156 220.476562 205.609375 222.675781 209.160156 220.039062 C 209.160156 220.03125 207.183594 217.707031 203.535156 220.484375 " fill-opacity="1" fill-rule="nonzero"/><path fill="#603814" d="M 209.613281 227.707031 C 209.613281 227.703125 211.332031 229.789062 214.417969 227.742188 C 214.417969 227.738281 212.792969 225.582031 209.613281 227.707031 " fill-opacity="1" fill-rule="nonzero"/><path fill="#603814" d="M 213.320312 231.660156 C 213.320312 231.65625 215.289062 233.496094 217.992188 231.3125 C 217.992188 231.308594 216.121094 229.410156 213.320312 231.660156 " fill-opacity="1" fill-rule="nonzero"/><path fill="#603814" d="M 211.910156 224.34375 C 211.910156 224.335938 214.421875 224.460938 215.070312 221.910156 C 215.070312 221.902344 212.632812 221.734375 211.910156 224.34375 " fill-opacity="1" fill-rule="nonzero"/><path fill="#603814" d="M 219.019531 224.511719 C 219.019531 224.507812 221.5 223.613281 220.714844 221.222656 C 220.714844 221.21875 218.273438 222.058594 219.019531 224.511719 " fill-opacity="1" fill-rule="nonzero"/><path fill="#603814" d="M 215.429688 225.046875 C 215.429688 225.039062 218.316406 224.621094 217.863281 221.890625 C 217.863281 221.882812 215.03125 222.261719 215.429688 225.046875 " fill-opacity="1" fill-rule="nonzero"/><path fill="#603814" d="M 209.1875 223.027344 C 209.1875 223.023438 211.09375 223.859375 212.617188 221.773438 C 212.617188 221.765625 210.78125 220.886719 209.1875 223.027344 " fill-opacity="1" fill-rule="nonzero"/><path fill="#603814" d="M 207.445312 221.976562 C 207.445312 221.972656 208.855469 222.765625 210.246094 221.164062 C 210.246094 221.160156 208.894531 220.335938 207.445312 221.976562 " fill-opacity="1" fill-rule="nonzero"/><path fill="#603814" d="M 216.597656 233.15625 C 216.597656 233.152344 218.019531 234.089844 219.421875 232.570312 C 219.421875 232.570312 218.058594 231.605469 216.597656 233.15625 " fill-opacity="1" fill-rule="nonzero"/><path fill="#603814" d="M 225.65625 233.851562 C 225.652344 233.851562 227.992188 232.730469 226.769531 230.449219 C 226.769531 230.445312 224.457031 231.5 225.65625 233.851562 " fill-opacity="1" fill-rule="nonzero"/><path fill="#603814" d="M 229.300781 232.695312 C 229.296875 232.695312 231.542969 230.949219 229.226562 229.058594 C 229.226562 229.058594 226.984375 230.726562 229.300781 232.695312 " fill-opacity="1" fill-rule="nonzero"/><path fill="#603814" d="M 222.230469 234.144531 C 222.230469 234.140625 224.574219 233.871094 224.46875 231.535156 C 224.46875 231.535156 222.171875 231.753906 222.230469 234.144531 " fill-opacity="1" fill-rule="nonzero"/><path fill="#603814" d="M 219.863281 234.167969 C 219.859375 234.167969 221.742188 234.101562 221.871094 232.21875 C 221.871094 232.21875 220.035156 232.246094 219.863281 234.167969 " fill-opacity="1" fill-rule="nonzero"/></svg>